<mxfile host="app.diagrams.net" modified="2024-02-05T06:06:23.990Z" agent="Mozilla/5.0 (Macintosh; Intel Mac OS X 10_15_7) AppleWebKit/605.1.15 (KHTML, like Gecko) Version/17.2.1 Safari/605.1.15" etag="8BYrrn0D5Ztm4zTcvzR6" version="23.1.1" type="device">
  <diagram name="Page-1" id="4LIjJFYs4Laq8NMZIbh3">
    <mxGraphModel dx="1122" dy="765" grid="1" gridSize="10" guides="1" tooltips="1" connect="1" arrows="1" fold="1" page="1" pageScale="1" pageWidth="850" pageHeight="1100" math="0" shadow="0">
      <root>
        <mxCell id="0" />
        <mxCell id="1" parent="0" />
        <mxCell id="1CN227mYzn6WlP0km_AM-32" value="" style="group" vertex="1" connectable="0" parent="1">
          <mxGeometry x="889.9999999999999" y="625" width="140" height="180" as="geometry" />
        </mxCell>
        <mxCell id="1CN227mYzn6WlP0km_AM-27" value="" style="shape=image;verticalLabelPosition=bottom;labelBackgroundColor=default;verticalAlign=top;imageAspect=0;image=data:image/jpeg,/9j/4AAQSkZJRgABAQAAAQABAAD//gAfQ29tcHJlc3NlZCBieSBqcGVnLXJlY29tcHJlc3P/2wCEAAQEBAQEBAQEBAQGBgUGBggHBwcHCAwJCQkJCQwTDA4MDA4MExEUEA8QFBEeFxUVFx4iHRsdIiolJSo0MjRERFwBBAQEBAQEBAQEBAYGBQYGCAcHBwcIDAkJCQkJDBMMDgwMDgwTERQQDxAUER4XFRUXHiIdGx0iKiUlKjQyNEREXP/CABEIAv8D/gMBIgACEQEDEQH/xAAdAAEAAgMBAQEBAAAAAAAAAAAACAkFBgcEAQMC/9oACAEBAAAAAK/wAAAAAAAAAAAAAAAAAAAAAAAAAAAAAAAAAAAAAAAAAAAAAAAAAAAAAAAAAAAAAAAAAAAAAAAAAAAAAAAAAAAAAAAAAAAAAAAAAAAAAAAAAAAAAAAAAAAAAAAAAAAAAAAAAAAAAAAAAAAAAAAAAAAAAAAAAAAAAAAAAAAAAAAAAAAAAAAAAAAAAAAAAAAAAAAAAAAAAAAAAAAAAAAAAAAAAAAAAAAAAAE5ObxjAAAAAAAAAAAAAAAAAAAADqV1nIeXxJlfCnnunAAAAAAAAAAAAAAAAAAAHosu1iVvQgfKropgAAAAAAAAAAAAAAAAAHo7n2Padn3+SIA+RS13i0U8MAAAAAAAAAAAAAAAAAG43mfQAAaXCyBAAAAAAAAAAAAAAAAAA6Vdd+wAACnThgAAAAAAAAAAAAAAAAWP1wLQNoksAAAcbqv5qAAAAAAAAAAAAAAAAei9SOcerMwAAAeKrqKZ6PTjgAAAAAAAAAAAAAADrd0YAAAA4XTq9F2WzRfrozOva8AAAAAAAAAAAAAAPRO2wkAAAAcqpWnNMvo/7fPz/XWqP8MAAAAAAAAAAAAAA2md05wAAAAw1GfUrkwKhY9gAAAAAAAAAAAACSmY4Jh7tdwAAAAAwOZ/UCJNcGPyGrAAAAAAAAAAAAB6LYpKPmNyYAAAAAAPFictx+CUWwAAAAAAAAAAADrdy3tAAAAAAAAfKK9WAAAAAAAAAAAALb5HgAAAAAAAESKuAAAAAAAAAAAAC4rugAAAAAAABACAAAAAAAAAAAAADabxveAAAAAAAAaBSAAAAAAAAAAAAAXo7aAAAAAAAAKtYuY4AAAAAAAAAAAEzrKv2AAAAAAAACp2MYAAAAAAAAAAAb1eIAAAAAAAABwOn0AAAAAAAAAAAOhXeAAAAAAAAAfIA8t6lAAAAAAAAAAAABkb0M6AAAAAAAAB8/Pk1OGOAAAAAAAAAAAXmbkAAAAAAAAAOBR1gQAAAAAAAAAADvdvv7AAAAAAAAAAo70UAAAAAAAAAASysa3IAAAAAAAAAEd6kfOAAAAAAAAAAdjuW/UAAAAAAAAAHLKlnPQAAAAAAAAANxsmlF+oAAAAAAAAAApb5KAAAAAAAAAGZtLk0AAAAAAAAAAah5Nrpz44AAAAAAAAAN6uxyYAAAAAAAAAAjjVxqwAAAAAAAAAJOWxAAAAAAAAAAArmg0AAAAAAAAAFi85wAAAAAAAAAAKrIqAAAAAAAAAD0XE9tAAAAAAAAAAAqdjGAAAAAAAAAJOWxAAAAAAAAAAAKz4YgAAAAAAAACb1kAAAAAAAAAAAGJowwwAAAAAAAABmbf+zAAAAAAAAAAAOJU3AAAAAAAAAHe7gwAAAAAAAAAABQ1hgAAAAAAAAFrMpQAAAAAAAAAABHGqDHAAAAAAAAAyN7mRAAAAAAAAAAACueDIAAAAAAAAJZWmAAAAAAAAAAAAUAgAAAAAAAAswmcAAAAAAAAAAADjFNAAAAAAAAA9E7bCPoAAAAAAAAAAAaXUNy4AAAAAAAATmsX+gAAAAAAAAAABjKTtFAAAAAAAAG03qfQAAAAAAAAAAAaVUhyUAAAAAAAALN5jgAAAAAAAAAAArOhkAAAAAAAACSltQAAAAAAAAAAAKKtWAAAAAAAAAvM3IAAAAAAAAAAAK74IgAAAAAAAA2G8vJAAAAAAAAAAABAivgAAAAAAAAElLagAAAAAAAAAAA0eoPmoAAAAAAAAJnWXf0AAAAAAAAAAAOc0jgAAAAAAAALOJjAAAAAAAAAAAPnLa/4qAAAAAAAAAFrMpQAAAAAAAAAAK44OgAAAAAAAAB1K6wAAAAAAAAAAGl0agAAAAAAAAAWbzHAAAAAAAAAAGPpL0UAAAAAAAAACTlsQAAAAAAAAAAq2iUAAAAAAAAAA6VdoAAAAAAAAAAc/pBAAAAAAAAAALD53gAAAAAAAAAMNV5F0AAAAAAAAAAn/AD/AAAAAAAAAAVyQcAAAAAAAAAAHUritiAAAAAAAAABW/CEAAAAAAAAAAHouK7YAAAAAAAAAIkVcAAAAAAAAAAAJ/wA/wAAAAAAAB8jdIHIvlOvDAAAAAAAAAAAEzbMQAAAAAAABqNMGvdr6VxXkgAAAAAAAAAABbDI73gAAAAAAAEGIl8cAAAAAAAAAAABmchK2ygAAAAAAAApL5qAAAAAAAAAAAAei0mVoAAAAAAAHyn3ggAAAAAAAAAAAAyN5+eAAAAAAADWKrI9gAAAAAAAAAAAB2O5sAAAAAAAfOIVhcuAAAAAAAAAAAABtN43vAAAAAAAOAVAAAAAAAAAAAAAAEtbSQAAAAAAFX0Y9eAAAAAAAAAAAAAPRcB3YAAAAAAEKa1wAAAAAAAAAAAAATNsxAAAAAAGG5JTqAAAAAAAAAAAAAD0XBd0AAAAAAEKa1wAAAAAAAAAAAAADucxJjgAAAAA+VwQhAAAAAAAAAAAAAABeDvoAAAAHzhndNYrKi6AAAAAAAAAAAAAABZfM8AAAAGPr3gzJTimrAAAAAAAAAAAAAAAPRepsQAAAA5TV1xwAAAAAAAAAAAAAAAC0iWwAAABw+orDAAAAAAAAAAAAAAAANps1k9/WsefbwAAGlwsgzjgAAAAAAAAAAAAAAAA6FIPgnPbcpCAHzThuH9MBWrFvHAAAAAAAAAAAAAAAAABJS0r5sIMBWVFUdCmKhTpwAAAAAAAAAAAAAAAAAD0JGbxzfDdK4Zp2OAAAAAAAAAAAAAAAAAAAAAAAAAAAAAAAAAAAAAAAAAAAAAAAAAAAAAAAAAAAAAAAAAAAAAAAAAAAAAAAAAAAAAAAAAAAAAAAAAAAAAAAAAAAAAAAAAAAAAAAAAAAAAAAAAAAAAAAAAAAAf/EABQBAQAAAAAAAAAAAAAAAAAAAAD/2gAIAQIQAAAAAAAAAAAAAAAAAAAAAAAAAAAAAAAAAAAAAAAAAAAAAAAAAAAAAAAAAAAAAAAAAAAAAAAAAAAAAAAAAAAAAAAAAAAAAAAAAAAAAAAAAAAAAAAAAAAAAAAAAAAAAAAAAAAAAAAAAAAAAAAAAAAAAAAAAAAAAAAAAAAAAAAAAAAAAAAAAAAAAAAAAAAAAAAAAAAAAAAAAAAAAAAAAAAAAAAAAAAAAAAAAAAAAAAAAAAAAAAAAAAAAAAAAAAAAAAAAAAAAAAAAAAAAAAAAAAAAAAAAAAAAAAAAAAAAAAAAAAAAAAAAAAAAAAAAAAAAAAAAAAAAAAAAAAAAAAAAAAAAAAAAAAAAAAAAAAAAAAAAAAAAAAAAAAAAAAAAAAAAAAAAAAAAAAAAAAAAAAAAAAAAAAAAAAAAAAAAAAAAAAAAAAAAAAAAAAAAAAAAAAAAAAAAAAAAAAAAAAAAAAAAAAAAAAAAAAAAAAAAAAAAAAAAAAAAAAAAAAAAAAAAAAAAAAAAAAA/8QAFAEBAAAAAAAAAAAAAAAAAAAAAP/aAAgBAxAAAAAAAAAAAAAAAAAAAAAAAAAAAAAAAAAAAAAAAAAAAAAAAAAAAAAAAAAAAAAAAAAAAAAAAAAAAAAAAAAAAAAAAAAAAAAAAAAAAAAAAAAAAAAAAAAAAAAAAAAAAAAAAAAAAAAAAAAAAAAAAAAAAAAAAAAAAAAAAAAAAAAAAAAAAAAAAAAAAAAAAAAAAAAAAAAAAAAAAAAAAAAAAAAAAAAAAAAAAAAAAAAAAAAAAAAAAAAAAAAAAAAAAAAAAAAAAAAAAAAAAAAAAAAAAAAAAAAAAAAAAAAAAAAAAAAAAAAAAAAAAAAAAAAAAAAAAAAAAAAAAAAAAAAAAAAAAAAAAAAAAAAAAAAAAAAAAAAAAAAAAAAAAAAAAAAAAAAAAAAAAAAAAAAAAAAAAAAAAAAAAAAAAAAAAAAAAAAAAAAAAAAAAAAAAAAAAAAAAAAAAAAAAAAAAAAAAAAAAAAAAAAAAAAAAAAAAAAAAAAAAAAAAAAAAAAAAAAAAAAAAAAAAAAAAAAAAAD/xAAxEAADAAIBBAAFAgYCAgMAAAAEBQYDBwgBAlBgABMUFRYXQBASGCA3VxFWJTBHkKD/2gAIAQEAAQwA/wDyeaO4roryExVV930KonZXFi11tOP7Ax+jNSe+6Vkz7LaEWrESfdBvjkPNuqfTNsmn12U9nC8R9dAR3f2VgDDO+1lxgvayvzqbFMwnUn9Eeqf+wVnxeceNoRdKajElmz8JrrvYCIAhq7haFeB7qJhxklij5i8ImJVwu1SWpWG/mFCf8XXCEPoGD361p8vQvUupZrUU12JEnZ883+4oMQ8QkA8XCSJyK46l6yLzVcphykxft4ghbAsUAAXMSXDcattXJZ4/SdyoMU/whtu90u6VVMkxJD+D3/NoD9qrf+Il/wAIorvSsOkpTO8TrTfHSfho/KqvkUzRPP8A1FBiHiEgHi4SRC+FWpSSyiMLWmExP+EUV3pWHSUpneJ1/RHtb/sEn8UE+6lHTGdol2UFr7XrtqAi2BCu2pHyABTBDxBjwCsJIn7K+1dCbGXmiVU+JnJ21w3woprvd6vNbNDfatRxaXYN+hlH9HhTAq1gCNSsRKcHyF37TkJq79Lthsl6xUWNM+y2mjJ+q44xj+TjsX5l/DSvHOQYaWwC2y1cedLcR9Xx9GlqBWNCaV+13vpUDck0OJ2F/RP9naor9SusCarGxde32MQQtgWKAALmJL10qPRa/hUjXB8g8vhVqUksojC1phMXHzjy6L2Gfk2lDH4E/wC4dTk9SCYwaREuah8iuOpesi81XKYcpMX/ABEELYFigAC5iS2qhsiPzqniwtew9d0VPuqLbUFiSrsxfd+85U/4Fu/4iYcZJYo+YvCJi19rXXssjkTEqOeLYPIiJpSsZ1FHo2pPKPUOugdUtqtLKrk7RHDW1MJkPm4922E/STa3+sqz4fSNXLfS/k8w2UesiCFsCxQABcxJfD7X1zNX9G9pJFspX/vN/JAHunbhazfiJBvjiqx0iSj75G8Aniq2j0bqR+kYpssEkB7VawBGpWIlOD5C74KDEPEJAPFwkiLFilEBgUoloi9f8X0PNbGmjpWpC+eHQT7qUdMZ2iXZQWvqyOGtqYTIfNx7tsJxJ0dSzbUzY9mp+3d/722jkt/LOJCh7MvctoJ91KOmM7RLsoLXRURX0WxYJylm2Bar+/lT/nq79Tg+Ku0L6aCqRO9SrCf8OttIUrFzizpGvc113sBEAQ1dwtCvARztBTF5AJtEwbF60Q5JbXcPOEL8QJX795ERNKVjOoo9G1JWLFKIDApRLRF6/wDv3/xezbNf9llGMxAXtTEV8QX0CrZtgqyzqQumoEU2BkxYy6mIr4gvoFWzbBVl9NEELYFigAC5iS9GceEchC4hNjS083f/AMCgxDxCQDxcJIiKSk5T6vumplSo8W6nJ6kExg0iJc1DVa81+hPwN0sLPLj3U5PUgmMGkRLmod1xr1Jbhg4O+dxIMu/+Nx+qP5KOayls5D0vS+zhNSV+WtIlsTzLNuQ6OeR0wWPLjE8kUGIeISAeLhJEqYiviC+gVbNsFWX0viZZuq3UmHsdd+Hv7/J8zlsVm12uPdnfJpvS+MC6MA1Ag7ow/wCq8pzWlr8wtHWd/XEZFelQyMSmto+bPyZuwRCgSy6VfOzq/CAo8nt+GK2NreniwTsQRfpesTTDtZ69YHl5SS/KckNS3RG4appN69bFKWqhsiPzqniwtew9I0VxTyX6XrWX5LBSnVrAEalYiU4PkLvK8t550r3M+dHrsuJb6Pq8QRhsvXYB4uIkTy/K8QUnRVhmJFw5cvo+pP8AK2svMFBiHiEgHi4SROYusVyRLHUUZDrlyrinqMTYNeS/qEOYyX3rxg11A6+r7udNd9hfoihqeibLHirP8hhEPTKWKj6M/HhxleXKDEPEJAPFwkiLFilEBgUoloi9fyHm3VPpm2TT67KezaqGyI/OqeLC17D0TUn+KdZeb3foEXcjqHY97PCtxba4b4UU13u9XmtmhvoWitFOtwuuuXL1ygyitYAjUrESnB8hd5zZcMXrW4oIk07Cbl9A47cdVO21Lqnp3RYqnWes5rVE11mJjqX3jec3RySmdRHCIB1n39+WWWwLKPPKzEl+f0rrylsrqLKEkS2iBYsUogMClEtEXr/OcgFVK709cK5LAXnbfpJtb/WVZ8fpJtb/AFlWeeg4Ol2RShS0sF883S3FqZhV5Z+wAlNI/WLFKIDApRLRF6/0Desclgdr18rO9mbsVebRztBTF5AJtEwbF8ctCfpOBmpKLv8A57Dz9tsaG1qGAbcP8K3HDbg1xsks4CLp8TAt8/Sy6VhRUTDCAo39VIbbbdZTzB/1qnzWrxBGGy9dgHi4iREUlJyn1fdNTKlR6DyS0e+3EFI9823XCFVMRXxBfQKtm2CrL5zjvLbURbOhqJVAsO9b6FzfcHkUkUizICxQfN6F1LqDbKOZ2GRNFjH+h8v69y52sZKF9+Loq80IIWwLFAAFzEl8ctZudUa66JaPPi6tfQ+W886V7mfOj12XEt81xKjktdtrB3uuzN39vonNK5EfXCeJHBy9mXzXCGfdd9tTVfRdm+yeh1TY+emnbxWgLdm0AlAE6Y4aoVgO78zOpC6agRTYGTFjL4/ataafhSZx2zENY+ib20Uk2+k6ZsXXCBVeZ41Qxdztqd6DnYRcXo1BPupR0xnaJdlBa+Y4r6VAhZoHYJxf1b/0bk9qIO/hjnqdDmMsWqhsiPzqniwtew8soVHvWyxGqwfPYSKH8WlJiY+q+q9I5sQYCp9OXy0Ivpn8txa0ufb0gOwTi/pUHv8Awlm3QchRU5TZh2KvSORtSfGaeq2qh39sceUEFyGlihYe7D25dX8MT8/RW92kx+j7BRBF4gwIAuIYT0e72lC62ANKqKAQcjbO2aTblJ3Onfd8gHyml+Iv5OqmLe8cfJWCiCLxBgQBcQwno9VSr42ad1DPAXlB2Xcl7KuKC2NBwhZfKQwqU22jwqTuxdqQUQReIMCALiGE9ItNnxeuj5VfWtPoO7etilvtr19VO9+bvVeV4c7S6P5k7XjtqWS59I5Jb/gNoJQ5qYmspRHluKt5NQO0O8upN+iC9Ito51AVLiQoezF2svL6k/xTrL0jnHPJQHUJRBLsWFr5aRQ/lNXMTH1X0vxPpRZpAjmwcubIJ6Pzu/8Aivy/FfXX53tAFgVlLwAej7UrG0Nryprkab7mds7a9ftp1gc1ZOLp2+W4p71SwGQmArOmEROoaqHa8doiZiMF/o25Nh9NV68eVmDEJnY+Y4qv46B1f3iVOwJMI30QosReISceViGEG3/qAmlZTHbdqezPyy2cHdXASBNkXFJPM8V91AXU0Dr44T6R/wCh8geTs1dyTKCilheUbzelaw+N2hFtBHf2sb0K72lC62ANKqKAQcjzvDnaXR/Mna8dtSyXPoDmhn5kXGbRvVykTZdyXsq4oLY0HCFl87xGCyG7jA+VU5U3d6By/wBi/lmw+yRFxCdQPPaaELN21rTCELlz5fP7eti9ba4prUIDEYV5/hDDCdBKbZfedl6l+etrFLASzivoe/L2rd+8jztq9OybmcRayQ8/whuS+hdNrTvBxdRPPcot9NTmljp9UEp70HoGlaw+N2hFtBHf2sZVsXX70/AqSXU8wP8AOcn9+WHW4OhY1/mUq/QhCy15Yp4BWYYvjjs51tXXXR1RYMXa181v3k/l1i+7IyLWCHPfROENyX0Lptad4OLqJ5QosReISceViGEr+WOpZB13pu3OwfdyWsm6JSjdpnYhK/8AgUWIvEJOPKxDCck2yl7uqzao2YjBf6JwiFK67Kpz+0XN1D8pseEE2TDv4o07MFivIOl1vSmy1SF8g0Zu1C+3/Rsy8HxDcldtQxZ5HSiyv8X9bm1v+vyfxsbd2xdnFl9795mHW+irbuA42al1kG9QMQzp6hR0yVdRTrHCer8nublnVxGw3kjHKp4sDbO7qvcn2D8nXqRfSZ12XM0CKkAx4shdTb19uX0NraRg1y8R91ASB/6YvRP5AvJ7ghhNbbHp4sA7KYJ6WIWWvLFPAKzDF6K5Qz9il6qdjuV6ak8iUWIvEJOPKxDCcitky2zr/M4lEeIYT0xQqPetliNVg+ewhkhc1FR86xyYe8nx9zczWt5s2qqTfkBba5I3W2AO9AXiEUoPTdATR9Rt+EFX5hMff44osReISceViGEt+SOpIYMAnvosL/LtnbNJtyk7nTvu+QD6dDPBJm2j6Q/Hm7xJ6hR0yVdRTrHCer8bytJEE0VYYSSsOLL6jxH2j+HXX4i5aF9iLxm9eUNBYuuinXDlgmm31dV1P0v5PTtm/qQhZa8sU8ArMMXxw22dtaEzGP8AvE/IPFcluS3499frrXR//mvVOEQpXXZVOf2i5uofiLaxSwEs4r6Hvy9q2/5DwqDXjasjqmedNvVBCy15Yp4BWYYvVu/tfVELPsX92pBfeI5S7zhSJiy1GvylnPfV9d8itn63+bgXuPuwGr+Y81QfakuxAvszrwhRYi8Qk48rEMJtzmDQNy307rTtxAofWtOGiF6k1pmCKw58f78osReISceViGEkuT2oLBq4U43/ANp/hc3M1rebNqqk35AW/eR521enZNzOItZIet8KqJANBtZsh8uwuv3zmhn5kXGbRvVykTl3uhVT/ZoOIqPrVnxB8qtoQM0FLCdiloFU29fbl9Da2kYNcvrghZa8sU8ArMMXrpqe91/Cu2uf55/7zce2FOq5F4xwnqc9Ptnd1XuT7B+Tr1IvsXEHYWBtr7HK0NcJmc/u96b0SagS9MOHpiOqaCgdVbpjRUTHKc19ihngkzbR9Ifjzd4k7zD1I8dLU+XA7VdFDVQ7XjtETMRgv+Lm5mtbzZtVUm/ICn9l65qci7BP3KQ8r9pd7ShdbAGlVFAIORtrmRhezXek1eE2VmtW7Z6fnavGZbBh7LB7TutbnhFy1AXgG/rc2t/1+T+NnbXr9tOsDmrJxdO0QsteWKeAVmGL477ww7MlAhapspwWH/pKLEXiEnHlYhhP1b1T/s2T+P1b1T/s2T+P1b1T/s2T+P1b1T/s2T+FDVQ7XjtETMRgv/g5uIqbLxg0lekUk1nMjaFCA7UqwlKMZq3bPT87V4zLYMPa+KvWFH2h3tL0xSKM5uIqbLxg0lekUkqti6/en4FSS6nmB/8Ac5uIqbLxg0lekUk8iORBWyys0nJ5so0X/ZB7TutbnhFy1AXgGrucP8ypP+ByXym1dzh/mVJ/wOS+U2v7drseubWbwcTAw9uKLLNyduY0rMRlELLXlingFZhi9S8l7qEpewqpeNqRAVzd2V1KJ7gJiZwiMOT+3z7QGz6P/pfix5C7asXXe477Bgm7UXJ9+u0xSxh7+hItv1b2t/s2s+Grds9PztXjMtgw/wDtK//EAEUQAAMAAQMDAgQCBQUNCQAAAAECAwQFERIAEyFQYAYUMTIiQRAVQHXTFiAwdNQjJTNDUVJTY5GhsrS1JDREcHKQoKLE/9oACAEBAA0/AP8A4nmblu+nJi2x5JfA4IUvwrKjDmxbrTbIAYvdMusrZCwmxkZcFYlwWXn7+lq2HmalB5q8F0+F0a7XD/h7fHwQfuJC/orHDrLFgAaOuNlyu4QfVmCISFHlutY0PElnm+TJ20vLKilTgmKhVZafmS/Wm221HMvHg1grEdrBZgUsz7eKruijr+t4f9m6TamJqelYF8iF4MSFLCQftU/J5nqHHvZWZpmTCE+bBF5u6BRuSAPe1bJN8mwcyirHY0cSV3Kr9TxUnb6Dq+JGvzmFk4a42TzQHuxHZrtJ+hVhly+IbAyaRHhpPiwBDL1fhTU9TogW+bdf+CabkTmPC/z8mLxvCyCkqyoOLI6tuGVgdiD1k1HJfL10qrnYSqT5aDHxKvvDJskIQihpWtaHiqIq7lmYnYAdYsldsn4hjkYEnZzsEkDNnduu8Dmtplr1zDIflEWgiBm6PafK+Z86umwPOcuExF+f5P12ScN9StCuGajyFqIwR+LdX1C2U+S+nSylhJlREglclObKAnP+jyYvG8LIKSrKg4sjq24ZWB2IPVau6Y0cvHMohjuEQ1g7lV67JOG+pWhXDNR5C1EYI/Fuv63mf2brBqY5ONYDkjfUEEbhlYEFWBIYEEe7NP8AiHTMzKtxZ+3CGSju/FASdlHWTFLQvFxSVZUHJXRl3DKwO4I/Y74gxZ6kkZrqOMisXQwuQWTgx5Afb1hc6ZemZzStfIh/lxDFJ70T808l/deZbZrP4rdh9MbHJBQXr9EL9afiRw8aXNn4QggmicnJY7KANySf2XO45OjVu/dR0KKbSR/9S5K7N+ML7mw/hnR8+TaVCcb5xrCRyRcIB32Kbuv1cv8Ap+J4rq0dQxoKmdgQzIzaE45LguGTiH60vLTMxoZmVAwN4nlN3EYyY8G/ZtK71dIynLdgNYDnG6D6yrwG7Ack6yZd7EzsRmph5SgDmJO6oeUydnUgEe5MmyQhCKGla1oeKoiruWZidgB1p/w9pmHlR5K/bvDGSbpyQlTsw6rV3TGjl45lEMdwiGsHcqvWhRd1TOQJh5eetQk08+MqAAZzwJT9pnUWSGoYs8mQqoKh1SoYBgGIB6yajkvl66VVzsJVJ8tBj4lX+Zk2SEIRQ0rWtDxVEVdyzMTsAOoce9i5kXhefNQ68koAw3Ugj29g63ganllB4hh4eQlK2dj4VVH7b/ev/qMP01sk3ybBzKKsdjRxJXcqv1PFSdvoOsPScVI/EGHp+Ml8z/s4m2UlUDH+7gkkhj1OIgmRn6fDKqslJYIrVViFBYnrRK4rwfSsaWGKjKyZY7pdZKA67P0ljB76fp98qS1UBihaSsAwDA7dfuXM/h9ZXP5f9Y4VsXu9vbnw7qry48hv7ZybJCEIoaVrWh4qiKu5ZmJ2AHQ+HqYYtqOI+JzvfJi6Ii2Cl/Ej+2nEjc52YGaE3xrpdEcJux7rIEHEFv0al8Q2GnJqulpkO8Hx5BEXIrJkXk6sEQt1lxKDK03Ax8PMi31V41mgKsp60/Ejh40ubPwhBBNE5OSx2UAbkk/oyYvG8LIKSrKg4sjq24ZWB2IPUOXaxsOKQhPmxduCTAUbsST+i+zzdCFvjXUEJeDkHhROsGpjk41gOSN9QQRuGVgQVYEhgQR7XSxg99P0++VJaqAxQtJWAYBgdujiXwdLwM7GK5yO7gPlkP5h4Uov5uGP7dqUlSphQzqjI4olEbz+JHUMNwR1g1McnGsByRvqCCNwysCCrAkMCCOsH4mwLZeekG+TguHVMioe5ARWVP6D+9f/AE6HtPN3fETVbXje8PyuqSlTab9YkTY4Om3yK5llH1EUeKB26hx72VmaZkwhPmwRebugUbkgDqcjZ4afi0yqrJSFLlZBiFBYAnrA0TBlm40QnFcztA3JMt1ZmoWLMPuPoE4iCZGfp8MqqyUlgitVWIUFieocu1jYcUhCfNi7cEmAo3Ykn+gyeEtUjqNKjGukphEshRaFKKFCFemreMmy4MkrtjkK5hT7KqNx+JCR1q2oYunwexKyWuVQSUuVDEKC3kgHpq3jJsuDJK7Y5CuYU+yqjcfiQkezsmyQhCKGla1oeKoiruWZidgB1mZb51vmsDHzHwkoiIuILOH58OH6cmLxvCyCkqyoOLI6tuGVgdiD1k8O/wDq7Cjid3t78OfaVeXHkdvS51FkhqGLPJkKqCodUqGAYBiAeocuzlYemY0Lz5qUbi80DDkCQep1FkhqGLPJkKqCodUqGAYBiAesSrOMn4ehj4FXDjYpUCbI69PwnW1+L5OBc+NsgoqAzc/Y/swafbExpPcY7Y9bMm90czrs3AFOtV07F1CC2AFVllTFVDhSwDAN52J9TyYvG8LIKSrKg4sjq24ZWB2IPTVvGTZcGSV2xyFcwp9lVG4/EhI9maFqDaHiOicCcPGx4vIPt4LIH4eqYmXtoElqQ+R3nQZaFPIMwgDF/ZmURlaw5oXdNXeSDIk6kDhw2CoAPKAN6pp8jjyXGhxrp+TklQ75R8lluVUI/svVtb0/T7vAharLKusmKFgwDAN1gSEcfHiDxVfqSSdyzMSSzEksSSfVNQjA49rKWn3ca6ZCq/HyFcpxLezMn4Y0m1r2c0rWtMRGZ3ZvLMx9V1L5XMhfStOfIg7vBFs7HHVgtWsrlw3UOPexcyLwvPmodeSUAYbqQR7Jy5A6TjYhSeZkqfPzLmqOEgR9njd+tPxI4eNLmz8IQQTROTksdlAG5JPq2syw7adlHzLIXGxJQqFI/NHXyvsjJ+JtIheF0FJVlTKRWR1bwysPWMS2mWxndAzRqc2Ui6E/axRyvsj+Vmi/84nrGTF43hZBSVZUHFkdW3DKwOxB6w7Z0dXydKwY4yocjsjGNxEAlSQwDdaNIuGpsMO+pBkM4VB/wqhCXdOsO2M+NhWyZUw5rlZiRKeZcyqK/jd/Yun5cczFtxV+3eDiiNxcFTswB2II61XQ9P1C6wBE1rlQWrKgYsQoLesZMXjeFkFJVlQcWR1bcMrA7EHqHLtY2HFIQnzYu3BJgKN2JJ6rHDrLFgAaOuNlyu4QfVmCISFHluoce9i5kXhefNQ68koAw3Ugj2L/ACT0X/k09b0y14apWcAczJwabOqSofzR1IQOCo5s3WFzpl6ZnNK18iH+XEMUnvRPzTyX9h4NQNS1IDyzeG+WxuXhrt/sQdafiRw8aXNn4QggmicnJY7KANySfXdNrMLkxUotZXkt5sVb7WKOOS+QD7BxcttOx8fTmRMl8pESru71R1Egr9Pl1zL3zKit7XqApZioRRsqBQFA9dfjXLwZZQxkw4Mu6m1OFNqP4Kz6ybPe97OaVrWh5M7s25ZmJ3JPsCXxDhjUsh8Uvp6wg6WvO9HHa/wX1Q+W6hy7WNhxSEJ82LtwSYCjdiSfXb4kQkMNit6wW6NkTUAgvziGBQeX6/cuZ/D6/cuZ/D9evu7u5KwxoKQHvdwDwmnWXymUrAZWn4kA3gRTIQc6P9WoV6hy7WNhxSEJ82LtwSYCjdiSfYOJbGfGnZzRprlY08goGPkqhchfXJyNnhp+LTKqslIUuVkGIUFgCetTxOxeU33hgYrstDjAr4pUlQXf2Bm1aWMpnW9asg5MVnBXcqv5ttsOsOS2tAwvjVEmPHmq5CIXUHwxXrAkbZGRYniq/QAAblmYkBVAJYkAdZvyHYyO1SPPs4UpP+Cqow2ZPW8n4m0iF4XQUlWVMpFZHVvDKw6yeHf/AFdhRxO729+HPtKvLjyO3sHRa5oeWeaJKkssJuweSuQyGXTVvGTZcGSV2xyFcwp9lVG4/EhI9dzLTS2fn6U4wxpuUu9ryyKhVRu15R0YFvYeBiZl8bU6lTDOfLMuaRC/6DgA3rmg9jR9T0w1kdLz87Ax02y3mE3buh1d18Av7E+G5QTAREAblnY0cizu31Zm9bybJCEIoaVrWh4qiKu5ZmJ2AHWoahXVciEfK4jWlOQgXBIdlEgWYexNZlh207KPmWQuNiShUKR+aOvlfW9C099cxERyinMxciKSL/mVQvz9i/C0anJyXYcbV1OUbhUUfkiKPW5aJbTGzT4kcyt4WEVP5sET2JhYlLQ03DKrfJdR4RC3+/YFtvtUnpqm+amppRMw1uO6XsLbPyfly3byfWtW1DF0+D2JWS1yqCSlyoYhQW8kA9ZerZGo2OGHMJc0SKorOFL+JBiSo9i4EmGnakV2Vl8t8tk8fLQb/ah9a0CsfiHJZ1Ls8sDImRJAPzd2A9j4NTHJxrAckb6ggjcMrAgqwJDAgj1n4k0mFUMywhiaflBLpEDxzo+yl29j6JJGwGxNhe+P3QbQcf41QhZ0T7ufhOoce9i5kXhefNQ68koAw3Ugj1fUMuOHix5KncvdxNF5OQo3YgbkgdaRpOFp3zHDt935WKy58N248uO+3sjXO9i6tfy+L38RJrj/APoo6er/AA3q0KpwKm+XqGKUyEiB54STdS7f+QGo6g0MTSnkFw3aCrzzkZ/LMxJlunsm3yuHg2R1Sxe90WiQJ893s8yCvlfVb2SKNayQkGc8QXpUqiL58sxAA8npMt2yPh/GC1esE8IKZcnITmfqEBPDrGkkYQignKUpjiqIq7BVUDYAeyMfEGUmmpabahkozFEEIEhn5sCobwo6hznpmmTctDCg3/HR9gaUPlvVc3hnJomMm75OC6B4mmSjjtd36lVBITrGkkYQignKUpjiqIq7BVUDYAeyNLxKZV0w4Ne7LMbkIi/72JCqPLEDrUqzK40WLrKUJLCalm+5giDk3gE+q31vT46i17GEhhvdVsXoCvBeBO7bjbrGkkYQignKUpjiqIq7BVUDYAeydfy642JV0PYn2lBat6fScwWVST9CwJ8AkZdsZMalkM2ouLjTxy4U+QrlCV9W0XllYAunJBpACSEkr/qXP0f6KwC+ycLUKumt58uw0ZL43wgj8yuR+Yr6vqmk20pMtwOxC9ryqjXY/ZM9vYv7J02qpUwoKSdXQUSiN4/C6MGG4B9Y/knov/Jp7I1aWoxz8hPDZK4YgIl/yLIH9X1fVsLTvmOHc7XzVllz4bry48t9utJ0/F0+D2INTLGmJIXKhQXIXzsB7I/v5/8Al9X+GOxrT1hLkj5ULocfHdz4TmQW/MsqH2RpmIKxxiHK+XCNWgn5Mogmj/T8K9Y0uziYOIrTw8VSBzMkdnPKhG7sSSfV9W1A5mNqxJC42ZREkUyfyEHCDZ/HDq/LtZWHZLwpwYo3F5kqdmBB9jy7MMDGyq9tLZN3CAADy/AE0KL5KqfWdU1a2qpiPrWJ34QtCUkW6lxwoeG5T2LjSe172cTlKUxyZ3ZtgqqBuSesPEjknNrlSTT690+ZRyWYTeieCy9fDkiMXUcLJGUuZXPlKtW5oSgVOIQL618N6TCSCYYwy9PxQkEsD54UTdQ6+xM3LVc3Us6QihhiWWsziIHLHusg80CkL65XVsPD1K70VINp97ot1uX/AA9vj5JP2kBvYePiDKTTUtNtQyUZiiCECQz82BUN4UevaLyysAXTkg0gBJCSV/1Ln6P9FYBfYL1EVyM/KniyarAsEV6lQWIUkDrUqzK40WLrKUJLCalm+5giDk3gE+vQ0/KuYxZA2qKhXfBIp4ZWB5t4JAT2D8J92CZMK9175WWknyA5Hhe0UE+Hr6/E2l2ZJIXYShkLWjkL+SIpZj7A0+MBjwsxWRrk3THVqcfJVC/Ir7ANbfD0sQKBJZAQynqx9f02SvUQmaVdncTSaL4/E7sFG5A6ThSsb8Uys+6+d8gIzASmfsn7AMrfEMssMRVagwxXkw9fT5KGVmh3vlNkwdMpwjI4RODgSdCD7Brq2Hh6ld6KkG0+90W63L/h7fHySftIDdX5dnFw9Txr3pwUu3BJuWOygk+u6FZFvl6Tmsl8vLMgXFKxIKLAsUMvYeNZLwvFzOsqzPJXRl2KspG4I60/Ua6VkXj4XLaMp1FygACMwqAyj1vG4V1S2ozqcaCVmHSKBGmXqwYOW9imVviGWWGIqtQYYryYeq40nte9nE5SlMcmd2bYKqgbknpJI75Whpj5OGC/ngKvZA7daz406y0C/MuEajTRX2PdQTYum3JeJ3H6caT2vezicpSmOTO7NsFVQNyT1f8AV3ZysOyXg/DAijcHQkHYj2LD4YtGtwhMkrbKgyIzfQM4RvVdSlMLkRUO0qxqt5sVP3KHQcl8EjqGzo6EtDJgxIS8HIHOb9YGW2bh9qzp8vlNw3tLiRwoe2u7Dz+EdZUlRsb4htkZ8kZDuHkTRXRuv6pmf2nq8YxbR8ClYabxiQ4JiXbm3Mc+Tkn2NrOnwycjAwsXfMfO+XR8y2R33TZldwhDHrOiLY2RH7WX6EEHYq6kEMpAKkEH1TSuzCuTld7KemUUD18wrIJwJ4FOtI+a7H6ulafL5rhz592tf9F7J0nUMXUIJYFpNXFoKqHClSVJXyAR0tb2kuXdnlBsghnEJ/ZJTsPwoAOtf1Za4GdIMzpqGQqQEbL+c68FCsPsb1TT6wMLWULUyyYJkKr8fBZA/Et7MxrJeF4uZ1lWZ5K6MuxVlI3BHWBIF8zMtPEw9RkPHdRnKol/8+fqWNJ7XvZxOUpTHJndm2CqoG5J6xpDEbUyrpk6qU8C9UPhVUeJ7jnx+72bqGXHDxY8lTuXu4mi8nIUbsQNyQOtJ0TT8C7RJMnriwWTFCwUlSV9QhsiIgDXybsCUhBCRzo/Xzb3+SwefO6Bt4pl0dj3e19fAVS3s7B1bF1WpybrLlDAquQ6yB80oQvhF9PxpPa97OJylKY5M7s2wVVA3JPWVVkXG+Hr4+fRFQbl6kUVEXqHOemaZNy0MKDf8dH2BpQ+W9n6Tren6hdIANVpYt1qwQMVBYhes6ItjZEftZfoQQdirqQQykAqQQfTsqumQxkdwrWqM2VSiA/cwRC3tL4i442NjKndgur1dEhU/mnMAzJX03AqSmZh2piZmo1HjuuyFXSH+ZPrF5/L/rHNtldrubc+HdZuPLiN/aWNZLwvFzOsqzPJXRl2KspG4I60nL+Rzew6h7pwV55TxH+C7vkePBZT6X5hq2rQb/uH5Nj47D/xP5O/+K9qw+GLRrcITJK2yoMiM30DOEb0nTZK9RCZpV2dxNJovj8TuwUbkDoYkKYGmnPQXd8l0QF4Aiw7Qfm6EBvauNZLwvFzOsqzPJXRl2KspG4I6niRxtVlquVjafds6KAVoEYqDKhPJCnpL/JJXIxkR8LHvDLSzwq5cHmgT2wcSOLLA1p75eNjJDwhxwKIZcR44qQvWTlvA5+MoGkKreZPU1cvH0XGk9r3s4nKUpjkzuzbBVUDck9Uj8pLWHSi6lTz+O8PIEFceE3Uv7bX4Z0uLPJw6isMdZUQkH7kdSrD0DGk9r3s4nKUpjkzuzbBVUDck9YXmWVrRlgYubMPwL470f8A+jhX/RDZERAGvk3YEpCCEjnR+k4UrG/FMrPuvnfICMwEpn7J+3Mr4mzL4+nPlTXMrIYUCXSJPNlAQ/t71EVyM/KniyarAsEV6lQWIUkDqXPJ1tsF0fByXPBsaQshPd7XlmA/B+jC3TEfVY3teEPygryrPeadLW9pLl3Z5QbIIZxCf2SU7D8KAD27jWS8LxczrKszyV0ZdirKRuCOtQ+HtMzMq3FU7l74yUd+KAKN2P7bHEjXA0fKzEna3fsICoiCKPNPLEL9QvWkfNdj9XStPl81w58+7Wv+i9xYmrZGHpOnZOVL539XRxpVVJzJ5vJCX/bM6ROnaaT4A8r8zk8fKwX/AGues6ptk5NiOTt9AABsFVQAFUABQAB7j0nW9P1C6QAarSxbrVggYqCxC9ZdREZ2pwx5YcWP0NXnZyinq/LtZWHZLwpwYo3F5kqdmBB/RDZERAGvk3YEpCCEjnR+s2ItjYUc2Pzbrw7pBgSKBlXyylQV/ZcfEGUmmpabahkozFEEIEhn5sCobwo6zec8vU85ZRvjw/yYgi9NqP8Am/gp1fj3srMs9704KEXk9CWOygAe5oZZyn017UbT8l2UI4vAMFfmo4lvDdf1TM/tPWNLs4mDiK08PFUgczJHZzyoRu7EknrGsl4Xi5nWVZnkroy7FWUjcEdRy7YPyoyZJk6ikIrb5pMbwRuCefAFd1P9FjSe172cTlKUxyZ3ZtgqqBuSev31h/xOv31h/wATr99Yf8Tr99Yf8Tq/LtZWHZLwpwYo3F5kqdmBB/S8RdIahqEMWrzJKhwlWUlSVI6zec4ZOGtzqGNBm+i3Z+PPj4LhB1fj3srMs9704KEXk9CWOygAe7NN0m2Zp19VyUx4JqCXkqMpqyq1FVmKdPEXSGoahDFq8ySocJVlJUlSOr8uzi4ep41704KXbgk3LHZQSf57xF0hqGoQxavMkqHCVZSVJUjrGqC7kFK6rVD4rUHysFPmUv5sMs5T6a9qNp+S7KEcXgGCvzUcS3hun2fUv10O7ix/B5nj/L0Rq+T97cOn2fUv10O7ix/B5nj/AC9Eavk/e3DrUex3p4aOkB2IpBeIozt9E93rGMFezl2EoTEpoC2/4URQqj6AAAdY1kvC8XM6yrM8ldGXYqykbgjrL4Sz8XOy3yryQHxbFa7HhRPzXwr9GrmErRyrVSRPhXdboHbrF7Spo2MappDogIZK45c8+e5JdiX6MkimDoeXkYOHNU/MIjkszHyWck9Xy2XS9YJSvYwqvIuj5Dv3uf3hH2JXr99Zn8Tq/HvZWZZ73pwUIvJ6EsdlAA/90v8A/8QAFBEBAAAAAAAAAAAAAAAAAAAAsP/aAAgBAgEBPwBAD//EABQRAQAAAAAAAAAAAAAAAAAAALD/2gAIAQMBAT8AQA//2Q==;strokeWidth=2;imageBorder=default;" vertex="1" parent="1CN227mYzn6WlP0km_AM-32">
          <mxGeometry width="140" height="140" as="geometry" />
        </mxCell>
        <mxCell id="1CN227mYzn6WlP0km_AM-29" value="&lt;font style=&quot;font-size: 14px;&quot;&gt;&lt;b&gt;Predicted Mask&lt;/b&gt;&lt;/font&gt;" style="rounded=0;whiteSpace=wrap;html=1;strokeWidth=2;" vertex="1" parent="1CN227mYzn6WlP0km_AM-32">
          <mxGeometry y="140" width="140" height="35" as="geometry" />
        </mxCell>
        <mxCell id="1CN227mYzn6WlP0km_AM-87" style="edgeStyle=orthogonalEdgeStyle;rounded=0;orthogonalLoop=1;jettySize=auto;html=1;entryX=0;entryY=0.5;entryDx=0;entryDy=0;strokeWidth=2;" edge="1" parent="1" source="1CN227mYzn6WlP0km_AM-35" target="1CN227mYzn6WlP0km_AM-27">
          <mxGeometry relative="1" as="geometry" />
        </mxCell>
        <mxCell id="1CN227mYzn6WlP0km_AM-35" value="Generator based on BCD-UNet" style="shape=image;verticalLabelPosition=top;labelBackgroundColor=default;verticalAlign=bottom;aspect=fixed;imageAspect=0;image=https://raw.githubusercontent.com/rezazad68/LSTM-U-net/master/output_images/bcdunet.png;clipPath=inset(0.99% 0% 0% 11%);imageBorder=default;fontStyle=1;fontSize=15;labelPosition=center;align=center;" vertex="1" parent="1">
          <mxGeometry x="310" y="540" width="553.61" height="310" as="geometry" />
        </mxCell>
        <mxCell id="1CN227mYzn6WlP0km_AM-36" value="" style="rounded=0;whiteSpace=wrap;html=1;fillColor=default;strokeColor=none;" vertex="1" parent="1">
          <mxGeometry x="796.61" y="540" width="63" height="140" as="geometry" />
        </mxCell>
        <mxCell id="1CN227mYzn6WlP0km_AM-3" value="&lt;font style=&quot;font-size: 14px;&quot;&gt;&lt;b&gt;Input Image&lt;/b&gt;&lt;/font&gt;" style="rounded=0;whiteSpace=wrap;html=1;strokeWidth=2;" vertex="1" parent="1">
          <mxGeometry x="110" y="660" width="140" height="30" as="geometry" />
        </mxCell>
        <mxCell id="1CN227mYzn6WlP0km_AM-28" value="" style="shape=image;verticalLabelPosition=bottom;labelBackgroundColor=default;verticalAlign=top;imageAspect=0;image=data:image/jpeg,/9j/4AAQSkZJRgABAQEAYABgAAD/2wBDAAMCAgMCAgMDAwMEAwMEBQgFBQQEBQoHBwYIDAoMDAsKCwsNDhIQDQ4RDgsLEBYQERMUFRUVDA8XGBYUGBIUFRT/2wBDAQMEBAUEBQkFBQkUDQsNFBQUFBQUFBQUFBQUFBQUFBQUFBQUFBQUFBQUFBQUFBQUFBQUFBQUFBQUFBQUFBQUFBT/wAARCAL/A/4DASIAAhEBAxEB/8QAHwAAAQUBAQEBAQEAAAAAAAAAAAECAwQFBgcICQoL/8QAtRAAAgEDAwIEAwUFBAQAAAF9AQIDAAQRBRIhMUEGE1FhByJxFDKBkaEII0KxwRVS0fAkM2JyggkKFhcYGRolJicoKSo0NTY3ODk6Q0RFRkdISUpTVFVWV1hZWmNkZWZnaGlqc3R1dnd4eXqDhIWGh4iJipKTlJWWl5iZmqKjpKWmp6ipqrKztLW2t7i5usLDxMXGx8jJytLT1NXW19jZ2uHi4+Tl5ufo6erx8vP09fb3+Pn6/8QAHwEAAwEBAQEBAQEBAQAAAAAAAAECAwQFBgcICQoL/8QAtREAAgECBAQDBAcFBAQAAQJ3AAECAxEEBSExBhJBUQdhcRMiMoEIFEKRobHBCSMzUvAVYnLRChYkNOEl8RcYGRomJygpKjU2Nzg5OkNERUZHSElKU1RVVldYWVpjZGVmZ2hpanN0dXZ3eHl6goOEhYaHiImKkpOUlZaXmJmaoqOkpaanqKmqsrO0tba3uLm6wsPExcbHyMnK0tPU1dbX2Nna4uPk5ebn6Onq8vP09fb3+Pn6/9oADAMBAAIRAxEAPwD6E8aeMvEln408QW9v4h1WC3g1G4RIo7yVEVRM4C8P6VRh8eeKf+hk1j/wOm/+LpfHUP8AxXniT/sJ3P8A6OesiCCuws6KDx54l+6/iHVf/A6b/wCLqynjbxL/ANDDqv8A4HTf/F1z8cH8dWtn7ujlIN2Pxt4hk/5j+q/+B03/AMXVpPGXiHy/+Q/qf/gdNWEkdWoEqrRA3YPGGv8A/Qc1Nv8At7erSeLNf/6Dmof+Bb1ixweXVpE/d0cpJrp4o1z/AKDOp/8AgW//AMXR/wAJTrv/AEGdQ/8AAt6z0T93U0cHmU7RKNBfFmuf9BfUP/At6nTxTrP/AEF9Q/8AAt6zNgojStIxpgbSeJ9X/j1a+/8AAt6enibV/wDoL33/AIEPWYlP2VHIBp/8JNq//QVvP/Ah6P8AhJtX/wCgref+BD1n+X+7o8z95U8oGr/wkWsf9BW+/wDAl6cviLV/M/5Cl9/4EPWZu/d0+p5QNL/hIdT/AOgrff8AgQ9H/CQ6n/0Fb7/wIes3zKPMp8hZof8ACQ6p5n/IVvv/AAIep08Rap/0Err/AMCHrIjp6UuUDXTxFq3l/wDISuv/AAIepf7e1P8A6CV3/wCBL1lJT6ORGJdbxFqkf/MSuv8AwIej/hItV/6CV1/4EPWe9MjqLFmv/wAJFqX/AEErv/wIen/29qXl/wDH/df+BD1l0VtGMSC7ca9qv8GpXX/gQ9VZPEWqR/8AMUvv/Ah6hd6gejlLgT/8JFq/mf8AIVvv/Ah6s/8ACRap5f8AyE77/wACHrM8v95T/wDV0uUDR/4SHV/+glff+BD0N4i1by/+Qlff+BD1nUyi0QND/hJtV/6Cl9/4EPR/wkWrf9BS+/8AAh6zJP79Pjp8sQNP/hINU/6Cd1/4EPTP+Eg1f/oKX3/gQ9UqZN/q60tHsBdk8UapHJ/yFL7/AMCHp8fiXVJPu6pff+BD1z3/AC0qeCs7RA2n1/V/+gpff+BD08eINXk/5il5/wCBD1meZ5n/AF0p9FogWn8RavH/AMxW+/8AAh6P+Ei1eT/mLX3/AIEPVXZ5lM8uo5QNRde1f/oKX3/gQ9R/8JFqvmf8ha+/8CHrP8yiSosgLs3iTV/+gpff+BD1V/4STWv+gvef+BD1Wk/efJUFM3iav/CTav8A9Be+/wDAh6X/AISTV4/+Ypff+BD1mbKf/wBdKOQZpJ4k1f8A6Cd5/wCBD1KniTU/+glff+BD1j0sdAG1/wAJJqn/AEEr7/wIemf8JJqkn/MUvv8AwIesz/V02lYXIaX/AAkWr/8AQVvv/Ah6j/4SbV/+gref+BD1n+ZTHpByGv8A8JFq/wD0Fb7/AMCHpP8AhJdX/wCgpff+BD1kVJHTsg5DaTxDqn/QUvv/AAIeh/EOqf8AQUvv/Ah6yd7VN/BRYzLi+JNT/wCgnef+BD0v/CQ6p/0FLz/wIesyjfTNTW/4STVP+glff+BD0n/CQ6n/ANBW+/8AAh6zafUmRqJr2qf9BS+/8CHp6eItU/6CV1/4EPWZB+7oefzJKANOTX9Wjk/5CV1t/wCvh6P+Ei1X/oJXX/gQ9Z8D+Z8j0f6v/rpQQaf9vap/0Err/wACHpf7e1b/AKCN1/4EPWcj0+nYDR/t7Uv+gldf+BL0f29qX/QSuv8AwJes/wCSkosQaH9vapH/AMxC6/8AAh6X/hINS/6CN1/4EvWf/wAs6Y/+rosWaH/CRal/0Erv/wACHpP+Ei1X/n/u/wDwIesz/Yp9FgLsniDVI5P+Qjef+BD1C+vat/0Fb7/wIeqr/wCrpn/AKLIDQTXtU/6Cl9/4EPVpNe1Ly/8AkJXX/gQ9ZEaVNHRZEGi/iHUf+gldf+BD0f29qX/QSuv/AAJes6paLIC//b2pf9BK6/7+vTP7e1L/AKCV1/39eqXl0eXTGXf7e1L/AKCV1/4EvTv7e1H/AKCF1/4EPWZUm/y6VhGn/b2of9BK7/7/AD1BJ4h1H+DUbr/wIeqe/wAyiOiwGgmtal/0Err/AMCHqb+29S/5/wC6/wC/r1mx0+r5Rmh/bV//ANBC6/7+vT/7a1D/AJ/7v/v49UPnp0dHKZyNB9av/wDn+uv+/r1WfXNS/wCgjdf9/nqB3qq/7yokWXU17Uv+gldf9/Xp/wDbepf8/wDdf9/nrNqZKYy5/bepf8/91/3+emSa9qX/AD/3X/f16heoZKrlAu/2/qX/AD/3f/f56P7a1L/oJ3X/AH+es7y/3lSUcpRb/tvUP+gldf8AgQ9N/t7Uv+f66/8AAh6q/wCrjpfLo5STQTWtS/5/7r/v69O/tvUv+f8Auv8Av69UEp1HKBd/tvUv+f8Auv8Av69H9t6l/wA/91/39eqVFHKBd/tvUv8An/uv+/r0z+29S/5/7r/v89Vaa9HKQX/7Z1L/AJ/7r/wIemf23qX/AD/3X/f56rJSUcoF3+29S/5/7r/v69L/AG1f/wDQQuv+/r1XqGjlAvf21f8A/P8A3f8A4EPSf23qX/P/AHX/AH9eqFFVygaCa1qX/P8A3X/f16f/AG1ff8/11/39eqUdOo5QLf8AbV//AM/1z/39eo/7b1L/AJ/7r/v69QVDRygXv7Zvv+f+7/7/AL1H/beo/wDP/df9/nqtso2VtaJiWf7b1L/n/uv+/wA9L/bWpf8AQSuv+/r1V2UbKy5TYmfWtQ/6CV1/4EPUD61qn/QSvP8AwIemvTJKXKZDf7e1f/oKX3/gQ9N/t7VvM/5CV9/4EPTHgqPZVezL5x/9vav/ANBS8/8AAh66j4bajf3muTR3F7NOv2d3VZpWfHzoOM1yLp5ddZ8M4/L8RTf9ejf+hpUzXukx+I8C8dL/AMV54k/7CNz/AOjnrMjStrxun/FceIP+wjc/+jnrMSlTOkf5fmR1J9np6J5lTIn7yrAZGlXYEpiR1dgT/YqAJ0SnxpUnl/u6eifwVZA9EqSNKI0p6R0Fknl0U9EooAKlqKpo61AkqPy6kp7pWQDNlGyn0eZUFkVNj/1ZqSo5KDUkjen1FTkqQJo3qffVXzKKDInkojqPfUtUQSpQ9Q+ZT0keT79BAPUEn9+p3T/YqBv9XVljKY6eXRR/BQXyAlTfJ5lVfnjo3/vN9AE9Mo8zzJKe6VqQFMepkpklZAUp08uShKmdPMqFKCyZH8up43jk+69QInmVJ5f9yoAmopnmN/vUb0kqyBj0UN/rKKyOgjko8tKH/eU+3oAXZUclTyVVf95QKAb/AOKjfUD/ALumO70GxZoqt57VP5n7uoJ5A8zy5KKjffHR89ZFE1Kj+ZTKdW8CSwlPqCOpN/mUyB9MpN38NKlABU2793VSrFAD0qF5P3lPjqB3/eUAWkfzKtf6yPdWfG9WoJ6gy5B8cn7ypo6rP+7qTzPeggm3/vKj/goqT935lWA/Z5lQVa/1kdMeOgCDf/c/1lPjpf8AlpUf+roAY/7uhKY6fvKelAE1EdLG9H/TOgA2fvKfHUdS0EBT6ZSO9UAz/lpSSUUuwVIEce+p46jjqTzKCydKN9R/8s6WggfU0dQpTqqBEhXqGpnqGpLI/LqdHpklEdQBLTaKKsBklEdI70sdABJT9lMp9UAUUySjzKkB9FG+iqAdRTaHoJHUv+spm+np/q6ChKV6Sm76skKP46KKgB6VPUCVLVgFFFFABTY/9WadRQAVFsqWitTEhpuypaZQBF5dR+XVrZTNlAEHl103w1i8vxBcf9e7/wDoaVztdN8OP+Q5L/17v/6GlZVPhKieC+Nv+R48Qf8AX/c/+jnrOjStTxpH/wAVx4g/7CNz/wChvVWCOs4nSEcf+xVvy6SBKteXWhAyNKuxpTESp0jqAHxpU8aUkdTp/q6CyREo/wBihKmjTy/4aAGbKNlT7KHSrAg2U9P3dOorUsl8yj/gNQP+7qRK5zTkH/LQ+z+GmU//AIFQZjHqH/lpU1R+XQaQGO9Eb0/5PL31C86R1JoXY6KgR3qeggPMp8b1C9NqjIsb6hSdvM+/RvqB/wB3QHIakb/aI/8AppUD1Sgu/Lq7G/mR1YcgySTy6YlPdKYn+s+aoAe3+rplPp/+roAZT1/1dMo8zy6sBnmeXJRvqN38ynUBCA15P4qrN/rKfJ+8jqB3SOT56g35C7A/7up46y/P8ursF15nyPQRyE8lVXqffUEj/u99SZ8gzz3j/jq1HOkn/XSs64oR/LoN+Uu/PHU8f7us7z3jjqeO6/v0ETLUn7yOquz+Cp0uk/vVVnkfzKAgD/7dQSUfav4H/wBXTHkTy6DYN1TJIlUvPSP/AJ6U+N0k+69QWW2/1lPSoPn/ALtT/wAFBA96lqvU3mVZkM/1dG+l/wCWdV/M8uSoLLlLH/q6ZH/qzR5lVzkB5lSb6j8z95TN9SBPv/dyVBvo3/u6q+d+8oK5C1v/AHlP8yqUlPjkf+OgOQ0YJ0k+R6nf93/1zrNq3Z3f/LJv9XQROBajen1DJ/o/z/ejp6SJQZk8b1PVFH/ebKtR1ZBHJTP46fJUO/8AeUAMk/1gp6UtMoLLFL/00qNZP79T7PLoIFpP+AUz/lpRvFQBJUf/AC0pKKACpaKiqwChf9XRRQBLT46r0sb0EFr+On76qx093oAXzKKI6PLoAT/lnSx0/ZTKgsfTKfRQQMkpI5P3lSUyrAfRTKPMoAPMpnNJs8uloLH0+oamSggKKKKABKsVDU1VAkKienyVHQA2npQlP/1dADqZT6KAG+XTqbJSUAPp1FNqzEKKKK1AZSx1JTaACotlS0UAV3rpvhx/yHJv+vd//Q0rmXrpvhx/yHJv+vd//Q0rGr8BrA8S8YJ/xWmvf9hG5/8AQ3rP8v8Ad1reL0/4rDXP+whc/wDob1mRx/u6mBsECVowJ5lVYIP3lXYF/joAkgSpkShEqdF/ioIBI6nRKEqaOgsEjqRKeiU+NKCBnl094/3dS0VYFR08uj/WVM6Uzy6k2gQeR5lTwJ5dFTx0g5yCSmVM8f8Ay0qF/wDV/cqQDd+7qOCP+Omb6mj/ANXQaivVXyH8z56tU+SNKAII/wDVmpKj/wBXTqCx3+sqB/8AV0b6P9ZHQAzfUfn0slMoKI3ep4J/LqvJUPz+ZVc4chtwXSSfI9JPH/37qkj+Z/2zq1BP5nyPVmPISI71Nu/d0yT93UHmUGZO3+rqrv8AMp7vTN6+XQacoPI9QefSyVUkfy5Kg2hAt+ZVGefzJN//ACzpl1P/AAJVXf8AwPQbxgWt/mSU+Ofy6pPJ5clHn+ZUhyGp9qf+9T9/mR1kfaP9urUE9BHIWt/8NJVbzP3lPSd46COQmjokqGN6f51Ag3j+/Ukb+Z8jvUDpUFAchPd/u6qvO9T+Z5keyqN3WcjSAeZ+8qeqvmeZHT4/9ZWZcoGjBO8cdWoLtLj5HTbJWdG9G793QZyNtP3dMqjBqTR/I/zR1P56SVqY8hajemTx0R3SR0938z54vmoGMnne3jjRKj+3SeXRs8yPZUL27x0FD/t3lyfOkdMk1KL+NKgf/V1l3X7uOsjeEDe89PL+RqzvP/eVSgneOTZ/yzkq7HH/AN+6Ocvk5TR3+ZHTN1VfP8uo55/M+5QRGBowXSSfJVmufgn8uStqCfzI6CJwLUF99n+R/mjq1Gn8af6us96faXzRybf+WdBhyGon+sp6PTE2XEe+KhP3f361OUn/AOWdVZKnf/V1U8z95sqy4QJadGlQVahoAHSip/8AWffpmwUEEdPopf8AlnQAb/LpKY9PjqAF3VHQ9CUAPpd1JUMn+5QBP/00qPfTaj/4BQWWo3o3VBvp9WBOj1JHVep4KCCSh6dTXeggKZT6KgsKPk8ymUVZAUyn0eXQWFR/6yn/APLOm0AJHU6VHGlSUAH8dFFOqiAqSOo6moJHUbP3dNp1WBG6fvKdTqbUAFFFQ0ATUUUVYBTqbTt9AEfl1JGlFPrUxGVHJU8lMoAbUNTUUAV3Sun+HP8AyHJv+vd//Q0rmq6f4f8A/Iam/wCuD/8Aoa1zz+A2PHfGCf8AFYa9/wBf03/ob1nQR/8ALOtTxZ/yOGvf9f03/ob1nW9ZrY1J4E8uSrSUyCN6tR1oQMjSrSJTKelBYbKmjojqSpAej/vKnj/1dQR1YqiB2/zKWmU+gCN/3lRvUklRvQWMkp8b0z/V0ypLJqhept9QvQBA6U9H8upKbQakv+sk+Wn1DT45P3f3qAILiod9TXFVqgqAeZT1/wBXUPNWYEaguYeRTNlXY08yOmPGlWY85R8ioXSrr/u6ZPH+730FwmUYH8uSrT/6velQ7BUyf6vZQWSQTtJH5cn+rqz8lZ/+rk+R6fHP/A9LnI5CedP3dVd7x1O7vHVWed5KOcID/MqCTZ96qv27y5KZPd+Z8tETqhAgk/eSSVDJ+7kp7vTKk6uQen+rp6IlMjSrXl/u6rnInIq7P3lL/wAs6swR0TwLUkEEE/7urX+srPdP3lTQTUF8hOj1YqvHH5lTx0GEwd38uoJJPMp/8FQvQECPf5clQ3U3mfPRJPVV56y5zcI3rQtZ/M+/WWlSQSeXJUFG0ieXTJqILr93sen/AOsqzm5BiPU6PVWdP3fyVBHJ+8qBmj5lH25reTelQb/M+9VW7k/1lBnCBrwX0VxJ/dkq3JXGST+XJ8lb2laitxH5Tv8AvFo5zadInk/1n3KgeBJI60bqDzI/v/vKy/PeOSrCBS/1dx8yVoRyPHHTJ0S4+dahjfy49lQaE07+ZVJ3eOSnvI9VX/1n3KsIQLUH+s31dtbry6z0Spk/eUBM3o5FkjqF/wB3+8qrBJ5cdP8A9ZUGJdtb77P5fz1sJdJef7MlcuieXVqN6s55wNd53jk2UyP/AFlFi/8AaEex/wDWR/8ALSn+Z+82VqZ/CWo0o/1clPj/AHkdMegxHo9SJ/rKq/6v79PSrILdR7/3lJRUAQzvT0f93THoTZQWG+n76ZGlP+Ty6AB3pm+mO9Ef+roAJKWkkojoNR8cnmU/y/3dMSjz6AFqaN6znenpP+8oFyGr5lHmVU8zzKfHQZ8hYp9Mo8ygjkH0zzKPMqB5P3dWBP5lJG9VY56sUAPpI0paKAH0Ub6dQQFFFFABU1R/8tKkqiQp38FV6mqwG+Z+8p1Q0v8Aq6gBKmqGigAqaiirAKKKKAHU+oqdG9agPplD0b6yAKjkp/8Av0rpWoDa6PwD/wAhiT/rhJ/6Glc9srofAP8AyGJP+uEn/oaVjU+Aj7R5D4t/5GzWf+v2b/0N6z460/Fn/I2a1/1/Tf8Aob1npWK2OsnjSrUdQQ1OkdIgkp6UbKeif3KALSJ+7p9MjqxVkCeXS0U+gBI0padRVFkMlMk/1lTPUD1IDP8AfplD0f6yg6A30b6JE/uUJQAfx0Ub/wB5JUclQVEk31H5lM30O/8At0DB3qB5Eof/AFf/AE0qr88clBtCBbX/AFlXY0qjafvK0Y6DCYUU+oXqzAjnSmR/vI6e70yN6DTmDZUDx/vKnf8A2aY/7yP/AKaUFwIaTf5dM+eOnp/31UFj/wDWR1Vukq15fmfJTJH/AHeyT/lnQMxLj/lpuqrv/eVo3dZyRv5lZHfAk2VH5bRyf9M6vQJ/q6upB+7rUn2pSjSrscf7un7U/uUUHLOZD5P8dQTo8lXf4KrXFKQQmQRx/u6gdKtR1BcVmbc4QXXl1a3p5e+s9/79QJdeXJ/0zqDTkNHz/wB589E71VefzKg8/wDd7KOcOQhup/LqNJPM+ep/I+0VHJH5dBuMjSSST/Wf6urUEf8AyzqBX8uSSrX/ACz/AL1BgGx4/v1Ja3bxyVHv8z5HpnlvHJ8lBRqO6SR1Sn/dyb6I7xKjnegx5CdJ/wDbqrfSVBJPVW8n/gqJzN4QGST/ALyn2t15clZ/nfvKfA/7ysOc7Zw907Wx1ZLiPypf+AVDd/u5P+mlc19u8utF9V+0Wccu/wDeL8j1ftTl9kaCfu6n+ST/AK6Vgx6ilXYL7zPn30RrBKBaf93JTP8AWU/z0kjpkcf7ytOcofGj+XR/y04q1C6SR0yTZ5mzZVnOFWrV/MjrOf8A3/3dXoJP3eygz5C1HB5klPeDy6Zav5claHlpJHVmMyTTU+zx76e7/wCxUCfu6kegxLUD/wCr/wCedWv+edZ0b+XJ/wBM6uxv5n3ErU5+QY/+spac9Q+ZQBNvp9VkerUb0AQOlCU/+OjZQAeZ5cdQvPT3/eVA0Dyf9dKAGf6yrFV49/3WSp/LoNSN6ngTzKZ5lTp/q6AEkTy46pSVann8z+OqU/7ylIqBA8/7yp4HqrJG9PtP3dZm04Gik9TQSVVSrUNanNMsVHv8upKikoMxm+oXfy6mdKpTUByD0fzKvQVnQRvWja0BMnokoplWQOT95UlMjqOSgCffQlQR1JHQQTJUtV6sVRIylkqOirAd/wAtKbRTXeoFyj99CVDT0oLLFFQ1NVkhTKfTnoAbRUNFQUTU2Oo6mrSBI6ij+CitABK6PwD/AMhyX/r3f/0NK5h3ro/h5/yHJv8ArhJ/6GlY1PgFA8q8Vf8AI161/wBf03/ob1SgT/lpWh4oT/iqNa/6/Zv/AEN6rRx/u6xWx0j0jq3/AMtKjRKmj/1lUQCR0R1PRQA+NKnjSmR1JQAUUUUAFFI9Qfx0AS1E70O9MkoLGP8Au46gSf8AeU//AKZ1V8zy5KDeJo0x0oSn+X+7oJIqiffU+z93Ubx1BUBiUx6j8zy5KH/1dZGwx38uoPM8ymP/ALVMh/1lB0GhAlXk/d1HaRpJ5dTyQVucM5j0/eUx0oT93Jsp9Mw5Cq6eZUMm+P56u+X5lMdPM+SqNSlj/bo8x45KmeB/LqD/AJaVJrAN/mVC71M+f4aZJ/t0Fgk9PePzPnrPkk8uSrVjP5kdQachRu46hjj/AHlal3H5nzbKqJs8ygOcnggrRjh/d7KggSrSI9Wcsiq8Hl1VetSdPMrPn3xyVAcxHUL/ALypKj/1dBZHsqF0q1HQ0H7usizEnj/jqk6fvK1Lr93HWXv/AHmyoPQpD4/9Z81Pkj/d70pYP9Xs/wCWlJv8v5HoJmTwPQ7+ZUEEn96j7V+8qCBkknlySU+CfzI//ZKqyOnmUzen8FBcC7vqR5/LjrO+0f7dMjvk+49Z8xfKWp50++j1GmovH/1zrPu5/s8lVZp0k+ZKJzNIQNqS6ikjrPvnrOSTzJPkqdJ/Mj+esec25OUgg3xyVdg/eSffqrJJ5dSJP+7rCczTmLT/AOs/6aVVu55beOShLv8AebN1R337y32J/q6wnMIQMWfXHjog8WyxyVlazavb+Zsrnp7p7eSvIq1pU5HoQpRker6P4qS4k+d66u0u47iOvC9K1X95/wBNK9M8P6r9st49jfvK9HCYvm+M4qtLlOvjfy/n3U+eb93u31lx3yRx/O9M+3JJJXp+2OLkNHf/AN+6tQP+8rO8/wAyP5KfA9aQmE4G8lXkesuB/wDgVWt1dUDzpmon7yk/3Khg3+XU8b1ZzCR/6upI5P46r0vmfwUAXt/mR1HUO/y6m8xJI6OcXILu/hp/mVA/7uT5KY8/8FAchdSenu/7us9J/wB5SfaKOcOQuUnmVHG/7v79Sf6ygjkJv9ZTP9ZTPMqN3o5w5RnmeZJJT43qFf8AWU+OjnNCST/WVG70/wD1lQ/6ugqAVHseOpE/dx0PUFkyVOn7umR/6upkT/bqzGY+iimb61JGPv8AuUx4Kfv/AHlLQBHAlXYP3dQU+OgymWJKI6KI6sgfTJKfQ6UEEEdTpTI6m/1dABspKKKAF30lFFUSN2UbKdU1BRX2U9KNlP8ALoAdRRRVkjqbRRQBDS7KSpqgob5dSU2irJCm+ZR/q6joAa9dR8OP+Q5L/wBe7/8AoaVy9dV8Ov8AkOTf9cJP/Q0rOp8JZ5f4oT/irNa/6/Zv/Q6rQJWh4mT/AIqjVv8Ar7m/9DqnHUI1JamqJKlqiCWOimU+oAfG9WKr1J5n/furAelLTKSSgAd6Z89J/HRvoAHqF6n/APZKgd6XOXAqz/u5NlR+RT/+Wnz1b2VJ0EEe+OOp/P8AMj2VH5f7yjZ5dBBJTai/1dMd6DXkCTZUPNI8/mUO9ZFlV/3lECfvKJ/3lMSTy5KDoNqD939yp0eqtrP+7p1anLOBYkqD7RQ7035Ksgm+f79R+Y8clEdMegXIWo/3lQTw1DHP5clTb/MjoGQ7P7lQPJ/eqeoHf95SmaxIJ4PMjqGD/R5Ksx0x0/d1JpGZJJP5kdQJ/rKZ5nlybKem+OSgvlNGCOrX8FUYJ/8AnpU/+r+eq5zimPdP7tVZ08yP56tJJ5kdMepCJnSQPH9ymbPMq1Pujql9r/eVkaQH/wDHvT0emPIkkdQP/o/z0FEOqweZHvSuXnk8uT/pnXQ3V95cn3qxLpEuPnT/AFn9yoPQpE6P5kdEkfmVVR38vZV2Df8Af+/UEzmVvnqOdHkq6+z+GqTv/rKkIGd9q+zySb6tWs6SVn3UH2jzHT+9UEF39jj+eufnOr3eU1LuRZJNm/bVJ4H8zf5sdQXWopJH9+sGfXHjk2b/AN3WE6vKEIHQv/q/9ZurFurp47jej1Nb6kt5H/00rB1h3j/i/wC2dctXEG8aRvWM7yVo/JH9965HQ9VaOT79Xdc1F/L3pWMMR7pp7I6GSeLy6Y91bRx/8s64Ox8QP5mx3qDUdcljkrOeIOmGHOkvtc+zySVJa6+kn32rjZ9SS8j/AOmlVYLp7eSvPliDp9kd/PIl5HXG6raeXJ/10q9p18/mffq1qMH2j5krKc/aE/wznbXzI5Pkr0Pwrv8A9yua03R/Mkj+Su80q1Szj+StcPAwxEy1qU7+X8lYsF88dx9+tS+fzP4qyIIP9MrtlP3jlidjYyeZHG9Wv7Sij4esixf+7/DVLUpP3kldvteUwnA7K1vk8z79bUH7z599ec6dfS+Z5ddzps/+jx767sPW5jiqw5Tbgfy6e9Z3nfu6ngn8yvQ5zi5C7HTJ/wDWURyeXT9iSUEEO+n+f/BRJH5dVXeoNy15/wDfqC7f+5VXz/71QyXX8FBXIWkkerqfvPv1Ba7Li33pVrZ5fzVZE5D1/wBqp9/mVVj/ANWaPMoMC09QPvqTzPMj/wCmlQP+8oIgHzyVJG/7z56SP/V1J/rKCw+WmOlH8dTJt8urAh/jo/1dDpUfmJ5fz0Fk6PV1HrPgf95VpHoInAtf8s6jdKY8n7umI9amQyb7lJG9Muv9W9MR/wC5WRZaR/3lWo0qrHVlf9XWpnMsU+mU9KswCiiiggPL/eU6m1HHP5lAElOptP8A9XQAJUtFQ1QBU1NSOnUEjtn7um06m0AFFFOoAbRRRQUFFQ1JHQA6imyU6rJCmU+oaChtdV8OP+QzN/1wf/0JK5eur+Hv/IZk/wCuEn/oaVnU+EZ5l4k/5GjVv+v6b/0OqkdX/FH/ACNGq/8AX1N/6HVCOszqJsf7dPR6Zs8upasy5ByU9f8AWVBH/rKnoCYSU9KZHU8dAC0U5I0oeggg2UyrFI8dAEHmUz+OptlM8uguAyT+/RH/AL9Pb/WUyoDnD/V0PT5KI6DUgeOqrx/vK0XSqs6fvKCoTKT/ALuqj7/MrRnSqU8f+xWUztgM/wBZQkdQRyfvNlXUogaFqB0j+SrNU0/d1ajdJI61OWZLUNLsp8dWYkdLseSn/JJT7egCk8f+sojk/d1engqin7v5KgrmJ/kkjqB9lEcn8FMkqwJ0T93UDp5dTo/7uo3egcDLu/3fz0QT+ZRJsk+R6q+W8clQdhrx1Oj/ALv56pWj/u6tJ+7+9Qc0yeiOT955dQef5clHl+Z9ygw5B8/7uOsi8/1lXZ7p46z5JPtFZTOqlAj85qh+3VNGn7vZ92qs6eXJUG5n337z5/8AlnHWdBd/vNj1qTv+7k/551kOn7yomdMTX2eZ89T/AOrj21nWl1VqeRJI6DGZVnn8v56gn1GLy9++s/Vb7y45PnrmrrVfLj+/XDOqbwgdD9uTy/v/AOsrntVvn/ges671j93s31nvqPmeZXnzq8x1QgRz65cW8mxqz59V/jdqj1WdLiOR/uyR1xs+qv5ex686rOR20oHc2uufZ/46uz6rFeRx15YmoyySSLvrUg1KWOP79Y+1N/ZHcwT+XJ9+tB5/tFv5T1xular9o+R66KCdPLpQmHIZ13bvb3G+i7T7ZH8n+sq7fOkkdZ7z/Z5PkqJzOmBR+e3krUtfKuI/+mlQ+ZFcSf8ATSpo4Ej+4+6sBs0bWDy5K27TZJ8m+sS0n/d7Ku28/wDq2reByzOlsY0j/grbjn8uP56wbGeKtCS6Ty69CEjhnEknn8yqP/LTiod7xyU+P/yHUc4G9p10vl/9NKnSBLysSG6S3+StfRpHkk3vW8J8xzTNGx037PJ89baT+X/F+7qj5nlx1nz3bxyV28/szk+I6iO6/ebKtQP+8rkLXUfMk2V0ME/+r311UqpE4G9DJ/A9T+Z/crISf93V2G7/AHdd3Ocs4E8kj1R3/wB9KnknSP56pT3X9ys+cKYy4qpA/mSSJUjvUcH7uTdUc53G3Y/u6tb/ADPuVSjdJI6ej/vKvnOGZdjpj/u/noR/Mo/5abK05zAeknmR03/lpSbPLojegC0iUU+B/wB3THSrJBHp9QpU0cn7ugAqldQfxpV2mSUFQKsaVNA3+xUL/u46fb0Gky1vo30zzKZVmYTv+7p8EdM/55pUyVqEySOpkpU/1dIlByzJ/wDV0I9R1PGlBBJTqKKCArPuv9HuN3/PStCq19B5kf8A00WrAfG9TpVW1f8Ad1OlAFiioamqgCiiigkKKbJTqCh27/YooptABUNSSVHQBNRRTY6AHU2OpKbVkjf+ulR1NTY6Ch1dL8Pf+QzJ/wBcJP8A0NK5yuj+H3/Icm/64P8A+hpWdT4RnnXiWP8A4qTVW/6e5v8A0OqSVoeJP+Rj1b/r6m/9DqlHWZ1EiU90piVM9AEP+rqZP3lMp8aUGQeW9SR/6un7Kf5aVZA2k/1lGyk/5Z0AJRUVSeZQAtJ5dRu9M86gsJP3lM2eXT/+WlPqAId9PR6PLo8usjUe/wC8jqvUtM2fvKColWaqMn7yr1xvqrsFBvEg8j/v5U8cfmVP5dPrUvnGeXT45PLqP/V1JHIlBmTI9R1DP/sNTN71ZHIWakR/Lqtj/bp9AchdeTzI9lUp0/efJRvqN3oI5Bjp5dP/ANZHR/rPuUvl1RZH/q/v1BPJUkmyTzE3fvKzn3eZsqTeEAdKYk6R/eq3VS42VBvAtQf36vVm2Nx5nyPV7/V0GEwdEqaCN/LrPvrvy4961UsdYljk2P8ANWXORylvUU/d1jpP5fyVsX06XFv5sVYM7/vKiZvSLvn+ZHVWeTzI6Zvby6gnn/uVBfIQXclZE8/lyffrRup/L+Suavp/Lk31hOZ1UoFr+0vLkqeTVU8v79c1PIn391Z19qX7uTY9cs63KbeyNHXNSST+OuQu75/M2UXV99o/jrFnuvLk2V5dWtzHVSgXZ7r+5WdPqv2eSSmSXSSfx1l6lOnl799Yc5vyEGteI/3exX21yj6l+8kequsakn2jbWXHfNJ5nzVyzO2kbyX3lyb/ALtan9opHp/zvHXPb/3fzv8Au6gtH/0iT/nnXKbna6HdP5cb/wDPOusg1LzI/wDppHXnljdeXH8ldRpV2skfz0ETOlS6+0R/eojRLj/tnWDd332OSN6I9V8uSN0k/wBZRzhA1J3+zyU+O7/d1gz332iTfvp8F88kkdBZ18P+r8xHq0l2nl1iW87Rx1PBO3mfeq4mHIdDaTv5nyNWpBO1c9Bdp5kda8F0kn8VaQmcU4GxHukjq7a7JI9lZFpd/vKgfVXs5Nif6utoz5TDkNG7jeOStrS5/wB3WLBfJcR73p9jdJ5nyP8Au6cJ+8ROB23n/wCj1nXf7ysufVXjk2J/q6u2M/2iT5pK7ef2hy8ha06D95veuhtJPMj2Sf6yOsWORbetCxn8zy9lddIzmam/y6ngn/v/AOsqq/7yOqs87W8nyV28/Kc3xGjdXT+XWPPdPHJ8lWoJ0vI9tQzwf8tKwlMuECCfVf4K0dKn8z56wbq0/eVdsZ/sfyP/ABVhCcuY3Oh8/wAv50qRNRST77Vg3195f7vfXOz6q8cnyPVzxHKYey5j02OdJPnqf/WVw2j+IG/d766uC6STy3St6WI9oYTpezL0knmUWrpJJseo96SURv5cldsJmBsR1G9VYHq15nmR1vznOQ0+OTy6fspklQWT7PMqD/lpRHJ5dD/36sCrP/rKIN9M/jq0kf8At0GoUUPUfzyf9c6sgnjT/lpU8f8AfqNf9XUkdBEySpY6YlPrUwJacn7umR1PQQCUb6KKAHU1v9XRUc/+rqyCGD938lWqox7/ADKtx1BZMlS02P8A1Zp1WQFFFQ0AL/rKfHUdFUBNRUW+jfQAlFNp6UAS07ZUcdSVZIU2myU6goKKhooAmrpfh9/yHJv+uD/+hpXKV1Pw8/5Dkv8A17v/AOhpWdT4Rnn/AIi/5GTVv+vub/0OqUdaniJP+Kk1T/r7m/8AQ6peX+8rmOoI6sUnl0//AFcdamQzy6PLpafQAU6oqdvqyAem07f+8ptQBF/HTP8AlpU7x1HWRfMMk/eUeXT9lMrUBmz95T9/+zU8f9yjy6AI6Z5lPdKhoHEKHoeo5KyNoDHqD5ZI6JJ/LogdJK1N+UnjSh0p/l1JQRzmdJTPkq1OnmR1nT/u5KDaBa+0UeX5n3Kqp+8+5Vq3oD4R8cH9+pI40p8cn7yl+SgiZH/q/wCCoJKnqCSsucIQGI7+XU0b1Vj/ANZJU8n+rrTnEUr5Ht5N/wDyzp/lpeRxy/8ALSmTz/u9jVBBO8cmys+c3iaLwfu5KznSrqXX7uobtEk+dK1GUf8Aj3kq1Bd+ZHWfPP8AwPUEE/l/ceufnL5PaGjd/vI5ErEefy5P+mlXZ7tPL+/VJ40uKw5w5CdLtv8AtnUDyfvKI4/LpjvWnOXAIJ/L+T/lnUd1+7j3I1Zc909vJ/erI1HxH9jj2b65KtblN/Zcxo310klcvPfP9o2PVWfxHFJJ9+qsl0lx81ef9YO2lDlJp7r95XN6xP5fmbKNV1xLf77Vy994kST5N/8A20riqzN4QHz6r5cn3/3dUp9V8yTfWDqt88nzI9ZcesPJ8kr1xHVCB0lxrKeZ9+sjVdc8yP8Au1kT3Unmbqo3V0n8dXCZtymRqOovJJJvqla6i8cmxGqPVZPMk2J/rKy4J/Lk2VX2SDuYLt7y3+/VWCfy7jYj1nWuo/u6ZdXflyR7/wDVyVzch1Qmeh2k3mW//TSn2upPHJ9+sTRrqKSz+/uko8/y5Pkesy+U6y+ne8jjKfNWd/aL2/yv/rI6q2t95cex2/1dVbqT7RJG6UTgQb3277RJVq0ne3uPn/irBgfy/L+atSCT7RJv/wCWdZF8h1cc9SfbvLrHsXeOSP8A551JqUn2e33UBOBt2l9W1BfeXHvSuA0rWPMkkX73y10mlX3meZ89Z85hOBt2uuSRybHqeTWYpJPnrk33/bJHq1H+8k3fe/go5zHkOlg1Fo/kStvTXeT5/wDlnXNWOz+Ouo0aRP4P9XXVAxqm1HaJJ87vJWxBsjj+SsS8/dx/JUljfP5eyu2E+U86cDanf+5V7SpHjkqrafvPLrXs44vMr0aPvHLM0YP71RzxpJ89Qzz/AGeOqn25riT79dXOYchJGjxyf3atSSJ9n2rUEk6Rx/fqq89Z85qSST+XJ92su+1xLe4rQef/AEf7lcpqNo0km+uKrP8AlOiJqR64l5/FWdPv8ysiC0eOSurS1e4t49/+sri55VC/hK1j/rI67XR538vY9YNjYpHWvBOkfyV6OHhynLM2/P8ALqaCfzP9qsjzPMjqRJ2jj+SvT5zm5DdSfy5KtJPXPQX37z5q0fPrSEzlnA10en7Kz4LurP2ituYz5BXqN3qTfVWeStDSEB/yffoSeoI98km+rWzy6BB/10qRKg/1lTpWwE38FSR1HU8aUGMx6bJP46k2CoI/3clW6CSKOpPMpm/y6krUymTUVB9oqTzKCB9QO/mUO9QUASRpV1Kqwbatf6urAloqJKfHVEDqKb5lMegCN/8AWVIlM/jp1ABRS76N9ACVJHUO+pkerJJKKj8ynUANkqOpqru9QUCU6m06gsK6j4df8hyb/rhJ/wChpXK11fw5/wCQ1N/1wf8A9DSonL3STjPEKf8AFQap/wBfc3/odUPkrT8Rf8jBqn/XxN/6HWf5dSahHU1Qx1NsoAY6UtO/gpn+roIG0VK9RUFhT6ZTo0oIG0n+so2eXHUe+gskf95UHmU//WUySP8Aeb6AiPSpv+WdVl/1lP30ATu9VW/1lP31C70AD1BO9T7KjeOsjcz5/wDWVBA/l1ovVV40jrU6oF2OfzPLqf8A1lUYHq15n7v71BjMZ/q6qzp5lXXjqrPQECqlW6gR/wB589Xdn8VBtOQxKSSTy6fUM9ZEQIZLuo438ySmPH+8ogqDq5Cfy/Lk/wCulJJSyf36o3U7+Z9+gw5CS+j+0R/u6zkn+zyfPQk7W8m9KffR+Z86UHTAtR/vPuvTJP3dUrW6eOTa9WriTzI/kejnJnAoz7Pv1iz332fzHrXuk/dyVyGub7eOSuKrPlOqiVb7xV9nk2b6z08ceXJXJ6rfeXJWDPff882r56eLlTketHDxke16V4qt9Qj2b/3klaM8ieX8leKaHqMv2iPZXqFjqL3Ece+vQw+I9ocdWl7MNSk/dyV554mvvLkrudSk8uvPPF0b+XvqMRP3TaicPqOuPbyfI9amj+I/tkezdXE6xv8AMpmnXDRyf3a8Tn949Tk903vE115nmVy88j3Edb2qbpLfe1Ynnp9nkT/lpV84QgQp5slvWDfT+XJJ89b326L7PiuN1WfzJN/7xaj4i+f2ZabUfs8ce6s66uvtFQRzpcfuv+Wm35KZHH/rNlbw90x5+YLuTzPn/wCelYk+6OSN6vPOkcmx6xNRvkkk8utoQInM6Wx/ufeqC+d/MqDSr7y44971JfXSXEe9f9ZUcnvFxmXdO1l4/LT7takGovJ9965DzEj8v/ppVqDUV+z0TgXGZ20F55kdXbF/M/irirTUvMk2VvaNqHlybP8AyJXLOB1QmdJAnlyR/wDPOSt5LT7P86f6usGO6SSSOu2g8qSzjrmkPmI7HZ5dVfEDvJb7KvWi+XJUeowJJH/e/wDZaoznMxdDg/efPXVwTpbx/frLsYUt/v0PdeXcVjIg3oJ4riTZ/wAtKnj2RyVzsF3+7kepLXVXkk3v/wAs6wM+Q6hf9ZW1p199n7/6yuXg1HzI43rUg2XEef8AviurnInA7KDWUvI9qVetUrk9O/d/x12Vi/mR11UveOKcDYsZ/wB5W3HOkfzpXIQT+XJWpBfeX/1zr1KU/ZnDOBtPP5n36xb66+z3G9P9XUz3aeXWXqM/mR/LRVqkQgXk1LzPk31NJP8A3K5u03ySVrs6W8e+uWFbmNuQ0be+Ty/Kaqt86RyfJWI+qpJJ8lPS68z/AGqJ1R+yNSB08zlP3laP2v8Ad7ErB8z95nfVqB/3nyUoBOBtwXfl0+Cd5JKy/P8A79P8+uiFUw5De+1eXHUkd8lY8DvJRdT+X9ytvakchveen30ofXFt5Nm+uXtdQbzNm+malIn8dR9YD2R39jfJeR70rU8+vOfD+pfY5Pv13NrOkke9K7sPW9oYVYcpo/NRsqBHq0n7yvTicwypkf8Ad1VnTy5KkjketAJkTzKnRKgjqf8A5Z1ZnMfVqGqSJV2H/V1ZhMJP3dSRv5kdRvUkH+s2UGAP/rKen7yh/wB3UkdagQMjR1Hvq8iVHsjoIIdnmSUbBVr7OlRulWBDsFWo38yOqlSI9QBZoooqyCaonpKKoBUpKVP9XSUANp+yl/5aVJQBXp1TVFsqwDfT/MqOm1AD3emPTG/1lPqSw2U/ZJSVJ/q6oCOur+H3/Icm/wCuD/8AoaVzVdL8Pv8AkOTf9cH/APQ0rOoScb4g/wCRg1L/AK+5f/Q6zN37ytPxB/yMGpf9fcv/AKHVDZ5lI1COrMdQpU0dZAK/7uoasun7uqrpWpAtFI9NoAiqTzKPLpaCxPMqPZUtJ5dAEDvR5nmU90o/1dADKKZvp/mUGof7FM2U+mUCgNpslT1H8lZDKTyfvKZOlWnSmSJ5kdamsCrHJHH/AB1aR6qyRtHJU0FZGkyffTHSjfQ/+r+StTEjeD+Op4HqCCR6n/1cnyUFD5Kgf/WVP5lQzSf7FZTHAozf6yoXfy6J5PLjqPzPMjrE7Cff+7qCeDzP4KkRPMk31dSNJI9j1cDGZj/Z6kngP2ers8Hl0J/t0BCZzzwfvNyVaT/V76uzwfwVST935lRyHVz8xA/7z76Vg65apJHJW9PJ5dZGpSeZH5dctX4S4TPIfE2neXJJ/wA86466gaP5Er1DxHGnlyb6881VK+QxEPePosPP3R+hv+8jevQ7G68uONK8o066ezuK7a11X7Rb/wDXOrw9UKsOY2r7UvMrm9cmS4jou5/9usG6unt5P+mdbzqmcIHJ6/YpHJJ89ZFpIsdxGjP/AKytHXL5pJNn3o5KwZ428z/ppXMd0DpLu6i8v5/+WlcjrP8Ao8kmxqgvtVlt/kZqyLvVXuI5P46UAZaS+8uOSsS+/eeYv/PSj7R5kf7x6gndLiOurkOcz/nt5N9PjvvL8v8A1a0P/tVS1KNPL3rW/JzE/wAMNRfzPnrEn/0j+P8AeUx7p/uP/rKggkljkk311QhynJOfMT2k/l+Zvfb/AH6J75vL+R/3lUXn8ySPZ5f+3U86fu/v/vKvkMZzGPfeZ/s1aS+/d1jpG0lxQknlybPveXVzgYQqyO20p3uI/k/5aVtWKfZ5P/Q65fR7v7P5f+r/AOulakGq/aJPKry5w949ijV909A0adJP/jldlps728eyvP8Aw/P+8+d469AgTzI49lefOB285qWL/vJHenz7JJPkrIsb5vM8t/8AgdTb/wB5/wBM6xINR4H+z70euX1Kd/tEn/PSt6PUUjjrF1Wf95uoAfHP5lvGr0eZ5fl7P9XWdJdf+O/frRgge4jrnNjUtL5/LjT/AJZ10Njd/wChxpvrB+y/Z7eP/npV6xj8yOPZQc0zq9Ovk/8AHq7XSp/MjrzOy/1ldxp0/l29dtE5KsTbk2SSb99M+1NHHtqj9rT95TGuvL+TdXX7Ux5C6+o/vKkSdJI65152q1ayeXHv3f6usOcXIbHnpbx76q3WspJHIm//AFlcvdaw8cm3/aqO7nTzN++s+flNIUjUR3rR+1Jb/drno75PLj+eiO+k8z5/9XWPOXyHV2t8lxH/AHa0YJ/Lj+SudtJ/9W9aP2p/3dbwmYzga9vvkk/vUsl19nk2PVGDUFt46gnvkvJPv/6ur5zPkN5NV8uOj7d9oj+Z65dL57e427qtSSNHJVwqhyG9Hs8yi+3yVkQXX7z79akF1FeSbN/7yjn5iRkDvHJXceHLpvs61g2ujeZ89dLYwJZxxrXo4SMuY56sjXg/vVqL5fl1lwSfu6tRyeX9z/V170Dy5kk1RpvqT/WVMkFbkhb1PTEq3VwOfnET93U2+o/kqTZQZEn+sp8f7v7lM3+XT0erMh/+spaj8z95S1qA+npUf7vy6koIHU16KZQAyk8ulp/mUAPX/V06oqfvqwCij/WU6gBtOpUqWqIIk/1lS1H/AMtKkoAhqaoamoAb5dQ7KsU2SpAh2U6l2VLQWNSOpKP4KKogbXS/D7/kOTf9cH/9DSucro/h9/yHJv8Arg//AKGlZy+EZx3iJfM8Qap/18Tf+h1nx1peIP8AkYNU/wCviX/0OqNYmo5Ep8dFFBBYqN46WitQK7pUVSvUPyUFj9lJ8lKlD0EDaKKKCxPkqN6lqLfQAzy6JKI99FBqMop9MegAptN8ymf6yT79BXKMk/d0ynP/AKymf6yOguBC7+ZJVqCOquwVaR6yLB0oSpt6SUySPy61IIZKfRHIknyVNHGkdVyAMjemTyU+ePy/nqlJJ5lYTHAq3X7yo0TzJNj1P9leSSmbHjqDs5zQjj/d0z/VyUyC7/26e7/xUHNMP9ZHUOySp6ru9AQIZH/d/wDTSqs6fu91Wp5PLjqq8/8ABUGhl3clYl9PW9dfvI6wdS/1dcVU6YHDa/vk+5XG6ja16BqSJ+8+SuT1WNI45Pkr5rEQPeozONktPLkkqf8Atb7HH9+i7eKT+PbVGS0+2fcrhO8ZP4n/AHlMn1F7yOqt9o7x/wAG6oPnt4605yoQMvWH8usV538vfvrQ1/8AefOj/vKwXf8Ag2UcpZVvp/M8zelYrxvHJJW87p/y0rEuo/3lbQM5mXJ5sclT/wC3T/8Alp89WK2MYwK/kJcR7ErL1FGt/wDrnWvG729x+9pmq/vP49vmVrAucDirpP3m6p/L8uTelP1Wxe3/AIP/ALGqvn/6P9yvQhPmPLn7oTwRSSb0/wBZVW7dJP4/3kdRpO1xJs37apeR9nk3/wDLStIRMJyJ4HTy971GkfmfvE/5aUPAlx8m+r1ra/u40T/Vx1czGA+xSWul0a0/eb9lVdOtU8v566jTbVI5I9ledVPRw8DX0O1/eeZXZQX0tvHsRNsn8D1ykd2ln/10jrQ07Vftknz/AOsrz2eub2+W4uJJZX/eSfPV7/j4j37P9+o7GPzI9/8AyzqR3+z/AO1XOZEF9Ikfl/8APSs66nTzPv1DfSf6RvT+KqM7+XHueonA1gaOzzJI66XRv3ce5642xvvMkrqEvkt7fYlY8oTND7d5laljfRR2+yubT95/1zp/ntJJsjrMDudO2faN/wDz0roZ7v7Pb7K43Rrz7P5da8909x/HXVA5eTmNuC+pkd0klxsrLefy49++qtrdeXJHuf8A3605y+Q6/wAtJJNlZX9pJHJJFU8d3FJHvRq5rVZ/LvN6UpmPIXr54o/Md/8AlpWPHdP+8/ijqe+vkvLeqUe+OP7lcU5m0C7pzvcSbP8AlnW2likf3qxNDk8u431vT3dECJmjBsjj/wBZT/tX/PSsT7d+7o+1+Z89ac5HIbF1dfwUQT/u5KwftX7z5Hq0jv5dHOHIXZ7v959/dJWv5/mRx1ykd15clalpqXmSbXq4TCcDbgTzJJNj1NpqS/bKZayfu/v1r2Kfu63gckzpbHUUj+T71bcE/wDq3rkIEfzK3oH/AHe2vXw8zz5wOltZ/wC/U3nfvKy7R/3e+rW793Xrwmcs4F6O78uT/pnWhA9YsH+r31dgd4/kreEzCcDUjqeOqKPV6P8A1dbnLMPMerK/6uqyf6z79WV/1dXAxmLs8yj/AFdSUn+sqzMZ/rKkqNP3dPSOgCSn0yitSAqPzKWigApI6WkjoLJ6P46ZT6sgdRRRQBNRTfMpj1RAb6N9Mp6VJYv/AC0qSoamqiAopvmU6pAKKKKoAp1NpvmUASb66bwD/wAhh/8ArhJ/6GlczXT+AP8AkMSf9ex/9CWlU+EZxviL/kOap/13m/8AQ6pJV3Xv+Q5qn/X3L/6HWelcxqPp9MooAN9G+mP/AKyloIEeoN9SSf3KjoLJPMoR6jehK1DkJaR3pai30AS1Xp7f6umO9AB/q6KY9Rx0GnIT0+mR0+gzIZoP3dVauu9UX/1lBvAXZUb76tR/6s0x4/3dBfOQf6z56Wo/+Pen/wDLP/WVkWM3+XU6XXmVVf8AeVH/AKuStTTlJ3/1m+p0uqg/1kdM/wCWlBmWnn8z5KqvH+8o/wCmlG6lMcR8H+3Q6eZTN1PST+B6zCRV8jy5PnqeSDy6fPH/AB0RyeZHsagz5wSTzI6gk/d1PsSoH/1fz1AELv8Au6y7p/Lq7d/u6y7p/wB3JWE5m9Mqz3VZGpTp5dZ2q6q8cmysj+1ZJPkd68itiD0adIo3eopbySRvWDrE6XkcnlvVXxV5n2iTZXHT6q9nJ9+vIq1T16cBL52jkZH+WmWM7R097tLz7/8ArKIESOP/AKZ1553Fq6uo7i3+R/3lc28n+s3tWhfR+XHvT/V1kP8AxVRcJmXqL+ZJt/5Z1iT+XHJWxqu2P5N/7ysGf959x63gbEd1Gnl/PVKONJJPnSnzv+7+/wDdqGC6/efPVxImPnsUkjk2f6yOqUcbRyf9M6u+f5f/AAOs6T95JJ5VaQM5Elw6SfwfvKy3f+DfWp8n33SqLwJ+8qiOQq3ECXkciSf6ys+fTvLs/mq60/7zf/yzovp0kjjTfXRAicInKXcaW8m+oNn2iSSV3q7fIn2iREpbG0r0Psnk/aIFtPtElalpa+Z/BU0Fp+82f+RK3rGxT93XLOqdEKQzTrXzJI/+mldXaaV5f36h0a1+xyfMlan25I/ufNXLVmddKBnX1q/mfJ81WtDtGt5Oage6WS4rbsY2kj2bP9yuXnOo6GOTy4/k/wBXTPP8z5KqwXf2e32S/wCsql9ue3k2f89KkCO+gfy9/wDtVSuv3nl1twbrjzP3dY89p5ckiOlZzAIF/jrYgk/d/wB6oLWDzI/kp8cbxyeVS5QnM27WNJP+2laMdi8km5ErEsd/9793XX6an7uOseQOcP8AVx1NHffZ/Lo1FPLjj/56VhTySx3FEvdA3bu7/dx/NWDrmovbyf8AXStGNPtEcaVS1WBPuP8ANWXvAQaHrlx9ojT/AJZyV1Ef+kR73rntGRLeSP8A56V1HyRx/PVgY91B5cnyUR/6vfVXUn8uT5HouJ/Lt40+7XPMDRtdVit5NiVqPdJcRyVxUccv2iN9n7uuhhfy7fY/+sjo5gmXYJ/Mqd5PLjkrESb7HcSUPqXmfx0TDkLUk7x/NV7+2E+z1nRvFJH9/wDeVkXdwn7xN/8Aq6gOQ147p7zy3+5XS6XB/HLXNaPOkke+ulsZ/M+//q46vnM5wN5J0jk+StrRr7zJK5H7dFJJsR62tGkeP566oTOKcDsvtaW8dEGuReZXPPvuP4qm02xeT/ar0YzOWcD0DTrtJI/kq6j1i6b/AKPHGtbUH7yTdXr0pnFM0YP9XU8FVY6m8xI/v12wnynLM0Y/3fyPV1JPL+Ssv7Ukkf36IJ/MrTnOXkNSSTzKngeqUH7yrUddUDOcC7HUlV46lrY5Qoo5pI6AJ6ZRT6CBlElPplagR+ZTPnkp/l0z/lpQWTx0/fTKI6sgloptFADqKbRVAH8FPSkpUoAfHQ8dEdSb6CCP/gFEdSJRUgGyjZRvoqiQptO2UVYBXS+Bf+QxJ/1wf/0Na5qul8C/8hiT/rg//oa1E/gA4/Xv+Q5qn/X3L/6HVL+CrviL/kOap/13m/8AQ6z9/wC7rlOgfTHo31A9AEtPqvRvoNSR3o2eZUdDvQAbKKKPk+/QZBUtRUUAMkpj0+SoJKDeEB8n+rpkdCPTq1GN/wBXUm/zKj8ymf6ygB7v+8qOpP8AapmygBKXfR/q6SgBr0yn0zzKCoFSf/WbqN9E1Unn8uSg6oQLsb+XJUiP5lUUfzJNlWoI/wB5QROBbjpHg8v56ZseOp450k+/QYFV0qB5Gjq7P+7+5Wfdf36ymaQH/a/3eyp438yOs6T95HRaz/vNj1Bc4F2f93Jvok/eR0O6SR1C7+XQYEE8f7usu7/1eytSasu7k8uuWZvA5DXNN+0eY6Vy8lo1vJXeai6eXXFX0n7yRN9eDiIe8epRkZ2q6al5b/8ATSvM/EGjPbyV6g8jxxyfP/rK5PXHjk+/XDOB6NKfKec2qPbySVae+ljjrRuoEjj3pWDPOkfyPXFyHoQLT6qkkfz1lvd/vPko86Ksuefy5JErTkNIFXWZ/wB5XPeY/pW1dbJKwZ99vJJ8lbQLGX13+7kT/lpWXDffZ/4/3kdP1GT93v8A3dZHkN9nk+euqEOY5atU0ZL7/lrv/wC2dP0668ySseCB45Pn8ytW1g+z/wAH+srTk5Q5+Y6Hy4pI/krLuJE8zy6I7p45JP8AnnVWTZH9z/lpWfIXzFWeT95IlZd1I/360Z4HjkrOn3eZ89bwOWYQWkV55j/+Q6u2tr5f3IpP79Zcf7uT5/Mre013jk+ZKJzClCJJBaeXJW9pUb+ZsdP3dEFqknlv+78v/pnWvpsa+X89cXtTt5C7PIkcdYM7vJcRp92P/pnWxPsk8xKg+wvH/B96oGVYLFLeSOV3rpbHZ+7dPM/d1lJYy3EeytFIJbf/AK50pgT6xB5n/XOsiPfJJWv9uSS3/wCA0yC0T+D5qiMxcpvaO/2y32eX+8qC60f/AEjc1GnQfY7iN/8AlnWu8iSXHlJ/y0+5UTgRzmLptr/pEkVPng8uStH7J9n1COVKj1GFvtEdZmZb0qxS4j31u2MH2eOOsvSkfzK1Lu7+z2//AE0qzYnvtkkkaVnX1okce/8A8iVVjunkk30alfeXbyVkAxNVSOP7/wDq6yNR1nzJPnrHnkbzN/3qZawS3H3mpchqbdrO/meb/wA861/7WPlyb6yLdH8v+95lTTxp5cf/AD0jqSBZ9S/ebKRNVikj2PWRIjySb5X2yVB5f7zYnzeXS5TY7KxvopPuVanvkrlNO3x/x1qRv5kmz71Zkcpop/pEny0+eBI/M2/6yoJLR47fej1Sk1jzI9lRyAVZJ38z53o8/wAyTZUE8Ekkn7rzKyHupY5NlBZ2Wh33+kbP+Wf3K2pL5/uRVyOgJL9o3vXc2tj5kfz1HIRMzoLp7eTf/wAtK9D0af7RbxtXDJpzyXHyJ+7rq9O32ccab62gcszetLry5Pn+auotNvl/u64qB0+/WppuueZcbK7oTOKcDsrWf/YrUtbr/brlIL6tCO6/d70r1IVThnA6yCTzPuPUc71i2Oo+XJsrX8zzI67efmOXk5QgnbzK20k8yPf/AMtKxE/1la9v/q460pETgaNrP5n/AF0rRR/MrOjj8z50q0j16cJnFMuw1JsFQR/79Wo63gcsxn+rp8dElEdWZklPplPrUgKZJT6hoAKru/7yrFV2/wBZQXAnj/1dSVBG9Tx1YTDzKfTKKCB9FFH+roAKKKdQAVJHTqKCAp1GyiqAKEoooJCn0UVYBXReBf8AkMSf9cH/APQ1rnZK6DwN/wAhub/r3P8A6EtTP4QOO11v+Kg1T/r7m/8AQ6oVb8Qf8jBqn/X3L/6HWfvrkO0kd6j/ANZTJKKBcg+h6ZT0/eUDDZQ6f36lqJ6gAooejfVgGxaN9G/zKZQAOlVZ0/5aVO9Ryf3KCoEPmeXT3k/d1BJ/rPuUP+7+5Qb8hIj0/wD1cdQR/vJKtbP9XQZjN9S1F/q6N9ABv/eUzfQ9FBJHv/eUx/3dP2fxUbP3dalFKeeqrpV2eCof+mdZHVCZReR45KvWl1/y0aqskHmVHseOg3n7xtpdpJ9+iPZ/A9YiO9Xred6Oc5Z0i671Su38yOpnf93WfdT0BCAURwf6t0qBHStGOoLmO/5Z1C9Tu9VZJEqDAgd/LrPu5Kmnes+eesJm8DL1H/VyJ/y0ryvxNdS6febnr1S6dP79ef8AjDTvtlvJt/1kdeLiz1MPL3jBtNcS8j2O1Z+rT+Z/FXNeZLZySfw+XTJ9Vfy/nrx/aHr8hBdT/wCsrmr6fy/uVo3d15nz1z19N/rKOU6owIHn8z7j0x98n7zf+8ql5/lyR/P+7pJ75I/no5TSAT/u/MrBvp38z5/mq1PfeZ/20rPn2XFbwgROYQWv2yT95/y0ra1zRotPt4bdNvnSLveT+6lZdpP9j8uX/nn/AMs6vfavtlxJcO/+sreU+WJnGHNIx47FvM+f5avRwJcSbPu1akkTzKfB+8j+T91WfPKRvyRiUrvTU8yhLHy/n+9WhH/tpSz/AOr/AHX+so5jDkMeeDy5JN6VnSWL1vSO0n3KZ5CSfJ8vmVcJhOBzyab5nzv/AKutrRv9H+/81T/2b5nlps+41Mng+xyfJ5lEyIQNS0SLzP8Almkbf8s66Gzjij++9cpaTpceXvT95XQ2qPWPsjfnNH7DF5e9P+WlRp/rNj1JA/l1HI/mSb0/1lEIBzmpBY/u/v8A/fumTxtH8n3qgtL5rituOB5I97pWEyTnnsf3nz1rwWPlxxutPeDy5Nn+1WxpsHmVmTMqx6a95JWvY6V5ckbvVq0jijq7Hsjk+/W/OcxSj0Dy5LqXzd0crb/L/u1V1W1/eR7K6GCdJJNtQ32mxSfPWE/eLMeBEt/v1DqUnmeWn3t1Wrt18zZVF4/9Xs+WSoKIYI/3n/XOpvLS88uKVqk8vy7f/ln5lUZ5PLj31EzTlGX2g2/8EkdVXjis/LSp57v93Hsese6unuJPuVfvGhPJffu91VZ9Sby/n/4HUG94/keq11v8v/ppVlwgXf7Q8yT7tMgn8zzN6f6yoLRPL/hq1aJ+83tUFkybo5I0q1a33lyferLkkaOTf97y61PIX7PHLXNMOQ24J3uI/wDpnWJd2nmXEmz5fmqeC6+0SRxf8s6g1G6SP7jNSI5DbgeKOz/hrmp7X7ZeSPUkd0/l7K1NNT7RJHUFmv4ftUjkj3/3a6uS7X7ifw1gxwfZ4/kepLWf95RzmMzqLSdI46HuvMqrY/vKu+T/ANM6s5yeD/SLeiCN45I3SrWm2vmSbGrUexjt63hAxnItaU7ySbHrX8to5JKxNO/dybN9bEkyRyV6NIxmaFl/rK1J538v56xbF3kkrQnm/d/c/d13Q+A4pEMOqy+Z8jV1FrdeXHveuXtYIpLjf/y0q7dXX9ylGfKZygdDa64nmVvJJ9oj3pXmcE7ySV3mjz/u467sPV5jhq0jetZPMjqzHVLZ/GlTxvXrwPMmPd/3lWo5P3dUv9ip4K3iZk9FFFIgKZT6KCxlRz0//V0x5EkrUcSNKnjqBKnjqy5klPpnl0UGA/fTKKKgB9OptFADqkjojqSrAN9FPpj0EBSfPS0VQD6fTKfVkjP9uuj8A/8AIYf/AK4Sf+hpXPt/q66HwB/yGJP+vY/+hLUVPgFA4bxB/wAjBqn/AF9y/wDodZnmVpeJf+Q/qP8A19y/+h1myVyncFEdElMoLH/8tKkj/wBZSJRQQS1FUtFAEX8FQ/x0/wD1dMoLH0f8s6KZ/q6CB8n7yoJP9ZUm+oHegqBA8n8FMd6kkqo71B1QLVrV7ZVW0Ty6tfx1ZhMj8v8A4FUPl+XV3y6geOjkIhMYn+ro2Uz/AFclOoGNoodKP4KAI3/eVC9r5lT0eZWpRiXV15cmxP8AlnVVL5/M+f5o6m1K1eOST5Ky49/mVznow+A1JI0++n+rkqSN/LjqBJP3eyjfQItedUE/7yofM8uo53/vUE8hJB+7rQX/AFdZcEnmVe3fu6DOY95/Lqq89MnfzI6ozv5dYTmRCAyeb93+8qlI/wC8+eqt3fJHWW+sp5m1686dY7YQJtVn/dybK56+nTy9j1au5/M+5WJfT+ZJXnzn7Q6oQOH8VaUkkkkqVxN3vjt9jpXea5qKSeYuz/V1w+qv5f3a8ifxHtUTEnnf7PIv7z5KxLqf93/6HVrUrvy5P+ulZ91J+8+Skd0CjdyeX8//ACzrIu5/L/2q0bq7Ty9lc7qMkvmeb/yz/wCeddEDGc+Uke6qZJo7ePeyf/ZViz30Ucfyf6yoEvvM8zf80lehCBy85qXV3/y13/u6fY337uueuLvzI9j/AOrqexn/AHmzfR7IUKvvHSPqXmff/wBXWjpt2n3N37v/AJ6Vym/zJK0NKk/2v3dRyG/OdEnm/aK1N6eXGjp/20jrHju/3kbvVp5/tHz0GhPd2LyR/J5bVnbf9qrzzvHJ8j7agedP4/lkqPZC5yexb/Yqa6tEkj+5VKDf+72Vr2kfmW/3P3lYe9E0hylWxsUj/j/7+VsJ+7qD7L5kdaMdp5kf/TSr+IgfJaP5cbJ80f8Az0qD7K3mebu/d1t2qJ5ex321BdOlv8jp/wDZUcxzlKx/dyeXXSwSeXHGtYiInmeZVqe6/dx1jOHMBr+WnmR7/wDWVq2MCf7tcn9ubULiPf8AL5X/AI9XZWMf7uOlycpIz545JIv+WdPtJHj8xH/vVa8sfu/4qkntfM+58slMgS3/AHcnz1ankTy6yJ3e3/1tQQX3mR/erDlLC+/1cj1C7+ZHG6fLT3j/ANZUG9I/9b8tHIUQR+b5kjv/AKuszVbp/L2bK0L66S3s96fNHXPaldvJqFijxOski73/ALlKEOaRsVftb/aI/wD0XU37z7RUN1aN9sjl2U+R/wB59ytJlQmSXzxSSbEaoHji/uVA0fl/vP8AnpQt39nk+5uo5PdAnnT7RH5cT+Ru+5TIN/8AG9Pg3ySSO9WoLRI5PuVhL3TaBPBGklvJsT95HR9uS3j2bKtJp3mfcqD7Cn2jY/8Aq46yNSG1kbzJLh6qXV19ok+SrWuSeXH+7+WuejkeOSrMjXtX8y42f+yVvacj+Z/dqlo2lPJ89dDAqR/fk/7aVzzAtI8sf333R1o2MdUoNkn3HotbiWzvJEf/AFdQRM14J/L+5W3ps/2j5n/hrE3xeXG+6p9Nu/3mxKswnA677dFb/PTH1V9Qkj2VVSBPL+ep7WDy67eY5eQ17G4WOPfVrzPMkrOgjerUl15cddcPhI5DYguoo46mk1WKSPZurjZ7yWqqapLHJsqJYjlD2J6Baz/vK0J4GuK5vQ9S+0SffrtbGNJI66aX7w8+tHlKVjpR8yuu02D7PHsqqjpb/wDPOp4L5P71epSjGmcM+aR0NrJ+7qfy/wB55iVSsX8yOrsb16kDy5g89PgkqrdR/vPkognrck1aKZT6syCio46krUAkqpVuSqlBpAfHViOq9WI6DOY+j+CiiggKHo/jp1WBDGlSU9KZUATeZRHUdFWQWN9D1H5lHmUAOp1J8klK9UAU+oI6koAf5ldH4B/5DD/9cJP/AENK5mP95JXTeAf+Qw//AFwk/wDQ0rOXwjOH8Qf8jBqP/X3L/wCh1mVp+IP+Rg1H/r7l/wDQ6zKxOwJKZRRQHITJRTEk/wDIdP30EktJv8uo6KAF+So3/v0Uf8CoAZ/q6Kjk/wBWKY8j0Fcg+SoXepPnp3lpUFlLZ5kdM2fvKtUeX+7oNOcfD/q6nqCP93HU++rMJhQ9H+sptakkTpTEp7vUEcn7ysiyd3qB/wB3Ukkb1VnRvMoKgPd6Y7+XVV0enpH5kfzUFjLp/Mj+esv5PM2eXWvPB+7rLnj8uSomdcBfnpN609E/d0x0oKIJ2Ty/uVV895JKnn/eUxJE8uoOiBGk6x1O8/l1Vfb5lQXTt/BWc5mc4Bdakkcm/fWfJrEUkezdWJqM8vmSVkPM/wB9K8mriDSFI1Ncvnjj3pXEz+IGjuPnrpZJ/Mt9h+auK1m1SSTeleViJnoUoGvJrH7vej/9s6y7rVUkkrIeZ7eOsS6vn8z71cvtjuhRH65dfZ5GRHrlLu+/d1d1bUvtHyy1zeov+7+T+CiBtyFW73yVlzpLJUd1fPHcbKJ9VTy97pWhvAy7r+/WLdz+ZHsetq+keSP5P9X/AM9KxZ4/M+d62gYTmYkkfmSfO1an9nRfZ/lfd/00qlO6RySfPV3TZ38uSus5Y/Ec9fQPHJIm+oLW4aOPZvrU1WRI/M31lx7PM3p/y0rsgcs/dkaP27/brQ0q6TzPv1gwf6uTZVq1f959+onA0hM7aOT7R9z/AFlakEbxx/3v+ulY+hp5ldLHA8flo77o68+c+U9SEeYpbF8yo/svmSfP/wB+6vXcaeZuSqLv5f8Ac8yrhMzmXrT939x9taFrdpcR/wDTT/npHWDBd+Z/BWjBP/crOZcDUedPMjT95+8q79uijt9u/d/00rFg/wBZvqZJ/wDrn5clEBzOlsZ/tEex/mjqe+2Xnl/J+7jrH06fzI5P4f7lXkgl8yR0eiZhMtR/u/kSrXl/6vbUdpB/f/u1ag/eXEaf886x/hkElpaJHJvlTb5ldJBJ5cexKz591vHG2zdtq1aulYc4choJIkkcm6r9Y3n/ALyOtuCdLi32VcAMTWIPMt99c9Yyf6R/err7qD+B/mjkrl57SXT9Q+RN0Lf8860AtLO8kklVdRsZbjS7rZ8sn8Fa+mwJJ8+zbU81oklnIiVyFwOQ0OeLUJJLdU/dx1dvtKi+0SXL7vu/JTIIItPkjlT5Y/8AnnHT9Rvkk8xKDUxbudPMk+f93VXeknyVBPYx28m93/1jVPGiW/mOy1pzFQI54f3cj7I6peY3/bSrrz/bI5ERP9XUkFp5cnzpRAsfp6JHJG71dn/d/OiR1Vt5PMuNm3ZHUk8/lx1mAf2x9nj/AOmlRvfPJ5j7/wB5WRPvkkkerVonlxxo7/vKicDeI+SCW4+8/wC8qra6dLJefOn7utvy2uPLRKn3pbyR0cxmXbSTy49myh5z5cm+tFLVJKm/s2KSOT/npWQHDz3V7byfI8nl1qaHqr3n+tatD+x/M8zf/q6tWOgRR/PH8tBqSSX37z5P9XWhpV9+8+/WFfR/Z5NiVZ02d4/ufNXOc/Id5au8kkfz10tnAkce964bSr7+9XX2uo+ZHs8yu2kYTgan2tI5NmyoJ/79VfPi8z7/AO8qS+uv9Hru5omPIRu6SR7ErPeF/Mp9q/mSbEet6SxSSOPZWHJ7QuXujPDiPHcR/PXo1jJ5cdcno2m+X5b11lraP9+vQw8OU8vEEd9O8dVbW6aOT79aN1B5kdZfkyeZW0jiO10O++0R10UCVyehx+XHXWWk9erh/hPKqhPB5kdRwJ+88z/lpVr/AFlR/wDLSvROckgn/ebHq1v8yqvl+Z89SRyfwUGQ9/3dSVX/AOXmpI6s1JJKj8up3So5JPLrUyIfnp8dLzRzQBMlFH8FP30EDKdTaKAHU2nU2rAdRRRQQFLvplCUAOqxv8yOoNlT7KAG0sn+rpdlDyfvKABK6bwD/wAhh/8ArhJ/6GlcvXTeAf8AkOSf9ez/APoaVMvgGcZ4g/5GDUv+vuX/ANDrMetDxI3/ABUGpf8AX3L/AOh1mO9YnZAY9RyU6ot/7ugsfv8ALqfzKg/66VJQRMf5lMgn8ySSo5KZap5ce56Blp3o/wCWdM3fu6g30C5Cd6jRP3lHmUQPQMn8umfx0/zKZQA2onp/mVC70FQJo6Z/q5KZBJT/APppQEyWiot/l0ygCxVRv9ZT2/1dVZH8uStQhAu7/wCB6qzt/sU/f+7ptZAV6k/1cdGwU+Sgsgmn/d1lz/vKtT/9M6YiVEzeBVTfTqWdKq+f5cmx6g35eYkk/wBXsrKup/s8m6r07f3DWXdPWczeBBNdeX5dVf7R/v1DI6fd31Rk3fwV585HVKBeuIIryP79Yk9j5fmVa+1/Z5PnqCe6SSuWfKEIGRP/AMtErntR/eSbHrbvp/3nyfLWPdfvK8uZ2wOa1WTy/uVy99+78x0rsrq1k/eb64rVf9ZJXDOB2wMG6vP3fzJWI8/mRyb6valO9c7fTtHH/wAs60hA3M++j8uT/rnWXPfPHJ89XZJ/M+dqztR/eV1QAhe6eT5FfdUc92/96qsbvH5n/tOmSfu4/nrqgcQy6neT/WJ+7p9jP9n/AIP3dZ08/wC8jojuv4K6zDm94ZqL/aJKfaIlxbyJVK+jeOT/AHqZHdp9z/lnWpyy+I1EtfL/ANX/AKv/ANCqBEljk+5UH27zJNm6tHTXaOTY9Hwl/wAT4DpdDunj8v8A56V0Kal9o+SsGxnTzP8AVVtweVJ5bv8ALI1efPllI9SEZRiTb/Mjkd/M/wCudZjzxXEny1rzxpb2+/fHWOmm/wCkNKm5fMq4EVJk8f7uStGD+5VWCD93HWhBt8uon7xdKJJ8/wByprXZcffSod7R/wDxyrUEH7z533Vn8Joamm2if3P9X/z0raRP3dZcEf7v5KtR+bHJvdo60MJk9272/wD10qlp2ufY9Q+Z6tf8fH+teP8Ad1iT6a0moSbErCYRPRrTUkvLf/lm1QOkscm9f+WlUvDlj9jj2S/xVqTp+88ysOQRVeR/M/6aU+DWGs5I3b5o/wDpnRPB/q/4aYlikkeymTM6ix1GK8jjfZupkkaSSVRtHSzjjii+WpHn8z5KXOQXY9n7z5Kqz3f7zYlMSf8Ag3USRtH5j1jM6YQMHVYIvM+/t/jSudu9Zis5I4pfmkrI8TT3v9uTPvZYawZ9Y8zUI4vvf9NK6qVLmiOHxnV6jP5kf7pN1HzXEdYOj30slxsZ90dbfn+Z8lROHKdPIXbGDy4/+ulWp/8AVyJWX5jx+YlMn1Hy/wCOucDRh/dySfJUF3B9okk2eZ+7qkmoy3H3K1I5/MjrTkAy0R45KmSR/L+5WjaweZJJv/1dPktE/hSsDchgnf8AuVHHH5lxHK8n/bOpEjfzPkrUjtP3f3P9XUSkYBA/mXEbLLJ/1zranvkt49z1l2MflyRpsqfXP9X8iUc4D49ReT+CpH1X7P8AJ/y0/wCedZdj5txJs31an03y443+9JUcpqQfa3uJKux/6PHG+zdJWR+9t5K27HfcfepcpZqWO7y63rHzf71VbFEj8v7tbST29aQOGcy1BB/HVW+8395V61nSSppI4pP3dWYc5z1rI8ckb12uhz/aPLRkqrBo8Ufl1vabYxR/crejTkZ1ZHRWNqn7ut5NkceyudtZ0jk21ou717cPdieLWNTyEkoTTk8zfVW1k/grXhraHvHLMntUq7HUMH7upref95/0zrugcUy8j0O9LSf6yuoxHwP/AH6n2CqqJ+831djqyBaSOiT/AGKIHqzIkqN08ynu9NrUBET93T/+WlCfvKk/grIAooSitSCPf+8qam7Ke6eX8lABvoSjZT0joAdUNWNn7ujZVkFXy/Mp8aU/y6kSgA2U+OiigA8uoP8Alpvqedv4KYlUAbK6bwCMaxJ/1wf/ANDSucrp/Av/ACHJv+vc/wDoS1nL4BnB+IP+Rg1H/r7l/wDQ6zJK0/EH/Iwaj/19y/8AodZlYnYQSUx6lqGoLJI6kqNHo8ygB1N/6Z06mVZIslQvT/8AWUbKgqIbKEpfnp3l/u6AB/8Afojpj0Y/26A5Qf8A1lQPIlTvUD/u6s0gKv8ArKlqGN6nSoCYPTKdU1WZld6o3SVek/d1Ru5P3fyUGkCSCT93U2zzKz7XdJJIlaMdQE4Efmf36N/mUP8A79Md/LqzPkI5E8ySoXgqZKHT/bqCyk6Vl30HmVsXFZ13+7qJnXSkYn2r7P8AI9UrqfzPlV6fqrpJ9ysuON/LrlnM9qEPdKt1vjk31VjeWStGdPMjk31jvJ9nk/6Z1yTkb/ZJ7r/V/wDTSsuef7PJsqd7rzP/ALZWddT+Z89eXMiECC+kqq/7ypJJPMqjP/q5P+elcxtyEN0/7uRK4bxBD+8krr7uSuT1h08uSsJm8DgNYTy/M+euauv3kf8A00rr9ZT7RHJXFXyNZyb/APlnRA6pTM6Tf5n3qzp/Njj+/wDu/wCCr0/+5+8rOeTy5NldsIkSGeW8cf8A00qrdp+73/8ALOtCTZ96s+eTzPkR/wB3W8DCZnb4vMkd/wDV1B5PlyfI27+Py6hvoP3m9P8AV0+B/wCD7tdvIeXz+8Pn3yR/OkdZDzy+ZJWu87fvEeoYIPM+f/npTgRVhzFW0tXuPmrpLGxaOqUG/wD791t2MDyeWrpWFaR04eBr2sH+rrX8h/4KpWNp/sVqQPXmnsDJP3kcaOtVdj2/l/Z5ZF/v1dk2eX9+qr7/AN3sf93XXA5ZwJ/PuLeP5tjR1ahu/wDVpLFH5dZc8jRx+Ukn+sq1au/7v7rf9dKPhCBvRwJHJtfy6uxukn8FZcc7+Zvep47rzJI0T/gdc0fiNvhNdP8AWRonmfvKuzwLJHGkr7fMb5Ky7W+T92/+1Wp9rS4k+T5v+uldJzTJPsMVnH9/95/z0q1pUCXFxvrLkSXzI3/eNHV2xd7f7v8Ay0rlmUdQjp5dG+siO+fzJN77q0LV08vYz/8AbSo5SSR9v3Heo/PSOTZv21Wvp28yP+7T9jyfIifvKziEzUgulk+R03VG71Dap5fmfPUGoyP5ny/6umL4S1vbzPnqfz3jj276jtdkdnG7/NNTLuTzJNifL5lZ8kTfmMvXIIriPfs/1f8Az0rkHsbKST/VL+7+5XXzzvJ5kcvy1iX2zy98SfcpwnylwMu1git7iRETbUiWvmSb6f56XEf+q/ef89KZslkj3p/yzqpm/OQSfaPMkR0/d1B/x8fcT/V0ee9vJ97dH/HHJVqO18yTfs2/x1pACqkD2/z1atb5/Mj3VDPP5kfyfLWd5b+Z9/8A1dEzT4TtdNnWT/rpV6fyvMjR3rmtKnf+79+teODzP3r/ADbawnAzLUaRR/u/+WlSSfu5NiPUe9vLjfZRHv8AM3vXLM05TRgjez/etU+o/wCkRx7/APlpR/aSSW/3P3n/ADzqj5kskf3P4qkzLVrY/Z4/NRP3f/TSpJ7tP40qODfJ5aO37urzwxeX/wBNKqJpzGPvSS437P3db2nRpWC8f8bpJVvTb795t3VEzafwnTp+7rRtYEuP465qC+8yTypWretZIo/nR9tXCB584GpP/of/AFzq1a+V+7ffJ+8qGT/TLPFZ2lSfvPKd62M+Q6W6uvLj376fBrDRx1kX0/2eP79UoLpvMp+19mRM9F0fVUuJPnrpUuvMk2V5zoDvcSfu67Kxm/efvP8AV120qvMeXWgdRAlaiP5dZ1p/q4/+edaMaV69I8iZdSTzPkqRP9Z89UU/dyff/wBZV6B/Mj2V3QOWZof6yOP56lqJJPMjjap0/eV1QMR8EdT/AOrqOOpP9ZVkBJTPn++lPeOiOrMhearu6RyfNVio5IEk+Z61CI+P/V1P/BUaf6uljrIB9FFFagOqaoamqyCGpP8AV0lL5lBBJRUfmUeZQBJRUfmUR0FkiU/zKg8ymO9ADqsR/vI6qpVqOlAgfsrpPAn/ACGJP+vY/wDoS1gVv+Bf+Q5N/wBe5/8AQlpS+AZwfiT/AJDmp/8AX1N/6HWZWn4hT/ioNU/6+5v/AEOsySsTsiMqOSpNlRyUDI6a706oqgoSN6k31B5n/fynpv8Av0Fk1TVX2U6ggkREqd0pifu6N7VZIOlR+XQ/7uiOgBk9Up38urs9Up0qDaARyfvKmjeqUf8ArPmq9QXMen+9T3fy6Zvo/joMCOd6pTv/ALFWnjrOuN9BvAksf9Y1XU/d1nQf6PVrzv3dEAnAkd6j/wBZVWSfzJKI3oDkLUcnl0O6SVVeofMeOjnDkH3f7usTVZ/3ciVqTv8Au6wb538ysJnVRgYrx/vKPMSOpnRo5N9Up51t/mevPrTPXCefzI9lYk6fvK0ft0UnmfPH+7rLnvovMrzpzNIGddP5dZF3fL5lamoulxb1yk8b+ZXnzmdUIGo/+s31BO/7uixRvLq1PD+7pRAwbuSua1FEk+at/UX/ANiud1JH8v7lRM2gcpqKeXHXIalIkn3q7+6g8yOuR1hEkkkT93RA6jk3/d+Xs3VSeB/M/wBVurX8t5JNj/w0On+xXXDcwmZf2H7RH9+sHUYHt/kTzK6xIG8zfv8A3cn/ACzrH1/ZHJ8leiefzHITyeZ8j+ZVby/3kfyVqOiSfPUFnAt5cff/AHcdawmcU4+8Pgj8z/7ZV7yI/wB3sq09ikccex9vl1Bs8uo5zphDlDy/Lk/6Z1t6VP8AwPWdB5Ula9jAkfzrWEzeBseYtvJ8n+s21NBP5lUvL8zy9lXbGD/lpXOejAHSSO4/9DqTy38vfT3n/ebEpkk6RyRps2/9c6qEzCcPeKM8H2ySP561IP8AR/4KY+y4j/eps+arUGyT+OOiZEfdJ9nmfcq1aonmea/y1A9q8fl0+SGWSOP73mf79ZwNye6RI440i/dVajvvMkjii/8AIdZcm6OP53qfSkaOT7REd3zVpzknSQP5cklvUkk6Wf3/APlpVW0eKS4jld9tPvrq3uPk+/5f/LOsALVpdJJJsR6uwT+ZHXN2O+OSR9kcFbVi6XEmxauWxzmpdXTxx/J/rP4KpWusS28cktxFI0dTxwfx/ejp87pH5dZgWvt0Ukfmp/y0/v1S8/7R/F+7k+/RBap5e/fv/uVV8tLeSRP+WclZG3KaiP8AZ48s1TQXaXEcjp5dZEkn2iPY6bY5P+WlamlabFp8fyUFEF3suI5EevPb7w/q1nef6FLutd/zx1399B5knyVPBapJ87vSjIyOatbH/Q43dNslTx7Pvp8s1a88CR/JWdsSPy/4aZuZepWvmSebFsWb/nnVJNSS8jkR/kmjrX1G1+2fwbZP4Ky/sKXn+t/1n/PStTqgZc8Mv2jY6bKnS0SSTZ/5ErRjgS3t2t9+6bd8lWktfL+egZNpUflx7K6GC1/vvHWLa7o5N/3fLq7d3T+X8lYzLJ3fy6LSBPM37P8AWVgyas8cnztW9peopcfI/wAtcs4AaP2X95vT/WVdtbRPL+f5qY/7uP8AvVBPfeXH9+jkM+Uu3XlRx/cqk8ieZ8lYL6lLcSbN+6rsGyT771pyFwgGq3TeXsqrpsEskm+mai5/d/P+7re0O0SSzj/1dI6vdCDSpbj50+WSteO1uLeONN9WoHis49n/AC0qlPdPcSf9M6x5zzpzNH+2Ps8flVA99LJJvRNsdVYIP4/Kkq7HH9oj2VE5kFqC7S8+V5f3laMFrFJJ96sSz0+WOSNEronjSzj+5+8rMwmdDoaRWfyJXS2trLcSb0rzW0vpZLj5JK9X8OM8lvHuSvUw/vHl4g6Gxg8u3jStRKpQ1dSvoacDyJiv/q6mtf3lQeYnmSLUlnP5ddcDCZpwSeX8n/PSryfu/krOgk8yStH/AFcldRxTJqk/1dR0VZJJ5lElR1LVgJHRsenxpUlBkQ1MlMp9ABRJ+8oo2VqAU6l2UbKsgSipqhoIF2UbKSpqCxqR1JsoSh6CCOT/AFYqHZT/APWSU+SoLGJVqoI6k/1lWBNvrofAcnma5J/1wk/9DSubro/AP/IYf/rhJ/6GlTL4CTi/EX/Iwap/18Tf+h1nyVp+Iv8AkOap/wBd5v8A0Os2sTqItv8At1C9TbPMqF0oLIH/ANZUNWZKh2VBrAZT0/26fso/1dAE9GyjfT9z/wAdWZDKKHooAjkojqfZ/cpmyjkFzkbx1DPHVr+CoHomXAy3R45KuwR/u/npk/8Ayzp8D/wVB0E+xajkk8upHfy6y7ufy6DOMC1O/wC7rLnn8u4pj3b/AHKg2NJJUHZCPKT76f537umR2r+ZT3g8uOrJ5olXf+8q0v8Aq6g2fvN9WkoCYz/V1BJVrfUFxUEGfO/l1l3T1d1L/V1g3V1XLOZ6EIFK6n8uSsu+uvMj/wCmdT6lfJH5lc7PfeZXiYjEHo0oGfqWq+Z5iLWJ/bLW8la8kCXEmzf/AKysubQ5f4K8ic5SOz3SSDVfM/dvT3j8z56qpo8sclaPkPHHspARwSfZ/wDrpRJdeZHIlSRpVW62eZJsroHymPqP7vzHrFnvP4K2r6Oueuk8uSguBg3279589c1fWryf7VdRPH/GlUngT947pUHVA5C6tfs8m9KILTzPnrop7H95Wc9r/wAB/wCmlVCYThzFKex8uPzFrkNVg8yT7tdfP+7/AOudZd1s8v566oVTCeHOJn09v4H21Sg037HJJvT95JXUTwfvP7sdUr6fy4/71dUJyOOcI0zL+3eXHs+9RH/rJN7/AOsrLu7v958z/wCsqD7W8lx9z93XVyHD9Y943vL8uTYj1vWv7y3jTfXNQO8n/XNa0Y75LeT5H/eR1jOB20pxOr89LeOmJrMUf8cdcu+uJ/e21l+e8cm7f+7krCFI3+scp6Sl0n30SqVxqVc1aaw8cfmO/wC8pkeq/bJNlHsg9tHlOytbrzPLR/8AV0TxtH8yPu8z/lpHWXa3D/u0Ty66GxgfzN37tv8ApnUBD3iGCZ/ubqu/bmjj2f8AfdPnsYpLeSWJP3kf346yN7/cRKzmdRo+e/l79+6rUDvHJH/DVGCN/wCNv+/daM8/2P8Adfu/3f36iJE5m39qivI/n+ST/npRIn2f95s/7aVlx3Uslv8AI8bU+DVE/efu635DnJ0n8z5Zf9XW1o37uP79ZFjInl7HTd5lXt728cnz1nMfIa8+otZx/f8A3dY99qNxJcRqifu6Z56XEex23eZWpY6akcfmyvu8uiHukcho6Vvjs/v7qPsvmSb/APlpQm68j+T5Y99aFpCkce9/mrHn94vlM+Sx8y3kStDTt8dvGn/LSqWpX3l3Edun+r273kq7a7I443omRAhnR45JPkf/AK6VaRPMj+SnyXCRxx+bVpNnl1BRl7PMkkrIvo0jkkdfl8utS+uvLkk2fNWPPP8AaI/nT/WVnznXCBSe78yPelEbp/20qrPv/eI/975NlVY0eS437/8A7Gr5zrLtokv9oSPs/wC2dbcMCSR1BpuySP8Ae/6yP7n+1Rd+bH5eykBedEjj31B5cUkcnz/vKZJA32f7/wC8ogT938jVrH4Rc5g30D29x8nzVd0tvLk+ep3RJJNn3qmgg/jVKznAk3vP+0Rxp/drPuv9Ik+eqsl1cWcmx0qOC+bzN/8A3xUi5w+aOTy9lMn/ANXI6PVry/Mjkf7lUpLR5PMWs+cuAQTy3n366HR3eO32K9Ylo/l/7NWo5PL+esS5nRTz/wACPRaz/vPnrl4NcT7RsrodK2XH7xkrnOWcDqPtyeXsWn2s/lyfc/1lVYPK8uNVrUjgST5q0iYSJ3j/AI0qfzPtHlo/+sqPzv3eyrVjB9okj+StDmmXtG0ZJJI9/mV3Gm3X2fy0X5a5e1n+zyRolbcEbyfNvr0KPunDV946u11HzK2I38yP5K5fSo3/AL9dRaV69KZ5Ex8cDeZT7WP93T6W1r0YHMalin7ytBv9ZWXB/rPu1o/6ySP/AHa3ickyZf8AV0yT93Ukb1A/7yStiSdH8ypv+WdVYatPH+7oFMWn0zy6KszE/wBXUn8FR/6ypNlABT40ojShK1AdT6Kr1ZA/fRvpmyioAelP8ymJUtABTXemP+7p8dWAR1JQlD0ARx1IlRx1PQAyul+H/wDyGJP+uEn/AKGlc09dH8Pv+Q5N/wBcH/8AQ0qZfAScb4gf/ieal/19y/8AodZn+srQ8Qf8jBqP/X3L/wCh1npXMdhJ/q6gkqxUT1YQK9RPU7p/fqP5KCyOm+Z+8qby6ZsqCx6PQj0x0o3/AMNBBPUf/XOmeZ5cdEb1Ychaj/d0O9QeZR9orUjkHyf6uoXpjz+ZRvrnLgQSf6ynxx/u6NhqSg6CCb7lVUg8z79Wp93mU+NKBc5Se0/jojtP3laPl+XTPLo5A5yp/uJUMlWn/d1An7zzKCIyKWzy5N9WoH8yo50oRPLoNySdKozv5dWnnes+7nT7lRMUIGPqU/mVz11+8jrevnSsG7nSvOq+8exSOQ1SdvMrBnnbzK7LUtOS8j+SuXvtKe3+/XzGIhI9OBlx3f7yul06ZLi3jR6557Vq1NOR46wpDnAu3H+s+T/V1nTo8fzPV6e7/v1lXV0kkeyumYDJ5P3dUp5/46Hukjj+/VW6ukj+/Ul8pSnn8z79Zd2/2iOtC7n/ALlZ97/q6Uy4GJdQeZJWXdf6P95K0Xf93J/FWXdSPJTOog3xyfcqrdv/AH6jkk8v7lQz3fmR/PHukb+P+7S5DeEjOu50s5P70dYN9On360b64/d/+1KyLp0/uf8AbOuqEDCcyjd3X7vZv/1dYN9deZ8+ytG6n/eVSn2SR769GEOU8itPmMG6sXvJI33/ALuiO0aOT/45WvHA0cfm7FaP7lZ19I8dv8iR+Zurt5zzvZF6xdJI5EdqtJa29nJ8nmNVXTkeSSPfH+8qa1tZbeSaWVt8f8FYHXD4CR7VJPv1BfTxW/lxO+3/AKZ1qQf39m2si7jb95LKn7yNqkufwkf/AB7xyfNukotJ/LkrP+fzP96tC0RPMj31tyHDz8x0ulXX8DpXX2s/2ePetcTaun/j1b0Gop5cdedWPaonS+f5cfyf6vb89Zd1v8zYn/LT7lTpdxSfx09PKkk+d/8AV1kdBdsXSO381/8AWfwR0TpLcR/9NKntY4vs8iO/7v8Agqe02f2h9+P/AK51UDOfvGd5Ev3Hq1a2n7v/AK6VqfZf3nmP/rKgf/yHVkcgR/6PUkl15kfl7qjk/efx0QWv7zfWE/iNvhJEk8yP71dJp15b6hZyReburnvISzt5Jbh/3dUtDjlt7iaVI9scv3KPiMTtU1G10uOOJ2k+Zq157uKOPfXG2OneXJ5tw8k8n/oNbFjHLeSb5U/d7vk/3Ky5YiNSS0+0SRvF/q5KtfJbx/O/7yrUCLHHtSo30Z5JPn/5aVnL3gKUk8VxJvf/AFcdTzyeZHuiao59Naz/AOenl1DaWvl28io+75qUxxKsiJJH9795/frEvne3k2f3q1Lr/R5P+mdZd9H+7qPsnVAZOiR/x1B/lKfdP5kcdQ2n7yjk5jtgXYJ28urX25/M+f5o6peXLH8saU+0guLj/W1fISWru6SSP5JfKj20J/o8e7f/AKyqt9B+8jdE3f7FWp9kccbv8tM5yrPqKRx/8s/MqfStV/eRo9Yk6eZJ8j7qu6dYvHJvT/yJSmaRibequl5JsT5fMrOeD7PH9+StTy/M+T/nnULpXNzjKqXzeXsf/V1ad1+9v/eVSnb/AGP3dPt5/Mk+elMqBdWxf77/APLSrs8Hl2/yJTPtaSR+XT7FJZPv/wCr3VJZkf8ACOXEl55sT/u66/T7RrePY/8ArKggnezk2bP3dXft32iT79ZSMJmxBaP/AAf6uj/Vyffosbv93td6f5HmfPTgcxqaVsk+/wDNWj9q+zybKwbS7S3q1HP9okq+cwmdDazvHJv2VvaVdvcSbHrI06dPL+5Ud3qT2fzrXVCfunFM9AsbtI/l31vWk/8At149a+Knjk+euy0PxNFefu99dtHEROGrRO/jnTy5KntP3klZH2rzI40T/lpWpYyV7dOZ5k4cptRwp996kjd5JN9R7/8AR40qSBK9E4iaGh0/eUL/AKypP+WlWQHmeX89PR0pkkfmfJRBVmRPT6Ep1BA3y/Lp1K9MoAdRS7KfHWoEdFTVE9WAbKHpm+nxvUAGynU+irAhqRI6dTqACh6fTKCBtOoptBY7/WV0/gGPy9Zm/wCvc/8AoS1zCfvK6bwL/wAhqT/rhJ/6GlTUJOE8S/8AIf1H/r7l/wDQ6pL/AKutDxAn/FQal/19y/8AodU0jrmO6ItRPQ9M8ygYySTy6gd6fJUdBYqUPRv8umO/+rqwHu9Mf+/Q9Qb/AN58lQASUJvpn+sqeOg1Ho9H+sjoqP8A56UGRJUb/wCrpjz+X8lQT3dBpyFrf5dG+Os/7U1Hn/wUc5fIXU/eSVPsqrBWgn7ygxmQ/wCso2U999En+r+/QZlVl/gqPy0jjqXmo3/uJQWVZNklRvQ71C71BvAHesTUp/s8ma13k/d76xb795JWEzqpQMS6u2k+4tUtiSR/9NK2p0jjrnr6cRyV51WZ6kA8yKOsTWPKk+5U91dfeffWJdXX8FeRWqm8ImXPO8cmyrVpfeZH/DVKf95JVXf5f3Grzuc6TRurvzPkqrPJ+72f+RKgf95Hu31l3d3/AAbqOcYak6Rx/frEe78ySmXU9ZfnpHJ871JvyG9HOnl/M+6mSMnl/wB6seedLePev+rqlY+IPtlxJFskWqLNGdE8zeiViaj/AMtPk/7Z1end5KxL6enA3gUbudZPk+7VXZ5kfyUy72f391Dz+XHXTGIzB1GOWOT73/bOsi+fy/L2PJXV3yJcRyPXNX0fmR/3a6qRz1oHN3cn7zfLUEbxXEkaJRdQP+8/551Sj/dyR769SB8/OXLI2tiW8fyf6tv+WdUnT7R86JU3n+Zb/P5fl1WknSOP5EoK5yaDdHWi8f8A5ErL+1PcSR7q0ZEkkjjffUTOql7wbPLjqjqSPJb/AHf3laMH7uT7m+SrW1JI/neo5y+Q4qRHjk37P3lTfaHj8ttn7z/pnW9PYxSSfI9Q32nP5cbokldPOef7GRNp139ojj3t+8rbtUik+/XNWqfZ/vfLV5JPMjj+aTzK5px5jthM3o42t5I0R6103x/NWRB+8jj83/WVqRzrHHsd/wDV1ynbEtQXf7vc/wDrKu2P7u481/lrnp7r7HbyfJuk/wCmdXdHnuLyOOV/+Wn3/wDZrY5uf3juX2R2+5G/i2ffqjsTzN6PWX5/lxxpuqeB/MjrHnO2Bo7P3mytCNU8vY/92su1/wBZ9+tGON5I6wmWH2WK8j8p13Rx1PBJF/qv+edCJ+7otbRI/M+T/Vt/rKRBdkjeT90tdDYwJHHH8/7yNay7GDy/4P8AWVqQI1ZEm3Y2qXH/AFzrX8jy6y9O/d/x1qO/l+XsrakckylqMCRx/crnvLeOP5K6S6/eR76wZ/8AV7aiqXA5vUbvy5JE2bv46x53/d1t6rH5n8f+rrl9Rne38vYsjR76zidsCC7eXzNm/wDd1PYyfvN/3Y6fGiSW8n/PSpLGCKST5/8AWU4/Edv2Sa6828j/ANHf939ytGC3f7PH8/7yOmWmnfZ45Nj/ALuSpkgT7PtrOczIpSP9n8x0/wC/dZ13qT3knz+ZWp9h8z73y1l31q8f3KITFyFWN0jkj8yuosZ4vL3JXKSQSyR7q0bGeWOP7/8A2zonP3RnQ/2jFJHUDzeZJvT/AFdZE90nl7Kfao9xJvrADU2JJUKeV5n36tJbvJUElp9n+f8A56ffqIzLLUCJ5n+9Wvav9nj+esGxdPM3/wDLSuin8ySz+5RP3gJvt32i3/5Z1PpyJ5n/ACzrEs0f7R9ytiD93J/drA5zesbVPM+etS7jSOP5P+WlZdrOkfyO/wC8rUj3SR1qYzMuOxe8k2V0lrpXlxxu9UrS18uTfWvHP5fyVUDCcy9afu45KztVfzI/krR+fy5HT5azpNNlvJKuZic7/wAtPnrR0q7kt5PMq9P4ZuI/4KmtfD8scnzpUwpSJnOJ6BoGq/bJI/8AdruLGP8A1e//AFdcH4K037PJI7fPJJXocEP7uvqsJGXKfP4j4zb8tP3dLUX/ACzjqTy69g8wmp8dMg3eX89PrYgWT+/UcH+skqT/AJZ1BH+7kkoJ5S7G9SI9Qf6ypI61MSWim06gCSSnUVE9AEtN8ujzKI6ADy6PLqSo3egA/wBZUlQb6loAd/rKf/wKoqb5lWQSb6HptRb6Cx/mU6q9Sf8ALOqAcj11XgH/AJC8v/Xuf5rXKx11Hw9/5DM3/Xsf/QlqJfCScZ4gT/if6p/18S/+h1mb61PEH/Iwap/18S/+h1lvXKdgxv8AV0yn0yg2IqbvqWigBslQP/rKs1FsoAY3+rqPyKtRx+ZHR5dAFXyKngg/d0bP3lT1ZE5kfl0zZUtFQBTnSs+dK19lVZ4HkoN4TM7/AG6Z/wAtKtOnl0zy/wB5USN+cs2n+s+eryVBAn+rqf8A1f3Ks4Zk+9P+WlRyR+Z9yoUepk2VZJW8uoHj/d1ddPL/AOudZd071ibQKV1VF5GjqS7dqovP5lYc56EIBPdN93dVKeTy+Xp+/wAyTZ+7qrqM6Rx765ZzOqEDL1nUUt465C61xfMpmua55kmyuK1W+eSPejV4OIxB6lKkdR/aP2iSh4Ek+eOuQsb6WOT53roo9SaOOuHn5jfkCdPL+/WPdyeX/wBc6valdpcR7P8AlpWC8/mR/O9YyNQnu/L+Sse7n8yT5KtTo/mfO+6idLeSPYlRIoyJ5PtHz1l3cf8ArNla91B5cfyVizzvHJ8nmUQLCOd/L+f/AL91agtU8vfs/eVnb3kk+/VqSRreP5HrcCrdb/MqrdRp5fzpuqd5/wB5/eqrPOklXCBZl3SJ5lVfI/ef6yrtx/q9iVS3tHW4D5IPLj+eub1GRI/uV0k8/wC72PXL6rt8yTZ/q6uHxBMxJ3S4j2fdrLu4Ps/zrV67jT958lUUn/0jY9epA8WtAhndJI9lUd7/ALz5/wDV1eex8yT5KgngaOuqBwzgPtN8ckfz/wDfutjz5I4/ub6x0/1kez/lpWp5nlxyUTNKUydH8yON0SStGOPzI/nSs6xn8yp550j8x91cvIehGfuhBskk+StCdP3f96OsVJ45JPlrXgvkkt/n/wDIlRViXSlGRneQ8knzptqeC1/eVqJHFcR/fj8ymf6uT7+6s+c39lTJoI0qGeR4/wDtpUyIn3N1EkaSSfP/AKygc4e6FrB/G9bEEn2e33L/AN+6zo08v7j/ALunz33/ACz/AOedBnD3Rl1qL+Zs/wBqrsM7+XG++sXyPtlxG+/93Wh8kcmyonAOfmOlsd9xJs8z93WpvuLeOTZVLQ9n2ORH/wBZWp5n7uNHrDnNoRLUGy48vf8ALJJWhGnlx73+Ws+CD7P861a895LjypYv3e35JKgZded4441R/wDfq7a3XmVkeenmbHrUh2eZHsoA3rGdPM31qR3yeXvesG1fy6nnn/dyP/zzo5zCcOY0LrUvMj2RJWRfb/vJVWC+lkjk3/LVpH+0R/8AXOs58xcIHNX0fmSVlzweZ8ztXU6qn7vfsj/d1gRxy/vIpYtv/TSmbmRqVr9ot9kTSJHJV3yHs9P3xJ+8qR4H8zYj1N9l8y32eZtqDqiT6VdeZHJvSrT+X5fyVnQebbyRonz7vv1P88kkj/djpTGG/wAuOTe/3V31SeRriON4k3RyNU098n+q2bo6qz3yRx/Im2P+Dy6wAn+yeXb7N26s7f8AZ/uUyDVXkkk3/Lu+5VWSd/M+9u21ZBaSF7iStu0geOSPelHhyPzPvpW9dWn7yPYlYzLH2kiRybNlMeGK8k2v8tPjg/d1Snglt5N//LOsYkFr+x4o5N6P+7qaC78v91/yzrMfUf3exKu2Ozy98rbavmAuoqeZv2U+Sfy/napEureP5PvVGmy8kj/551mZGjaXSfxp/wBtK1LG+/eR1lx2Lx/Pv3VsaVpTyfP/AM86cSJnTx+VcW++oUj8uSoIN9v8iP8Au60YH8uP5fmrsgcRd/5Zx1r6b9nj/wCulco93/z1etHR9V8uSPZ/q60hOPMck48x3kED3Ef3Nsf/AE0og0f7RJ8/+rq1Yv5lvurXsUr2qMInkzmXdG0pLeP5UrbjgS3+d6ZYp9nj30P+8r1aUOU86c+YtO/mVHG9MX/V0/8A2K6jMnSp/wDWVAieZVutjGZXemQ/6yrUlMRPLoGPjqdKhp/mVqZBT0eoPnqSOgOQlqaoaKCBXpiPRRsoLH76Hpmynx/3KyAgjepqKmoAZTKkjqTZW5BD/wAtKjqby6Y9MBlFCUVQE0ddP8Pv+Q5N/wBcH/8AQ0rlK6v4e/8AIZk/64Sf+hpWcvgJOK8Rf8jBqn/Xeb/0OszzPLrU8Tf8h/Uv+vib/wBDrLkrmO+Ax6j8yiSo6CyTzKdTY6koII4/9ZUmyj+CirAf5dM30bKP9ZHQSHlpRRJ/uVnT3X2OSP8A550AaOym02CRLiPej1JUAR/9M6PLp1Nd6CildR/3Kp1pvUHkJ5lBvGQ+B/3dTVT/ANXT/MoMy1GlGzy6gjk/eVO8ieXQZDJJ6zrqRKtO/mR/frLu2aiZ00YGJqs/7ys/z28zbWndQfvKz/L8uSuKZ7UOUNj/AMX+rrH1x/LjkTfW271l31p5lcNYcPjPGPFW+3kkdKxLOT7R8nzV6N4g8Ox3Hmb0rkX0N7OSTZ5lfMVoS5z14TIIIFt49/8Ay0rLvtYeOTYla88D+XH/AA1kXdjF5n3/AN5WE4G0JGdJqssn8UlUp9ReOn6lIlnH8/8Aq656e+SST5P9XRA05De/tXzPv+ZRHO8knyPVWxkST79Wp5/4ErQOQHfzKy75fL8z/WLQ91LH/wCz1VutVSSOlCAEDyeXJVrf5kf/AEzrIedPMpkd2/l7P+eldYFqd1/uf9tKzp5PL8yp0nWP5GqrdI8n3HqoQAqzz+XHUG/9389Mnj/g31V+eSPY71oA+ed7jzNi/u6yLpPM/wCudaH8FZd3I/3Nn7utoGcyldWsUkdUktVuPk/8iVann8z77yLHRHOlnb766jmII7X7PH92qskifwf9+6tfbkk+SoPsv2iPd/wOtIGE+X7Blzz+X5bulWo5Ptkf97zP+WdUntEkuJErXtYPLjjbdXVLlOKEJSkT2Mfl2/8AekqC+3yeZ8lXkR4/MTf/AKyqu/8Ag3/6uuY7ZfDyFGBHjkj3P/rK1Eh8z5E/5aVC8f7zfVq1vkj+elMiHul3y5beP7lMgR7j79XftaSW8eyoHnSzk21gdhPB+7kqeNPMkrLutRTy46fpv2j7ZJ5m7y6IQHzmvHaNJ/tVSvoGjk+5JW3BB5kce2nz2v8A5Eo5vZl8nMYljBLHH8lalr+8k3un7ypI7RPuP/DT/njuNiLWE6oQpGjJBcR+X9nfbRayXtx5yPLtk/gkp8G/y/71PSN5JPuVj8RpM29Jnfy9lw26t6CNLi3+5XNQeb5mzZ+7rorH/R497P8Au6JgRyWrfcRP3lXoEkjt/ufvKup5UkeUSiR/Lj3olQXyGRBPdfbP+mdbdrPFcffeqMf9+mQP5ckn/POq5C+Q1J3SP5KLV/3dYk928kkmz/WVo6VI/l/crIjk5S1fQJcW+x6x54/Lj+f5q2H/AHkf3P3j1nPBJbyb5KCSD+zkuPnf5anS1+zx/P8A6umPfRU97v7RHs/74rD7RrzmddebZyfPVWS6Ty6ZfSXEnz7/AN3/AM86yJp2kjkz8tbSALq68uTZ/wAtKI5PMj2PUHnp+73/ADfNT3gluP8AZ/6aUTNSk7vbx7NlWtOtWkk2VOlqkn3PmrXsbF7Py5X+ao+EyOl0PT/s8f8Aeq7J+7jj3f6ys6CeX7P/ANM60YIGvLf7m2uWc+YAdPMj37NvmVl6lP8Au9iVr30Etvb7KyPIijk+9v8AM/5Z1mOJDY2tvZ/6RcP/ANs6g1DUvtH7qKKtp9Kt/Lj30x7GL+BK0hMRBo/2eSSNHikrrN9r5caRRVzsFr+8/d1sRwN5kdEqpBr2uySOStSCfy46gsZIrOP7lH2uKST5H/ef8846swmbEGmy3n/xFWrWxupPkjT7lZdjqtxHJsT/AFn/AE0rtdGd7iOPe+2t4Q5jimchfWj+Z86VPo1i/mRpsruX0NLyTe71dsfD6W8kfz1tDD+8YfWC7pUDyafGn/POuo0+B5Pl2VkWkbx/cetS1nl/gr3qMOU8it70jek/dx7E/hqBd/mUyOfzI/nSSp0kSOOvVOEmjj/d1JH+7+SoI7tKPP8AM/g3VZBdSp/M/d1Vjkkk/wBmnolWZEm/95Uyf7NVZI/Lp8G+rAseXR5dP+ajZWpzjKKfRsoLI0j8uSpqKbQAPRRR/uVkA9P9ZSUUUAFNp70lAEkdSUJQ9akBUbx1J/BUclWBDTqKKAJEjrqvAP8AyGH/AOuEn/oaVzKV03gH/kMP/wBcJP8A0NKmXwEnF+Ik/wCJ5qn/AF8Tf+h1l1p+Iv8AkOap/wBfE3/odZj1zHYQvTasUzy/MoL5yKnUbKfVhMYlPjop9BIUyhv9XTKAB38ysfVY/MjrU/651C8HmUAQaVu8va9aO793VGCPy6n8/wDgoFyD5KdUW+kqCxrvUEn+sq1/rI/npnl+XQac5UkpiPU919yqsD+XUG5eqPe/mUyN6f8AJVnOQPRsq1sSSoZ4/L+5QOEzHvoKyJ08uSulnj8yOsS+grlmehSmZz1Vun/d1P5lVbq1+0fOr1xTOoxNSni/jrFuLSK4+5T/ABBBLHJWD9ue3k+/XiTl7x3Q2I9SsUrjtZtfs8m9K666n8zzHeuR1bUYo5JEeuGqdlI5e+driPY6ViXECSSfJW9JfRXnybKy55PLk+SuaB3QII98cdSee9v5jb6gvr544/uR1lzX3mVoBPfaj5n33rEurv8Aef3qLu68yPc9UX2SSfI9dMIkTLaXbeX/AHZNtaED/u/+mlYL3nl/x7atWmopHJRyAaPkeZJvep50Ty/loe+S48t5P9XH/wAs6N6SfcetCzLuk8usd/8AWfcrpbhPM+/WQ6pbybKsgzp4H8velVZ4PL/jrR1L/VxpUE9q8ke/ZJRCYchyE8byeZs3VV3t/H5laN9Oln/A1UZ/9I8t3+X/AKZ16UDyJ/EKifvN/wDz0/5Z1aT93H8//odGm2vmf9s6tX2yOSR9n7uq5jaMPdMuSP7PJvarsd2nl7/7lZ3/AB8Sff8A3f8AB5lXrRP3nyfNWhjAe8H7v7R83l0+COK8k+R60bqNpNPmT939yodNsfsdv8yf6us+ePKXyS5ipPH5cfyLSwbf3n+r8yrN9H+8rPgjeOTYlXH4QlD3jatNlv8AIlMu0S4+5UEe/wAvfUkd2kcf/tOsDfnKP2F/tEcWzdXRWKS/aI/kb+5+8qPTpPMk3xIqyf8APSt6xgfy/wB7/rJP+WlRzlwpl6xsUjj3b6LuBPMjdvlq0myPy12VBJAkkm93jWuWczt5Cq8DySSfxR09P9X9z95UkiN5nySfu6EtPtHXzP8AtnSAmrRtYH/j/wCWdUrWBI444n8z/YresYEjj/vVJAWv+jyfO/8ArKm1y+aOOFE/5aUPH+7qHyf76bqz5zbkNTRtV/d+U6Vaku/MkrOSOKOT/potWv8Aj4k2VvAcYcpPd3SW9Zc+pPJJsRNtan2H7R/zz8uprXSoo49/3pKiZHMZem75I5ndP9Z8lbenRy+Xs+7/ANNKqwQP9s2Mn7vd8la8H+r+5WHIZlW+n+xyR1S1Kd/L3olXbpPM/g/eVS1F/sdvsk/5aUfAHIZFj+8k+5Wh5fl/I/mVWsY/4/8AlpWn5bXEdYc4TKV3Ikdvv2Vg6rpv2yTds2/LXSzp5ccaVl3c9vZ2/myPI9EfiL5vdOd+ypb/AO1U8m7y4/nq7fOl5H8lQwad5n+teu0DU8MWn2iSR3SuontfMt/u1l+HNlvHsd/3ldDO6SW/yV58wKWnWn2ySR3/ANX/AAVuxxpHHs/551i2LtZybET93T7q+fy/v/vKxiBJqt3/AN+/4652dP3kdbcf+kR72qrHAkcn3P3f/PSs5AXdO2SeWkr7a2P7DS4j3xPurnb5/s8cfl1seH7q4jjj/wCedUQPgsfLk+dNtan9m/xtTJ77zJKu2j+Z8kv+rpkECb//AB2pNOg+zyb9m6SrMGzzNlbGnSW8fmVvAzmZ3/LxH8ldlo0/+rSuekvopJNmyteCf7PbxvW8Pdkcszs4LuKOOPfWnayJJXll1q0sda/h/XJfM2b/APV11QxHvHFOkemxp5kdT2L/AMNVdNn8yPd/fq7An7yvdonlzNe3q8kdVLX7lW469GB50x/lx/3abUtFbkgn9yn0VJ5dBAeXT40pfLp9WZB/q6dRTa1IChHo/wBZQlBY6iiigBtHl+XJTqKyAV99JU1Q1qAUqUlTUAOp/mfu6ioqyApslOooAhoqaiqIHf6uuk8A/wDIck/69n/9DSub310fw9/5DMn/AFwk/wDQ0rOoM43xA/8AxPNS/wCvuX/0Osx60/En/Ic1P/rvN/6HWT5lcx2D/wDWUUyn/wC/QWLJ/rKSijZVkh/rKN9GymSUAFMeih0oAj/4BRHukojp1BQVFsqf/WU2gkr+R5dWko8vzJKKBc4PUH/PSp3qB/8AV1AyrdfvI6peXWo6VVdKDphMIEby6mSD+OhM/wAVG/8AeUGYf6umSU95P3lQvvoAqzxv+8rLvv3cdak89Ymoz1yzOukZc7+XUEjp5e+pHn/eVRn/AHnmV585noGXrKRXkf365G607y5PkrqLtHjrLkdPM2PXjVTqpGJPY+Zb1ymsaMn7x5U2x16FvSSOub8TQJJHIm6uacDrhI8o1Cxit7iR0eoILfzJI1Z91WtRsXjkqlAjxyfcrmO2AX1qkknzVkajaRSfIlbdxUD2iXEdKBtznLvYxSR/OlRpYp5f3P3daM9r5ckn8VQPsjrqgBkXUH7v5P8AWLVLyPMk+5tjrang8yiCx8yT5qOcOQhsYf4WatSB1s/4Kq/ZPLjkdP8Av5Ufzyfwf9/KYF6d08velYk8/l+Y2ytT5vL+7tq0mlJcRxs6R0ucDnkR7yTfs/d0++RfLk+Stu+gS3t/kSsSeBvvv/q/4KoInG31r9ok+5uqCPTW8v53210X2RftGz73zUXWmpb/APbT/lnXdCqcvsSja7I7fZ92qt9/q5N/y1eSx8yT918vl/8APSo9S064jj3/APLOtIET905Sf/Wf9c60bGR5JKjjtPMk/ep/wOp40/efJXVznFH4jbjn8upt6eXI/wC7qGNPMjp8cHmR/I9cR6ESrd/6vfsqrvT7+zbU91J+7+d6o+Q1xHIlbQMZjJ9Se3uP3VMg02W8vN+/93V2007zPk2fu463tNsfL/7Z0c5EIcwzTrX7PJGlb0e+OSo4NK/d76n+y+XJHsf/ALZ1ib8si6m/y/uVJs8yP50p6b6n8j/V/J+8rnOsox745JPk/d1JH+78yXd+7q69ilMtYEkk2VMRzJoLV7j59n+srRjtZbeT5P8AV1agjfy/n20/ekf/AFzrOYQCxg8z79SSRv8A3KIL6LzPnp8k6SfP/wAs6IG8CrYx+ZJ8/wDq61II08yqWzy5Pv1NHI1nJGa0iWWpJ/s9SQT1BP5Uke9Kqpvjk+Z90dROZkdCkf8Aq/k/eUSSeX5m+iCfzI43amainmR7v+WlUZDEnS48v/0ZWP4g3+ZG6eY1Mtb6XT7jY6fu6fdTreSb/wDln/BWMwJLH/Vxs3y1oP8AvKq2kaeXU/yRx/PXMRMztR/5afPtrBvr5I4/L2bvLrbneKO42tWRrHldq6YAQQRpJHHL/tfPHU898kf3E/1dZX2hvL2f886vWKfbPm2VEpG8IGja3Utx5b/dre05m8vZL/rKo6Va/vPkStueBI5I3rOYp+6HlvHVWd3uJPm+WtSxtHkk+Sp7vSn++/zVymJgwSPJ5cSx/wDfuteDRkjj3u26SoPL+xybtn+/WxHfJcW9AGI6J9o2bP3da6TxW9nGqVnvB5kknz1Gn7uSRHoILST+ZJsT/WVqWrv5fzpWRpsHmXGyP5q6tLR7ePZt3UBMIbRLiP79Wkg+zx/9NKZAn7z560Y4/M+/W5IabAn361/MSSP/AKaVkT7LeP79QPqvl/JG9Rz8pz8nMPu4XrR0O0f7Rtqfw48V5J/pFd5p2h2/mb1TbXVh6XtDkrT5TX0NGjt4w9bcCVRtbf7P8laPz19Xh4cp4M/iNC3q9srOsd9aiJXowOKoPpn8dPkqF5PLkqzGBPuqZP3lVUq3HQMelFFFWc4f6yimU/8AgoAdTaKK1LHUUU2ggKdTdlP2VkWJRRRWoDf46k/5aU2lSsgH+ZR/rKPLp1bkENSf6yOh46Z/q6sCWim+ZR5lAEldF8P/APkMSf8AXCT/ANDSudT95XS+A/8AkOS/9cH/APQ0rOXwgcT4k/5GDUv+u83/AKHWRWt4i/5Dmo/9fcv/AKHWZJXNM7YD40oqSOn7KCOcZHUlFJvqyJg/7uoHq1UMn+sFAQIPL8umP+7jqZ08ymeX+7qDQq76fG6SfwVHViNKAHolElH+rpjpVkAlD/6v7lH+rooLI/LqTZRu/eUUAQPVWT/WVPO7+XVF3qDaBJ+88yjf5cnz0RvU2zzI6DQqvP5f+1Q86yVDPA8f+rqq8jR1AuUfdL/crEkR/MkrUkn8v+OqUm/7yVyzO2kZd3Y+Z89ZF9I9nHveuo/1kdYOsWL3HmV52IgdUJnLya5/AyVl3zpcSR7KNRsZbe4+WiCCT/tpXizkd0CrPO9vJ8lc7qr+ZHu8zdXWX1inl/erk760/eSJWczpgcbqr+ZJ9yst43jj+5XUPYpHJ89MnsYo/nrmOs4qfd/GlVX83H/LSt6eDy5KJ9kdvVQLOXkjl/eb6zp38v5N1dDPA8kclZ89jW/MXEy9/lyfvW/1dP8AMeT7j1O9r5cf3azpvM+4jbaZpA0dkvl/8s2/6Z1A8b+ZHvogjuLf599Pef8Aj2fu6Bk/mJJ8mz93U/2tLOP5HqrAnmR7922o/wDj3+d/mrIUgvLp5I9iJ/2zrLkfzPketRHikjrLnkkjkkT/AJ6Vr7xmVZLT+NPlqGbfHH/erQST/V1V1FH+4j7Y6UJ+8XIqvOn2f/lmslSPrFxcaf8AZ40VYf8Apon3qqvprR/PvqZIPscex67ufl+A5vZc0jI/s5pPnp/2GK3j+f8A8h1oz/vI9m/bJVW7/ufu/mq+czlSIHnSP7klQ2l1LceW+z93T0TzLj79HyW8exH/AHkdWR8ISR/aKekH9xI2ogga3j3P/wAtKng/dyb0/wBY1WYTmWrSDzI99bdjY+ZJ/wAtKo2Np/Ej/wCsrqIIPMj+5+8qJzN4QC0j8uP5vmokj/iWrSQPJJsqF4H8vZXLM6oEccf+xU6T+Z/B+7p6R+XHHU8Dpb/8s/u1HOXMnR/tEf3Ko+Q9vJv3/vK0Y53k+5U8ED3H8dBBBaT+ZJt/5aVakT939ynwaakcm9P+WlXvJ8uP+7/fomXA5OSd45JNtWo7vzJNlWr6xT76VSjg8uTfWHObwNuD95Hven3z/u4/n21Vgn+zxyJTLt/Mjj3t+8plkcl3Lb2/3/8AV0fbvLuPn/1dVb545I/ubvLrL+aT5N/+r/55/wANBkzubS++0R/I9Xftn7v7/wC8rB0pP9H3b6ZPqPlybKDIu306XEciVStUf95UDyNJb/8AtSiC7ePzIt9ZzN4nRWjp5cfyf79WXu0/dotcp/aUvmbNjVo2tu8ke93rMwnANY2XEdc9BA/8b/8AbOtq6Ty6hW1f7RH8n+5VgPg8PpJH89T6PafY5PKZP3dbVr+8j2Vn3U/lyRsv+soNITN6xtfL+f8A5Z0+T95J9yoLXUori32Vag2+Z/0zrGZnOZPao8cfyJV2e68uPY6Vbg8qO3+SsrUdSikjkRP9ZUcpiVZ/9Ijq9YwJHWPpV9+82PW9HsuJNiVmBJ/ZX2j5/wDnpWPJoz/bJFfzK6i1k/d7KJIPMj3/APPStJwM+Yz9Hgis5K6H5PvpVJtK/dxvU1qiRyfPWcSJmjHB9o+4m6rU8Hlx7E/5Z0/ToP3n7utSTTftEddUIGHOcbfb5PMRKyHSWOSu/wD+EceSP7lSQeB5ZJKj6vKQe2jExPD9rL5kP/PSvV9N328cbun7ySqOh+FUs497/NJW3BH5kle3gsP7M8vEVfaGvYx/aI/n/wBZWjHaVSsdlakcySfI9e9A8iYQI8clXd/7uqvl/Z5KeldRhMnSeiSPzKE/eVa8urMfhKuyrqf6um80iPQHOSUUUVZmEdPSmR0+tSAehKKdQA2inUUFknl0PHUiVHJWQEdFFFABU8f+rqCrCVqAUU//AJZ0x6sgbTXjp1OSqAg2UlWJE/uURpQQCV0/gD/kMSf9ex/9CWuYrp/AH/IYk/69j/6EtZ1BnD+Jv+Rg1L/r4m/9DrLrW8S/8jBqX/Xeb/0OsyuY64EiR1NUVS76CZjaTZT6HqxhTHSlpz0AVaZJJ5dPemSfvKAIHn8ySpEnqN0/eVJGlBYfx0/zKESoJJPLkoAk/wBZRUfmJR/10oASl8z95TJH8uOoPPqCuQtSf6sVl3f7urXn+ZH8lQ+X5km+g3gVE3+ZV6P/AFdM8inon7ygYy7f9389Y8+6tGf95JVV0rIUTO8jzI91SR2r/wAdXY7RKnnjSgvnMt4HrOu4PMjroU/1fzVSuoE++lcc4G8Kp55qli/39lZHkPHJXf3Vqkn8FYOq2qRxyb0/d14NalynbCqcvfTp5f8A00rl7795JJW9fTJJ5iJWRd2jyfMlefM9WkYslilx/rKyr60aP/rnW3JBLHH9ySs6eRPM2M9YnWYM9qnmb3rMuk8v7n+rrpJ9lxHs/wBqqT2LyRyJUGsDEgT+B0ontE8vYiVsfYYreP56qT+VVlmXHGskmx4o2rI1nTk8vfE9bbv9nkk2JvogsXvJPNrUJSON2Sxx7KJ5/LrtdV0OL7PHKibZK5Ce1eSSTYv8X+rpxLhMZ9qSOPZsqld6j+7/AOmdaE9r9nk+ZN0lQ3EEVxH8yVoRMxPtb3H+qqeBZZI/n+anwQ/9+6tfakjk+5WxkT2Nikfz7/3dF9pXmSb0qOS7/hSh9RSP5N+7y/79YchrzlXyGjkrLu/3fmVvJ/pke9HrLn06WSTZ5VbwIn/cMiCO48yR32LT57RPL/1v/furUkHmSSIv+ro+zpbx/P8A8s67fdOL3ylHB/Dv/wBynwaVJ9/ZurRtbRPM2fe/6aVPdQPH5ib91dBBnfZPL+/8tQRukkkiJ8slaifu45GdN0dUkgi1CSRE+WaP/lnVGEi1pzfZ5Puba6ixf+Os7StNe8jk+0JtkRf9ZWja2P2f5K4pnZSNR5/Lkj2f6uT79PeRJKh8jzPLT/lpVqO0/d/3q5ec7uQgnk8uSNKfHB5ke+od6XEn3JPMjq0knlx7NklAD0jfy49ny1asf3ccf8VVY/3lPgnl8yNJIv8AfrCcw5DU8z/gNTpP/t1lyXaRybPu1B/0037fmrD3pSNS9qW+SP5PnrLkkkt4/nT/AFlD337zZv8A3lUbqfzJN+z/AHK35CoSJ4PNkqSf939991R2MiRx73+XzP8AbqG7/wBj/WUyw/e3En9yprXSnjj3/e3VBH/y0qexvvsdvsT5qDGch/mPHHt+7/BUMcb+Z96o/P8AMkkq1axpJJ97dQZk8afaPk3/AOrq1HGkkcj/APLTbVWOD95U/wA9vJv2VgXIjjjeOT5KvQSfZ49r/LVqxkS8jkd021BdW8X3Ef71ZzgPnJ/kuPk2VVvoPs8kbo9QWN35dx/10q1d2v8ArpX/ANXJVwM5k0Gq/vNlM8vzJJKyLFHj1Dfv/dx1qP8A6zZ/s0TAIJH8yteCd45PM/5Z1g+Z+8rY01HvI5NnyyR1ykTJrvxH/wAsk/1lYv2uW4uJHketpNAS4uN8taM+h28ce7ZV8xBkWMfmSR7fM8yuhgjeOSuUedo9Q2fdrtdJgaTy6mIpmpaQPHJ89bafZ5I/v/vKoz7PL2f8tKwX82OT5PMrcx+I2L6+fzNm+n6b/pEfyf6ys6CzluJI32V0ulWiW8m96gPhLWlTv5mx0rq7SD7R8lZ9rHFeSfJW9BaP5fyV6eHgcUy1Y2tbUENUrGF/Lj3/AOsrUhr14UuU8ucx7/u46LWCh/3nl/71XbWD93XVCBwzmEdXo0qHy6s29dsIGMy9/rI499CR0Qf6vZ/do/1dbmJZjqTzP4KgR6fQZzLFMopHjqxklFR+ZS0GRNUfmP8A3KZs8upI61AKfvoSisiB1FNenpQA/wAz93TN9G+kqCwpXpf+WdNqwG1NA/7uoafBTiBapjpRT/8AlnW5iRUU6jZQWCU+imVRA+uk8Af8hiT/AK9j/wChLXMV0/gE/wDE5m/69z/6EtZ1BnG+Iv8AkOap/wBd5v8A0Os2tPxD/wAhvUP+vib/ANDrMrmOoKmT/V1HHH+8p6UAMeh3oemSVYD99Md6WonoAY70eXTKfHQWFPpi/wCsooIH/wAFQulP8z93RJQKBV/1dMp70eX5kdQdJVm8zy/lpkCPJSTo8cmyp4P3dAAlosfz1Jsqby/3dDx0Ec5V/wBXULz+XT53/d1S8v8Ad0G8C18lx5n/AD0qB7Vo5Kj8x4/nqSO7qC+Qnjj8uPfUD1On7yo3SgkqzOkcdUnq1N/q6q/8s5NlYTNoEF0ieXXDeKvNjjk2V20lYmqweZH86fu68vEQ906aXuyPM9Nge4uNj1qXWlJb2/yVNdQJZySOlVZNV8yORK8HkPUOX1mdvLkSuNn82SSu21W1+0SSOtY8eleZJvrlmd0DF8v7PHvqD7c0cn3/APtpW9fWP7v7lYL6VL/AlSbk7SRXkfz/AOsrEukWOOT+KttNKlj/AOudQXWjNcfJVhznNQf6RJsSussdOS3j+5UFjpX2OTfKn+rq9PfJHHRAOc5bxHfeX5ka1zenOkcnz10msIlxJvaueng+z/O//LSrNoDL5/MkqjJA0lalrAkke/71WktE/uV1Ac3PYtHHv+9/wCoILH93vrqL5E8v7lYN1vjjkRPlqyDPu4/s8nyVnSQPcSffq1dQNJJHQ/7z5P8AnnVEFrS/Njj/AHvy1M6JJuffuqqkz+Xvf/Vx1JayeZHvT/lpR7wozM6f/R5KztSklkj37P8AtnW3dwf3qz3077ZJG6bvMj+/XXA5qsB9ojx2/wDdkkq1O7R+X8m6rv2X/Wfxf3KZ5NHOXCBAjfw1BY2KfbJLhVkbzaksX+2SSR7f9XW9aQJHH9yolMIw5ibTvNs7fY7/ALurzzpbx/OlEH7uOh4HvI43es+U2gPgn8yPfsoju2kkjREoj/d2/wD00osXSP5q5ZnYaKWKf9tKfGiSfPTPMeSOSqL3aeXHEz/6yoiZTNF38uP7m2suO6/effqe+fzI/lNZb7I/L2PVwI94LrVYvMkRHofVbfzPKll2+YvyVj6jP5cf3Kpfa0kkh+TdJ/z0p+6EuY6Ly0vI/n/4BJT7rf5f3azrHUn+5/5ErRsYH+z/ADt58lY8xrAfBB+83q9TybPMj/2/+WlTpA8f8FTWkaSSR/wyVmbBPp/2jy0T5Y5F/wBZU/8AY0VvH87fvK0JIP3e/fVLVU8uP5P9ZJVHOZEkHmSfIn7uptKjSOTZUP2p44/71Fj5skm//vig1NC+g8z7j/vKY/m28ce+p0tJfM+etqe18yP7n7zbUHOc9BqUtx+6RP3lQSXV1byf6Qn7uui0rSUt5N+yoNWeLy5Ef/WfwUTkBl8yfP8A8tP+mdP/ALVlt49j0zTb5I5NlUtR33FxvSpLLtjHL/rdn+srXkgl8ve6fu5KPD7pcRxxN/wCui8hLeP/AJZtWc5kGDBB9s+4lb1ja/Y+d/7ysR5/scm9Knn1l7j5azA1NRunt496f6ys5dceSPY/meZWdfal/q/npljI9xH+6StTDlLVjH9ovN/7v941eh6VD5ccdcvo9qn2f7m2Suktb7y/3aJupQCZoz/6yiSNPMoj/wBX8/8Ay0q0iVoY85atHikj8rZU8ezzNm+prS08yPpWLPvt7j/ppWpB2uh2LxyV19pA9YPhX/SLeN/9muygTzI69jCQ908urMfHBRHB+88yrscHl1JHGnmV6kIHDzlVI/MkkersH7yp/sqSfc/1lP8Asjx11QicswSp0qNIKtRweXXUYTCCTy5Knkj8z7lVUSrsH+r+agkESp0jqOOpPLoM5kkdFFJ8lWZjPL/uVJ5dJ/y0qREoAKKHooICinU161LChKZHUtZEC7PMo2VPTaCyGiipqAK+ynpSUscf7yggtIlFPX/V1LW5BX8un1LUVMBlFFFADK6fwB/yGJP+vY/+hLXN10/gX/kOTf8AXuf/AEJamoM43xF/yHNQ/wCvmb/0Os2tLxEn/E81D/r4m/8AQ6z6xNRjyfvI6f8A6zzPnqGb/WU+H/WVBqDpTasSVFVgV6HqfZVWT93QVEZsoejfSfJJQMZHukqdNn8VMT93T6ACSmPT6qySPHQVAH/eUv8AyzqP5qe70FjJP9I8xKIIGjqNP9Zvq1veoAPM/eU6imv/AKz7lBBC6eZ9+oJ4at/8s6gkoNIGc8HmSbN9R+R5f8dWqhnf93QdUB6T/u6fvqraSVO9BnOBVnfzKqp/y0+er32f+P8A5aVUn/dyVyzNIFW7jrLu9kke16valJ5ccjV5/rniN45NleXiKvKdtKHMT6lpXmeY6PXL3VjLbyf8tK1IPEfmfx0/7cl59+vInyyPQhzROe2vJ5m9KY8HmVqX06eX8lZc0n+xXLM6+cjktP3dUrqx8uPfvrRgnby6gvt8kf3Kz5CjEuJPL8umR/vPvJRP+7k37KpXV15f3KmRsWrqP93/AHq5fUtlvJJWhPrL+XWRdyPcVRRVnrLvoP8Aa/7Z1qRxvJJsenz2Pmf9c6DYxbT/AEePYlXU8yT5Hej7L5cnyVowWv8AfTbXVD3gmZ3keXH8+6su7gTzPuV1c8H7v5ErBvrH93vp8wGDPB5f8FZF9B+88xP9ZXSzf6usufZJ/wBdKsgx/Lb7PsdKE3W/lony/wDTOrzx/wAeyi1jS4k/6aR1tzmM4D7W1e4+T7tbdjo3lx7PvSUaVatJJXUfJZxx/wC3Uc4HKXVj9j/j/d1BPB5ke6KuovoEkj+5u8z/AJaVnf2av2eSKL/v5Rzi+I56xtX+2SfJtjrUj2eX+8/1dPgg+x/ffd5lHl/u/uVqaEE98n3IvmkkqeOd44/+udUvLT7R5qJ+8p7v5n3KcpBCBO91+7+eprGP939+qSfvK0YP+Pf7n/bSsDYmT/WffqG7gWOST56en7v79Pu40uK5w5SGC48yP56y7793JJsenv8Au5Pv1SnkeSqgBV/4+JNtWrXSv3nm1A9i/wB5PMWt7SrR/M3S/wCr/gpkFWOxSO4+WrqP/Z8ez920n8dK/wDx8b/vR0l9/pEcmxP3klQb8pJBffu41SrvlvJHvT5az7HyrOOR5PlkkrTtLtJLeSueZoT2t80fmI7/ALuoZJPtklZzyeZJWvpsaeZHvqSCklq9nV3TdO/j3VtzwRSR7/3f7yqNp/rPuUGReS18ySt610pI443f/V1RTZJ5ex60b7Uvscf/AEzoImUr6CKzjk2f6uuTuoHvLj5ErqPmvLffTP8AR9Pk/e/6ylzEHIXWlSxyfcqS00N7iOTfXUak6Xlvvt3/AHkdYNjrH7yRZf8AWR0yyCxtWt5I4kf95W9BBcW8ke96yLG6/wCJhv8A3bV1Hly3HlvsrnIKL6U9xJHvqrrlilnHHXWQPH9n+f8A1lUdV2Xkfl7K3hAz5zg47GS8k+au20HRvLrLtbVPtmz/AJZ10NrN9n8tFqJ+8QWrpPsf3Ep9jA9x9+mXTvJ5e9Kfve3j+SmI0ZPNuI/uba19KTzI9j0zQ5/7Qs/m/wCWdalrB5f8FawhzGMzX0618yoZ/DH2i4/4FVrTZ3t5K6uxjS8+evUpU+Y4pz5R+j6UtnHGmz+Gt60T95TIIKtRpXr0oezPOnPmH+Z+88up46ZBB5clWtn8FdZjMjjk/eVeV3/d1VggbzKuwJ/A9XAwmTxxpJ97/WUOv8FP/wBX89Md66jlmDx1NH+7jqru/eVo/u/LjoGMjSpKSOpPLqznCiiiOggKlptD1qAUJRsorICT/lnUdG+mUAFS1D/y0qRKCyaP/VmmPSVNQBDT6ZRWpBNTv9XJUcdT+X5lAD0qWq8dT+Z+7qyCN6ZRJTKACim05KAHr/q66bwP/wAhyb/r3P8A6Etc5XS+A/8AkKTf9cW/9CWpl8BEDkPEP/Ic1D/r4b/0Os6OtHxD/wAhzUP+vhv/AEOs/wD650jpIHSnolMf/WVP/wAtKyASmPUm6o3rUCF3qN6HorI3Kvl/vKnookoGHmJTN9CVH/tUASPUD7JKlpuzy61KI6bv/v1Yqu9ZDgPg2SVN/uVDBs8un+ZQKZJUb76PM/eVJvoAiqKT95U0lVZJPLoCBDJ+7+/WdO/mVdk/eVC8FQdUCrA/l1aR/Mqq+6OT5KfD/q6DeZPO/l1Vk3SfwVNvTzPv0b1rkMTF1WN5I5Erx7xNBLHeSV7ddx+ZHXIeIPDKXkcnyfvK8nF0ZSPTw9XlPJUdo5K0YLt/+elXbvwzcfaNmz/tpU9r4cljk+5Xheykep7SJnSb/wDlo9M/1lbd3pyeXs+7WO6Jb/IlKUJDBIP3m+mTr5cclPSf93sqld76zLMHUpP3lYN3vk8xK6We08z71YmqwJHJsqJnVAzkRI4/neqUmyOp3g+0fInmUR2P+s31JZnf6uT7m2Op/tfmVoPB+7+Ss+eFvMrUstQWaSfOlWp4Fjj2VnWk72/36Y+q/vK66Rjzmo8Hlx/frBvp08uRPm/7Z1NPqXmR7ErFu3arCBVneqr7ZI9m/bJT538vzP4pKg2J9/8A5aUF84x4PLj/AL1VYIPLk+5trReN5JI3p6QUETNHSnaOT5a7KxgS4j3t/rK5fSoEj+d/9ZXQ2N8nmbEomZzLs+lRfZ9iCubeB7eTZ/zzrqPP8yTZv+/WDrEnl3Hyf8tKxCBg31pcfvPn/dyfcodPLjj31oRx/aPk/wCWlUtRmSzkjSVd3mN/q66YGhV8h445H2fu6Njx1PO7ySf8s1j/AOedG9JI6jnLgRxwPJHU+1o4/k/5Z1o2saSRxrT7u1Ty/vUc5ZiT77iP5H21C7/+hVo+R5dxsf8A1dZ11vuI5EoAo33myR/JVWOGWST53kq95Dx/9c6tQRpHUc3KHITQJ5dnGjVPA7eXIlVbuf8Ad7Ep+lQPJHJ8/wC8rnNS1Jst49n3qrXzpbx/eqbZ5fyf8tKpSf6yT5P3m6gCq90/mfckq7Bff6tqq+R5nzpWvY2P2iONNn7yonMBlraeZ89aNpC8kkex6e9i8cfyVBBvjk2VEiZTOiksZY7f5qq/6uTdWvp07yRx76ffaOnl+YlSY85SsbtLj+DZV35LyTZurI8h7PzP4az/AO0Xjk376XMXyHYpsjj2f8865TX52+0b/wDyHV2x1xLiPY9T3el/bPnesyDlLS6uLeT5P+Wn36talYvH+9T/AJaVMlqlvJ9ytiS0S8s40Q/9s6vmLmVfDlj5kke+u/gtE/dpXG6day2cmx66iCeW3jj/AIqmJhMtJa/Z5JHRN1MutNiuI/Mi/wCWlaFjOlxcbP8AnpWxPpSfZ/KT+GuyEDz5TOD/ALOe3k8z7tTadaf6Ruetu7tZI5NjpT4bV5I/7tc3Ibc4PBFJH9zdU9rYpeW+yqsaNJJs/wCeda/9nPHH5qNW0IETmXtAsUs49ldJY2KSSeZWLpUD/u3rstOtH+/XdRgcVWYf2PHcSb463tK077PHU1rYpWxBAkde1TpHnTqhHB/BT02VIv8ArKjkr0OQ5ecfHH5n3KtJHTLSOrsaVpEicySGGn7KE/1lPStOQ5ZzDZVV6vbPMqP7K/8AHVkkMEfmSVdf9392mQbI/u1JQA+On+UlMp++rMhklFJ/y0+epKCBlFM5qagsEoeiiggjf93TPMqfy/MjqGg2iPp/+rqNP3dSUED99JTadQBNRRTq1IG1Kv8Aq6g8up/+WdABR5lMd6jR6sCSim0UEBTl/wBZUcdTx1QD66LwP/yF5P8Ar3P81rmq6LwP/wAhaT/r3P8ANac/hJOS8Rf8hzUP+vib/wBDqnsFaHiH/kOah/18N/6HWdJWJ0DHSrFV3/hp9ZASSVC/+rp0lQvWpqQPTPM/eU96ZWRrAHemb6HqO3oLJP8Aln9ym1L5dMetSBtFNeOnVkAyop5KsVTnoNIElp5dPd6ggfy6n/1lBoJSxyfu6PL/AL9PRP3damQ3/lnVGd2q69QOlZTHEqv/ALFEkfl0yeTy/uVB9r8yoNBk8aVH89T7PMpkkfl0TKhMgd/Lpib/ADKHj/eU/wCSsjYk3eZ8j1BdQR+X9ypv9umeXWUyTInsYvM+SqU8EUcda8336yL793HXFOETqgYN9AkkclcnqOleXJvSuou9Rij+Ss/7dFcfI6V49blPQhM5pl+z1BJH5lbd9Y+ZJ+6qrBpTfxpXn8h1c5gz2j/cSs++0aWSPfXXfYY45PnqrfTxeXROBpCZ5zPA9nJTPMe4j+f/AJaVvarAlxJ89UYE/efcrCUDoGQWLxx/OlQXUCfx10qJ5cf+rrO1G08yP5KvkJ5jl7v93H8iVit/rK6i6tay5LFK6oBELFIriP50qCSxi/jq1HH5clQah+8k2JUm5l3Gmp/B80n8FZE+nPJ/erXn3xyR7P71VfOfzJInT/brYghgj/geiR0jkqZH/d/PVWf95JH/ANM6ANiD95H8j7amtYHjkjrItbry5NiVt6dJ9ouNlUc50Non2yP5P9ZVXVbFLePe0n7ytGCeKP8A0eP/AFka/PJVW+j+0W8iVkbHO/bvL+RE2x/89KzLr95Jv/2qu31p5cmzfVW+tX8urlMqEDnbu6uLi4kRPljjq1Yzy/u91SSRpJRJH5cdBZqf2w1vUf8AwkDSf8865C+upfMplpO8lE4F852325LiPdVV5/Lk2f8ALOsuxkeSOtSSBPLh/efvJPvx0QAPM+0UfP8AvETzPM/56VHaf6P92p/9XcSP+8oNIEEkb+Z89WtNuvs8cif89Kq3f+skZKZBv8z5qgz+0Wp7v95VLe0klR3bv/B/rKk8z93WHIac5dtNkf8ABJ+7/wCeddLYun8Fc7pt0scmx/8AV1qWN0lvcb1/5aVnOBnOZ2VraJcR/wCrqr/YaeZRp2qp5f8A00qd77/SNiJ9+siC7pVokfyVo337uP56q2MyR0+6f7R8m+rIMi+tPMt5ErkL61eP/tnXofkfvNlZGq6V9o+T7tc5tCZxuk75LiOu1keSOONKg0fw+kcm93rYeNI4/wC9HWpE5nJ3aeZUME729b0+lfaI/k/1lVf7K8uT56yLgaGlP9okj3V1n2VI49//ACzrmtKg8uSNErtbGBJLfZvrSkcNUn0DSnuLze/+rj+euyjtUuI/NSs7Stn2eNE/4HXS6baJbyR/Pujk+/Xr0oHmVZmDdeHPtkfyJWXP4curP5Nn7uSvTbe1+x+YmypngSS3/eJureWF5jD2p5np3hj+NlrUngit7fY3l10Pk/6zYlc9qNq3mfJWcqPswhV5i1o1r5dddY2Pl1g6VYv5cb11+lJ/o8e+urDwMasy1BB+7q7GlCRpU6V7cIHEM/1dPSBJPnp7wVJGlakBAn7yru+qtTx1rAzmLUqUxE8ypqsxGUO9Mem0CiSo9Wv+WdQwJU9BEwjqN99H+rpm6gY9HqSq8dSO9BkLU38FMorUAko8ykeP93TI6yAnhodKESigBlP30ySo/MoAn30if6yoUepK1At0VElJQQSeZTqKKAIafSyUxKAJaKdTaqBAVLTEp8dWAV0ngD/kMSf9ex/9CWubrp/Av/IYk/64P/6ElZy+EZyOvf8AIc1D/r4m/wDQ6zqu69/yMGpf9fD/APodUqRQz+OpP+WdRr/rKfJS5Sxj1FTneoN9ZmkApn/LOjzKH/2K1NoEHl1Iv+soSn0Fj6ZJRR/q6DIZRQlD0ARyVSuKtO9UZKyOmBJb1PsqOCD93VpI6AmCR0//AG6Z5iUzfQZk+/zKjf8AeUfPTqCTKuoPMqi8HlyRvW95HmSUfZI6OQvnKtpBVKeD95JWv/0zqlP/AMtN9YhEx3T+9TP+mdWp/wB3JUHyUHVAE/1f3KY/7uOkqGefy46AgVbqT95XPazd+ZHIqJW2+64rOng8vzN6V51Y9CB5tqU8tvJJvSstNReP+P8AeV1esWiSSfcrkL6xeOSvmK3xHqUuXlNjTr55JNj1r+f5cf3K57Q7R/MrrnhXy/nqoQMZHPajO9YLxvJJveulvrFPM31lzp/AlRM2gY89p9okqRLFP7lXdiRx/cp8cf7usTfnKUkH7vy6pXUDxx1veR/G9Ymqz/vK3CJiTwJcSfPR/ZqRx/JVryPMkq9PaeXHQXzHGzxvb+Zv/wCWlZEkj+ZXT6rH+7rkL6Ty5Ks05yf5P40rPutkcn3qtfaP3f3Kx9Rn8uOSXZSgBO7+ZVWR/wB5/wBc6ggn+2W8b/8ALSh3rQBm9LeTf96uh0q+SPzJU/5Z1yk6eZJt+X/tnWvaR/Y4403/AO29BnyHU6bdP5km/wD1laH25JPv1yiaglvJQ+o/u6wkb8hdumSS8jffRdP/AAViPqvlySVVfXPtEkmynKHMEZcpPHv+0SO/+rqe4tHkjkp9jP8AaI496fvKuvsk+aqgWcPdQPHJIn3qfYweZJ86Vt31j5lR2Nj5cn3K05w5S1a2qRx73qf/AFklWvIXy4/4aYkP/TP/AFdRGYEEafu99Mnk8uTfVqSN/L/651HPAkkcfmVnOZpApb/Mp/8Aq491MnjSzjj8xtvmUSRv5dZjCOFLj7lP+yeZ8m395VrSoPM+etS3ji8yp5wKUGm/u/M2Vdg05PufdrbtY4vuOlVXfzJJI0/5Z0p8wEHn/Z5Nm6ul0r/TI/Nfy1rnnsf3laH72O3j8qsjKZ0qbPM2UzyH8ys7SruXzPnStH7VL5klKZBdgTy46nvtN8y3jen6an2z53rUu/8AV+Vsq4QMOc5B90f3akg/0j90a0LqxeP/AFdGnWqR3G90qJlEkGnfu6o6jpX7ytuefy5Pkqk8/wBok+emBlwWMsckexK6jRv3cfz/AMVP023SSP50rRgg8uSNP9qtYQOOcze0aB4467K3g/1b1j6VB/q66iCD93XvYeHunl1ZEifvI46mSCpIIP4KtfZ69GEDi5zO/s2qv9jpJ95K6WO0/d1Mlon8dX7HmI9qZFjpvlx/crUgg8uOp0gSOOoHn8uSt4UfZmfPzE8n7v7lTR1DAnmVdRK3IkH/ACzp+yijfQYjJP3dTrv8uoHersNWXLYI99WKSSo6s5hk1MdPLp70JQWTx/6upKj+SOpI6CCOT+5UEknl1PJUEkfmUCgCPUn/AC0qD/V0+P8AeUDLcdFIn+rqStTKYU/y1k+emU9KCBKKKKyLG/wVA8dT1G6UAQR1YpNn7ypNlahMEp1NSiggfvp8dR1JHQBJUbx1JTaAG+ZTqKKsB2+hKKKCB8ddP4F/5DEn/XB//QkrmK6fwL/yHJv+vc/+hLU1BnHa+/8AxPNQ/wCvib/0Os7fVrxE3/FQap/18Tf+h1S3/u6FsUPj/wBZvoelT/V0lIsY/wC8qrJJ5dTyVUk/1klZG8SSOTzKfspkCeZU/l0Bzkeyh6lpJK1DnIKKKKCyN99QvI9WvLqq6UGkCB3piJ+8qTy6fDWRoTJHUlFR+ZQZDNlS0VFsqAHu9CPVKSN/M31owfvI6BzJkj8z56ZPHT/9XTK6DmKuyqV9H+837K1HqOSHzI/n/wBXXPyGsJnPTVSd6176x8v7lZF1H+8qDugP31Svt9Sc0j76k2gQW8DfwVDfQ/u60IH8uOmXSeZ/BXPOBpznmWq2bRySVlwW/mSfcr0DUtKS4krO/sZI4/uba8Srh/eO2FUyILT7P9xaJJHrXnj/AHf3KpSR+ZUcnKHOYN1uk/7Z1nSQN5ldC8FZ88f7v5K4ZwN4GPJH/q/npfk/v1BqUjx/9c6yvtzxybK5uc6jbu7j7PHXN3c6SSVqSXXmW+ysCbZ5lVOYQL1jH5km/fVq+fy45P8AnpWdav5cfyUzUZ28uiISMXUr7zPkrAnh/eb3rRvnSOSR6zpLh5I6DaBD8knzJWdqSJ5ezZWvfQeXHGif6ySsi+/d/wCsreBoZybLeONaq3V3UN1O8f8Ay0/791nT3SeZ/wBNK3+Iz5+U17X/AFn/AE0q1fXyeZJsrIsZnkk3/wDPOsvUr5vL+SjkL5zXfVf3nmf886hutfaST5Grk59Y+zx/cqrHfeZ5aN/rK39kc06x2UGpeZ95/wB3U8EieZvT/lpXPR/6v5H/ANXWpp0b3Fxs/wCedZz90uHvHUR3Tfu6tJO9VI4/L+/U/mf6uuY6vhLX2V5Pno+SP/np5lQvdS/u2So/7S/eb6UwNR4P3e+qvn+XJsR/3dQz6l5kexatadYvcfPsqSzQgTzP/jlMeBI/3SfLWjBaP92sfVXf+0I9ifu65zTmMvUtO8z96/8ArN1QwOkkmx3q7rN35kcaVnQJ+8+erMzotOnTy6u+Q8nzIlZFr/rNn/LOuu0OBJI/+mlQEzPsXf8A1ctaE9on7t4nrUn06K4j/u1kXfm2cm3/AJZ1HOAxI5I7j5619O2SSeU/8dZ0e+8kjZPlkrRtY/LvI3dKkDbg05LeP50rOnk+zybK0ZLr7RH5WyqN1aNSmQbGh3byfJ/y0roYP9Ik3vXKaHvjkjrpI/3cnyP/AKytoTOSqT30aeXWX9k/eV0MFp5kfzpUM9j5knyJWnJzGPOZ0lqknz09NDluJPk+WOrX2F7f7/y1sWn+j1cKJE5kFjpTWcf3KLv/AEeOtuCdKg1HSvM+dE/d11chzc5P4V1jzJI4pX/eR16FaR+ZHvry/wAP6NL9s+5XqljayW8caf8APNa7sHzHJiC7HH5n3K0YLT/VvUFin7zfWjJJ5de7CB5E5hsTy6jeP93soR/M/eVPHW5mQbPLjrPu/wDWRvWp/rKqzwL5lBvCQ+CrqulZ/wAkdWk/eVBEyamUN/q6fGlWZjJKtJTPL/v1MlWE5j6KZvp8dBkFL/y0qSkjoAfs8yj/AFdSfwUyStTIJKr1YplZTNSP/lnT0jpifu6njoLHpRRRQc4U9KZsooAdTaKKACjfRsodKACP95TqWNKf5dakENFFEf7ygB1LGlCU/wAugCTd+7qPy6koqwK9SR0eX+8qSNKCB9Hl0R0+gArpPAv/ACHJv+vc/wDoS1zddJ4F/wCQxJ/1wf8A9CSpl8AzhPEX/Iwap/19zf8AodZ38daniJP+J5qn/X3N/wCh1non7zfUI1gTO/7uofO/eUSf6uoPL/eVR0E/mVH5aSSUyiP95JQBa/5Z/JQlCUtBA6oZP9XU1Mf93QBVop70sf8ArKCx/wDq46gqeSo6yKgVXjpkcf7yrrpVXy/3lQac5JH/AL9R+XU/l/u6ZsoDnK9N+eSrTxtJRsoDnKvl+ZU0H7up/Lo8urM+cfRR/BRvoMhnl/vKY71Nvpkn7ygClJ+8rE1GD95/1zrekj8uqV9Alx9z5ZKiZ0wmc7s8ypPL8yrX2VvMp6Wrf3KjkOrnM7Z5lLJV17Xy/wDrpUbp+7rOZcJmXPGsfz1n3Vwnl7K0777lcjdXXlyff2159WfKbw94fOnmfx1A8Hlx1PA/mVPN9yuGZsc9fT/vKzvM8ySjWN8clZ1qzySV5k5HVAvXdilxHXO3eh+XJvrtkT93Hv8A7tZd9H/rKXIaQmc1Na+XHsrl77fHJXV3z/vNn/LOue1KNI/neuOR2wKtjvk+Sn6lP/eqGHUre3j/ALtYmq6r9o+4/wC8qjUZfT/aJP8ApnUFpB5knyfw1A/7yrVjH5dHOak88KRx73/5Z1yGqukkldZfSfu/96uQ1GB4/MrSAHPX0b/6ys7y38ze9al27xx/PVK6dPs9dsDOZNBJ/o8z7tnmfJWRqN0kcf7t6ffXX2fT/vfxVy88/wC8rqhA4pzKupT/ALzZ/wAtKpQXTxyRo1Pn33Fxvb5aLSBPtEaO/wC8kr0Ycp5lXmlI2LXUXt/k/v10mj6qkcm+uUePzLjYlWtO/d3HlpXLVhzHbRnKJ6M+spJHHv8A4q0dOge8+euNtN1xJH/rP3ddxob/AGfy99eXOHKepCfMaj2P+j7KxbuNI5NldC98kkdc1d/vJJHrE2iH+rjrb8P3bRyffrnvI/g/56V0OjWL+XVS+EDeguvMj3pWRqqP5kj1oJB5cm3/AJ50zWYE+z1xwNTjZH+0SSbqfap5n3/9ZU8GnPJJv2bY63rHTVqgGWto32fYn+srodGgls7zfLv/AHi/6umWeneXJHW9BB/z0o5znmGou8dnviSsH7U1xJ5UtdWiJ5ex6yJ7FJJN6JUTAq2MHlySNV27uPs8dP8Asn2fy/k/1lT6jaxXkce2sANHQ4P7Qk3yPW1Po37vdvrP8PwfY7eSV/8AV1o3esRSW+6P/v3W8TCRmwbI7j5H/eR1oxv5km3f/q6wbOR7i4kf/npWpaJ+882mZnUac7SSbHrbggSOPe9Z3hhEk/jrpZ7X+OvTowOOZS+wxXFv80dRvp3lx1a+ar1j+8j2PW/IYTmYiRvHJXZadY+Zb/OlPtdHikj+5W3pVj5f+1XVSonLOqMsdHSOPfWpHB5dWvL/ALn8FHl+XXrwpezPLnPmCB/Lqab/AFdMSN6n8h5I/wC7XVAzCBP3dFTQJ5cdMkqyCBP3lMnT958lP8yrUFqtx5b76CzL+eT5KvQb/Lou4E8zelT29QaTl7o/y6Ejp+yjZ5lWcw9Ep/8Ay0+epET93VV5P3lagTVJHUcdSR/6ysiCTy6SNKWigyHpTKKKAGUiP5lLUb746DUSSljepOar76Cy35lPqjBPVpP9mgz5CSn7P3dQ1NvoMxlTQRpUO+npWoFry/3dQSVJG9GzzKsgbUNTyf6uoKAFemJRvoqALFFN8ypEqwCiiiggf5dFC/6uigAoopm+gB/mV0fgH/kMP/1wk/8AQ0rmXeuh+HjZ1yX/AK93/wDQ0qZfAM5DxN/yG9U/6+Jv/Q6pRt5cdWteXzPEmqf9fc3/AKHVLzKhGsA/1lR1LUVQdAPRGlG+paAH0j/vKbRQA+kemI9PetSCCiN6HpnmVkWT+ZQkdRxpUtACPHUH/LSn0ySTy6gqI/fTKKelADPL/eU/ZUtFXAkioo/1lFagM/1lPoqWggrySeXRRNRHWRZBJVK4rRf95VGdKCoFWh3pmP8Abp/mfvKg6CHy3qD7P+7rU8uoLv8Ad0C5zFvk/wBHridR01vM3pXcz75JKpPCn8dedVpcx20pnNWlp9nt971nX2q/+Q63tZj8u3+WuHvt/mSfJXl1fdO6HvBcT/aJPmT/ALaU+1sYo5N9Uo4Wkkq188flpXnnSXZ5E8usG+mq7O7/AMdVXg8z+OgcTBukrntR8ry/nrqNRg8uSuK1zdJ5lcMztgctqs6WcnyPWZO/mR798iyR1na5O8dxJvpn2793GjVfIdsR8980cnmVatdYeOP53rImm8z5EoeTy49tSBtSar9ok+/TN/7v56zrVHkk2Ven/wBXsatwM7WEikj/AOmlcpI6RyfP/q619VkeTzNn/LOuau0aST/ppXTAxmWr7ZJp8nzfvK5GdPLj+f8A1ldRBaPJ8ktY+q2nl/8AXOu2EzhnAyN/7v56Z5aSXEcv/LSOo9R3x+Xs/wCWn36hR3rq5Dz5S94u708z5KtWM/l3HyPTINN8zy/+edPTSn8z5KDT3jtdOvk8vZsregdvLrlNKgeS32V1dp+8j8pPlryK0z1qPwlpJ3k+9RdT+XHsWiS0+z1I8CeXHvSP95WHMbwILRPMk311GmzpHHHv+WsvSkTzK3ksU8usZzLJ4J/Mk+/UGpb7jy/+mdT+Qkccmz/WU+CD93v+/WHOalWCCK3j+f8A5Z1Pazr9o+eqM+/946f9+6qwb/M2In+/QKZ21jIn8dXZNkccb/8ALSsjToP3ce96mkuvLkqOcwNGSfzPk31qabp3mfNXL6bHLeSb9/7yuh02eWzk21cZEEOqwPb3H/TOrVpCkkkexP3daGo2P2yPfRawJHHG6VHIZ85qQWKSW+x/9XXPajapZySJXSwTf6PWc9i95JvetuQiJS0dE8vfW1BaxySf9NKYmm/Y49/3o6IJ/wDV7PmjkrTkCZo6aslnJvT/AFdd5YzpeW9c7psCXlv9z+Gui0qDy/8AZjr1MPA8yqXf7N8yT5KntdN+zyR1qQQf6urKQeZJXowpHnTmSWsCVqWsHlyVBaQp/crR8vy469CEDknMX5KSNKI0qeOP95W5gPjj8un0sf8ArKTZ+8qzIlqJ6lpPLqwIPI8ySrUcHl0QJVry6Bc5BJB5kdMSPy5Kt1X2UBzhUmwVG9Sf6uOtSJklUZ3/AHlPd/MpnkeZ9+guA+OT93U6T1RffH8myrSJ+7rIJxLFPqNI6krUwE/5aUySh3peayNRPMqCSTzKJqEqDWEASpHSjZJUnNAFSOP95U0dMb/WVOj+ZQEx/wD1zpaZU1WZDKelR/8ALSpErUyLFN8ynUVZAVE9S0UAV6dRRQAVJHTqdQQFNp1FAAlPplFAD/lqDzKkptBZDXUfDj/kMzf9cH/9CSuY2V1Xw+/5Dk3/AFwf/wBDSspgcP4h/d+INT/6+5v/AEOqUb1a8Rf8jJqf/X3N/wCh1SqjoH76X56jp8aVkWSInmU/ZT0/1fz0r/6ugghoqhJfPbyf9M6tb/MoLCjfTKP+WlalBT0oSpI6CRaKl+WjZWUxQIqidKsUmyoLKvzxyVYpJKWgBPLpafSbP3dWSQOlH/LP56k/1dRvWoDI6e3+rpm/+/R5nl1kQHl0eZTKHrUsR9lUrqrT7KpTulZTKhApSUb/ADKm8vzKheOoOsmjn/d/fplw/wBo+SoN9H+roAhn/d1nSVo3G+qM8b1hMuBl3UHmR1z09ikknz10t9+7jrBmuvLk315GI5TtgQfYVjjrL1GBPM/u+XWl9urG1Gd5PuV50uU6oGXNN+8qTf5dvVGeRrePfJXL6j4q+zySf7Ncs5nVCBsarP8Au9lcNquoxW/mfPRqXirzI5P3lcHrOoy3kklcvKdsCrr92l5cSVgxz/u/71SX07fxf6yqMG+ST5K3hA6i956R/O9TR33mSbE+asu4geST5kq7p2nNJJG6fNTDnOs0e1S4/g/eVoX2m/u/ufvKt+HNKe3j3vV3UfRHrAjnPPNR05ZJPnrBu40juPk/1ddlqqP5n/XSuXvk8uTzNldMJgZ11sjjrlNcn8zzG/2a2753/ef885Kwbp/MkkR69GjE4cRI55/9I8z/AJ6VNaJ+8+fy/Lq7a6b/AKR89Wng8uTYq12855kIE8d8kccifc8urumukkfz/wDLSs/7L5kfz1oWsD+ZH/0zrmnOJ2whI3tKgeSTelbccEtvJG1P8OeVbx73/wBZWxbwJefwV50z0KYRyPcf981HfQfu43T/AJZ1vQaUnl/JWfPA8cmyuE3INKSWOSu5sUSS3+euXsf3cfzxVr/avLjj2UTCY+dP3klKj/u/kp0ED3Hl/wANKkfl3FZGkCjdJ5cdM01P49lWtV/d/Jvj8un6bB5kkiP8lZDNG0f938j1A8bff2Vox2Pl1PPGkkfyVEznKOj+ZHJsr0ax01ZLeN3T95XD6cnlyb67zR7v7RHHE3/LOt6UjCqZ2q3X2f5KgtW8yPYn+sqfxBYv5m/ZUGh2MvmeY9afaM/smjBA/l/cqRJ38uRNlbT6a8n8FT2mhrH99K6YwObniZ2nWL3EeyX/AJaVOnhn7PJHEv8Aq5K2rGxTzJEjeuig01JJIf8ApnXdClzGc58pR0bQ3t7fZW9Y2KRx7NlXoIP4KtfZW8yvWhS5TzJzHolP2PH89T2to8n8dT/Za7uQ5OcfY/6ur9UI/wC6j1oWkHmffrfkMZixx/x0bv3lXZIPLjqklbchgPR/3lW6jRP3dTJQRMY9G+n7KZsoGPgkqxUUdSeXQZzDzKWkkpa1MxJP9ZS0+o0joAY6VHsqeT/WUOn7ug1II/3klPkojqT56yAfG9LJUDx+X89P8793QVyDH/1lPjqDfT46BiulQJU7/wCso2CoKHx1JUEcnl1Nv/d/PQSVXp8dElEdAFiSiOk/5Z1J/BVnPMKEoplagTJUtQ0VZBNUNFNqgLSfvI6NlRx/6s1JQQNp1Po8upAPLpmyn0x6AD/V0PRRQWRyU6nbKbQAV0nw/wD+QxJ/1wk/9DSud2V0Xw//AOQxJ/1wk/8AQ0qagHC+JP8AkZNS/wCvub/0Os9P3laHiL/kZNU/6+5v/Q6pVidA9KkSOo0qb/lnWoEm+mP+8jod6Z5lAFG6tPMqdI/3caU/5JKloLItlMR6fvojSgASp44/3dQJU++ggfvqSNKjSpP3fl1kBG6U+iiSgBjpUOx46mqGSP8A26gsWn0yirATzP4Kgd6neOoJK1AZUDyfvKneT93UDvWRQ/zKSot9OoAa71UkqSeN6Y8Hl/foN4BuqB6nREoeCg0IPI8z/rnRs/gqf/lnT/8AaqDPnM50qrOn7ytR6hjg/wBionA25zmr608yua1KxavRrux8ysi406vOxGH9oaQqnnn2WXzPuVJPY/u9711b6akclYms7LOOR3ry50eU7YTOK1X/AFciV5t4ggT7Rv311Gv6wnmbE8zzK5O63yfO9ePWPYonNz2L3ElZ11prx/wV1Ecnl/eTdUF1OkkcibK5uc7fhPPdStPMk+5WcljL5kaoldXPaeZJI7p+7plja+XJH/zzrbnLM+70b7PH8y/vK0NDg+xyR1dvv9I+RK2NK0P/AFf/ADzpgaEc/wDo/wAiVkPd/bJJK6h9J+z2/wAiVy+pR/Y/M2J+8qCDE1X93HXKaqnmfP8A+Q66XVX/AHfz1y+pSfvK6aYc5iX0Fc9P/wAtHrrp4PMt65fUU/eSbK9SlM4cQMtY/tHybP3n8FT+Q/mbP+WklVYP3cm/fW9BB/aEkbRf6yrmctIo+Q/mRpWxaWr/AHNlPfTZY5Nz/LWjB+7+T/lpXLOZ6PIXbG0aOPZXS6HA1vHs/wCWlZenwP5kaI26SSuyt9P+zxx/89K4qszeBNafu4/7tVbux+2SfLUnkSySR/8ATOtCzg8u4+/XGXzmRPv8zyvuVPAn7uStf+zftkn3KE05/M2VYc4yxfy5I99R3X7uSR62H03y/Log03zJPnSlAjnOd+yy3En3JK2NN05o5I3etq3sUjt/kT/WVPb6bRyEc4+7gTy96VlpafaJNldFBY+ZHH/zzrQtdKiqfZGc58pg2Ohv5n3K6zRtKeOSN62tO0f93WpBp3l12UsOcU6xnXelJcR7HpljpsVn9ytvUYPs9nvrlIL545K35IxMYT5jpI4Ekk2Vo/YU8uNNtUtLkeSOOuhtI/tEcm+vQpQ5jOZzUFq0d58n96us060eOP8A66VHBp37zdW3ax/vK7qVI5ZzCC0q7Hav5lWoLX93UkH7ySvQhA86cwjjS3job/V09/3lDpWnIZRGQQeZWvBH5ccdUrT93JVp3raBlOY+d08vZWbUlxTI6CS9BP5lTeW336z9/lyVqQfvI6DOZH/BQlPkplAx8dSeZ5f3KZsFSUAJ/rKkqOOpPLrSBkFEdRv+7qOtALFRyUeZS1ADo0qTZTI6fQBG8f7uqsf+s2Veeo9n7yuc3jMh2CnpHT9n7ulqyOcj8ulp/l0UBzkGz95T/wDV1J5dFAc5XkqRE/d1JRRyBzBR5dFFamY+jZQlOpRAKKKK2IG76I/3lRv+8kqdP9XvoAnoptOoICn0UUADvTKHooAKfTKfQAyin0ypLH/6yuj8Bf8AIcm/64P/AOhpXOV0ngD/AJDEn/Xsf/QlqZfAScH4iT/ioNU/6+5v/Q6pVd8Rf8jJqf8A19zf+h1SoRqSJHS0VFVASO9R0x3p8H/TSoNIBRUtRJQaBsqxTKfVkBRRRQZDt/8AcoWT+/TaKg1Jal5quj0+gAqGfZU1Vp38yshQI0qdKZHRHQaD3j/d1Vf/AG6uu/7uqUknmVqKBVd6hkp70bKyNgRKm/1dGzy46krUCB6Y6VN+78yiSsiCt5dP2H+5TqfQXzkXk1VnrQk/1YqlOlRMcCkj/vKtRvVV0/u0+P8AuUG3KPes+6Ty60J/3cdZ8j+ZJUERKN3HXD+MYJbiPYld+6JWRqtikkdediIe6dsJ8p4jJ4VuLi43vUGpeHPLjr1C7gSz/d1zWpOnmV81WpHr06p5zPoaW/36yJ9N8z5E/wCWddlqv7ySoLGxST79efyHoxmcPPozfcqC+8Pvb2e+OvUE0NPM3ferIvrHzJJInT93V8ge1PNdOtHkkjSvRtKsY/LjqGx0Dy7jei10Njpv2ePe9WHOZ2owfZ7euH1KD7R5m2u81ydK5eS08yTfUTCJxN9pv7v564rWIH+0f9M69avrFJI64rWbHzJNmyt6Uzc4mff9n2JWDdQPJJvSuvvrH7P/ANtG+5UMmleZH9yvQhPlOWcOY4xLTzK6jQ4Gjkj2Uz+yvs8e+tTQ7XzNQj3x0TqihDlNS6tPMj3/APPT79QR6c0kkaJXZPpSfZ6htLXy5I91cXOdZd8OaM1v+9dK6j7L9ot42qfSo4pLetS1tPMk/wCmdYT/AHhE5mPBp3l1P/ZzSR763rWx+0SfJWo9j+7jTZRCBnznL2lj/BV2DTUkkjer39lPHJHWh9k8uP5K05COYyPsqXElWo7VLf76VaggfzKgun8vzKOQBk93FH9xKntP9IjqrptomoXG3/lpWumm/Z5Ni1fIE5j4LX93s2VqWNj5klT2Nj5keytux0145Nmyt4QPOnMtadafu6147VJPv1BBA0cmytFE/d169KBxTKt9pX2i32VyEnhyWOSvQPn8uoJ4PM8v5KuWH5i4TMjTrFLO3/6aVtWMH2ePZU8Fr+737KtRwfvK6oUfZkTmR/Z6t2qfvKfs8ujy/L8t66oQOXnNGST7PHT96ffqrBJ9okq1dR/u/krc5Zh/rPuU+D/WVDafvKuolWMI0/eSVO/7uOo43qTZ9oj2f8tKDnmUfMqRKHTy6fHBQSMb/WVoWqeXb/8AXSoYLH95varv+srUzmQN/rKfRJTEoMyT/lnUlPo8ugAp9M8un/x0EDKZU1QSf6uguIz/AJaVJUUdWPLoAKKKKAH0UyOpayAV6hqWmvQAUyin7KAD+OiihHrUA2Uypaa6VZAyiin1BYU6m/x06ggKV0oSkqwG+X+8p1Kn+sp/l0AOpyU2nJVAFPplDvQQFFG9vLo2VIBRRGlFUAJT6KKACul8B/8AIcm/69j/AOhLXO7K6TwKv/E4k/69z/NaiXwjPPfEH/Iwat/19Tf+h1Sjqz4kf/ipNW/6+5v/AEOs9Hq4Gpa3fu6Z5lMeT93UfmVJpAk/1lTJUMb1MlAwqWkjqPfQAO9CUz/WSfNU8CVAD43p9H+5RVmQ2kj3yU+mbP3lQaglP30zZT6AGSSeXUDvU71B/HWUyokkdP8A9XTEjqSoGV53qF4/3dTPTPL/AHddBRRf/WVJHB5lDx/vKnjSgsf5f7uoJKnqCT/Viggb/wAtKd5f7uiBKn8usiOcqxpVqOjy6fQMheqM6VeeT/lnUD1BUDOkg/eUySTy6nu5/LqjJ/pEklRM6oELzvJQieXHT440p77fLqS+Yr1Tuk/dyb61ERKhu4/M+SspjPOfEH7uSSuGvpHr1DxBpv2iOTYlcBqOhyx+Z8lfN4ulLmPWw8zk55PMk/vVJYyP5nyVan054/4KfY6a39yvL5JHpc8Tb0r958lVdR0b7RJuSOt7StK8zy0rXk0qvQhR5jz/AGpyFppSW8fzpVLVJ/s8ci12V9Y+XHv/AOedcNrL/wDoVRWh7M6YTOeu5HkkqrPH5cda9qnmSfPUmrab/o8iIlcXJzHScNdX3+sSsudE/jSuoTw/+8kd0o/sNI/mdP8AV0johM85utK+0Sb9lEGlPJ/BXaz6Ukkm+p/7Oit499OEwlI4P+yP+mdVfsL295u2V17QfvKLTR/tlxHW0DOczU0axe40+Pf/AKysS+tWt5JK9J0fQ/s9vsVP3lZeq+HHkkkfbROBEKpl+GHaSOuzgtXj/wC2lUfDOhvHJH8ld5HpsXmRpJ/rKuFIwnVMvTdO8uOPYla/2X93HvSrTxpZx1D/AKyT79bwgY85neR5kn3Knu7Xy4/kq7BAnmbKfPa/vM1cYG0JnKed+82fdq09qnl73/1dM1yxeO3klSsuxnlvI/KrlmaGppscVvcbkrqI0SSOP5K5qCxlj+euo0O0eT71aUjlmaljB+7retYP3dM02xretLH9386V7VKieXOZRt7R5K1LXTvMq0kCR1ajk/d13Qgcs6pSnsf3mymfZU8yOtCT+/TIP3kldBnzjEg8uOnwWn8eyp/JqZEeqInMqvaPRJB5cdXo0p8kH7ugiEzItE8uSr9N8j/R6I3qzafvD0Ty6P8AWR1JT408uSrMB8H7uOpEf95Uez93RAn9+giZe/1n/XSo3em0m/y61MhnmfvKsx1S/jq9G9ApiSUyP93T6KDMsU+oEepI6CB6UUUPQAVA8dSUUFiRpUmyhKdQQNoopH/1lACpTqalTR1YA6fu6herFRP+8qAIY6fRQlABspnl1YqJ6AGUeZRRQWFP/jqD56noAPM/eU6m7KfG9BBLTfLqOl31YE8C/wAdFRo9SJ+8qiCPy6dTqbQWOoqOOpP46CA2U/8A5Z0U/ZQAyOn0JRQSMp6UUyOrAfXSeBf+QxJ/1wf/ANCSubrpPAv/ACGJP+uD/wDoSVnU+Es828SP/wAVJq3/AF9zf+h1n76s+JW/4qjVv+vub/0Os/f5lTA6iR3ojkeoamRKZRZj/wBXU6Uxf9XT/wCOgwDfTKKZSmaQDd+8q1b1Vq7BUlzJo6KKlqzlIqY3+sqeSoHqCwp9MoegBj0xI6e8n8FPrI1IZJPLkp++mTx/x1HQAPRR/rKK1LGeXUnyVHPJTKACik/26VKAJk2UVCkn7zZT5H/5Z0EBRT0qd0pcoFLZUE9XXqrOlZlQMW6/eSU+OP8AdyPRP/rPvVPa7PL2VidvP7pHsH9yqs6Vounl1A3+soMecpRp5cdPedPLqR/3f3aqzr/HWcy4GddxmST/AJZ1nT6V9o/grUeB5I99M8t44/nrCcOY6uc5q+8P2/8AsVDB4ct45K6GeP8A2KZGnmfw1zfV4l+2kR2ljFbx7PlqR7VI6m+zpU6J5cfz1v7EjnOa1W0/dyV5trlo8cknyV7DfInl1yd9p8VxJ/erzsRS9oehSq8p5zawPXRWOlPcW+946149Dt45NyJWj/x7x7ESuGGHkdUq3McbfWKW8f8Adrjda1GK3jkSvQvEWy4s5NibZK8i1W1lkuNlctWHKdVKfMamnwLeR1an0pvL+7V3wXobyfvGRq6ybSv3n3aiFEfOeZJobXEmzZXQ6H4Z/eR/JXUWOhxRybn/AO/ddRp2mxV1UsOctWqZdjo/lx/cq1PocXmR/JXUQWiVPJY/x16MMOcPtTl9N0ZI5N6RVaurRbP97s/eR10tvY+XJuqrqOlfbI9lXOj7vuB7U4O6umkkqbTY3krbfwz+83vWjY6UlnH861xQpS5jr54GIkfl/Ps20Tv5kfyVqX1r/rGT/V1nWif6RseurkL5yH+yvtkex03eZRpvhUW8n3K6u0sf3f3K0YLGj6vzGE6pjx+HEkj+5WpY6GtvWpbp/fpnkPJJv3V1Qw8TinVkSRwJb/d+aSpo9/8AG+7y6ei+X/q0qfyK9CEDh5x9qnmffq8kHl/fqjBvjrUT9596tOQxnMq3VTwW/wC730908yp/9XVl83ujF/1lPjjSj/lnvqeBKDlmCJ5lE6fu6m/1dMerJIP+Xeqvl/vKtIn8FMT+/QbB5aU/Z+7qTZ5lTeX5cdQQQ+XU3/AaYieZU+z93VmfOR1D/rKmdKZHB5dajGSf6wU+OT+Cn+X+8o2UC5g+eP5KkjSiNKfHQZj9nl1IlFFBA6m0U6gBr1DUz1RnkeOSguJOj1P5n7uqqfvKnoAfvqP/AJaVJRsoAdUkdMSnx1ZBJUD1O9QPWcyBlPSmVJ/y0rMsm/1lRvHR5lSSf3K3Aq0bKfspKkBtFOpf9XQAz/V0JTqKsApr06igBUqWoakT93VQIJP4KbTfMqSgsbTqbTo0oIHx0+hKKACiiigkHplPplWA+uj8C/8AIZl/69z/ADWucroPAv8AyF5P+vc/zWsJgeV+Jv8AkZtZ/wCv2b/0OqEdaPid/wDip9Z/6+5v/Q6y0emdpbjqaCqqP+8q0lMyLUdPqHfT46oAkpn8FG+j/wBF1EzSAib6t29QIlWo4/3lSEyaOpaioqzAlqKSil3UAR0U2o0eoLH7PMpacj0fLQAx6Y8dPem0AV5qI6e9EaUG5Js8yOoJ08uSrSfu6NlBJS/jp7/u/kp+zy6hf95JQWQTv5clPgj8z56Hjqe1j8uOsjP4SdE/eUSVJUclamZG9QSf6up6qzyeXHWRpApOn7yrUECeXUHlvJJvrRX/AFdB0yIHX+CqU8Hl1oulQbG8yomRAztg/uVH8laXl+Z/BVV0/wBioNIlGSPy5Pkpjwfx7K147WKT5/8AlpUn2VJI9mypL5jl57X+5UEFr5db11B+8qBIKy5C+cz3g8uo561Gg8z59lZ91G8dahAyp08zzKq/ZPaOtF4PMo2f6tttZch1me9j/sVRnsX8uui2eZ9yo3tf76VhOAoTOKutH+2SfdrLfwHFcXHm7K9G+y1PHaJ/crD6pGRvCtI5Ox8PpZx+Uibak/srzP8ArpXSeSnmVIkHmfIny04YeIe2OWg0f+PZVuC08uTZW99lp/2GTy63hRI9qUrS0TzK1Eg8yOiO1eOOrtrA9bchhMqyWn7umJB/sVqPHUHk0cgc5nSQJHJVWeFq1Hgo8jzKjkN4TMX7JQmgN5m9EresbHzPM3VrwWifco9kE8RymRBpv7vZsqz5Hlx/crY+yR1Vn/d/JVwgYe15il5Hlx/9NHqONP3mxKvb0k/gp8cCeZW/IYTmQRweXHUmz95VrZT5E8yOr5DHnGIqSR1NH+7+5UCfu/kqfzKDOYSf6sVJH+8j/wCudQf6ytGxg8uOR6AII0/ebKuolQp/rN9WasyGPTJ/3dPeoZP3nyUCgRvJ+7qRI6jdKnSg2BP3dTv+8jpKKDIZH+7jqTdR5iSVH81ABT46ZsqdE8utTKYzYKf5dSeXSf6uOrIGeXU/+rplPeoAKKKelACUVJ5lMerAY9UW/wBZVuSoNgoLgPjqSq8dWKgJhU//ACzqP+CiggKmjqOpqsBvmUx6SioAbT/9XSUx/wDWVkBIlS01P3kdOrUAqGm+Z5klPerASim06oAk/wBXUdTUVZAUUUVQEW+koqapAj/5aVNVepqosclPplPoIH0f6yiirJCiiigxCiiig2GV0PgX/kLTf9cG/wDQlrnq6LwL/wAhiT/rg/8A6GtTP4QPJPFb/wDFV6z/ANfs3/odUkqz4ub/AIqvWf8Ar9l/9Des+OT93WZ2l6B/3lWkes6N6up+8pgWkepKgSn/APA6oyJHoSm1LHUgSW9WUqGOnf8ALOgCel3VHTI0oAfTad/q6ZvqAFqu9WKSNKDUZHR/y02U908unxx+ZQZEL/u46I/9YamemPQBA9CUySj5qDUtJQ9Mjp3/ACzoMhslR7KlpJKDUj2eZU8CUxP3lTUomUx9Qz/7FP31DJWhBVknfzNlDx/u6m2eZRs/d1nym3MQpH/q6m2fu6Z5f7yn7KZoMdKZsqaNKH/eVkSUnk/eUbPModP3lTxpUGvOR+R5dSbPLp/+/RQRzlWeHzPuVV8h4/4K0dlP8ugOcyHSqr2tbU8CSf7NVXtfL8ygvnMGe18yoY4PLranjqGO1/d1Bv7QoxweXQ8dXngqDy/3lZ8gc4yCx+0SfP8A6uOo7uDzJJK1Nnl2+xKpSR+ZWhvAzo4PMrRgtKI4PLrRs4P3fmVHKE5lFLRKk+yfvKuvH+8+SnpBVmHOVUtanjtf46uon7yrUcH2f56vkM/amfJBVV0rXn/vVnT1A4TM+4oSP9589WoI/M+/Ud0nlx0HVCZPYwLV3y6q2v7uOp9/mVZhMnrOuoPMuJKtJVV5PMuJKDMET95Vr/V/wUyCP95vq1soIIf+WlTRpRsoqzIjdP3m+o6kR6dQa846xg8ySOtT/WfcWoLSOpqcTHnIP+WlSeZ+8oehK0GSf6yo9lPjpd1AEE/7up44/wB3HQ6JJ89EFAucNgqOrdQf8tKyGRulGyp/I8z/AGqNnl0E8wJHUlFFamIU+mU9KsAoeio9/mUASJTqalWKgCGm76HplWA+oafRUAFPRKKEoAdTadRQAqUlNp1BAUU2hKAJP+WdR+X5klP/ANZT/L/eUAEf+rNMnqeo5KsCrGlTUUUFhRRRQQFFTU2OqAdRRTtlADaKb5dOoAhqSOo6mqSx1PqKnJVED6fUO+n+ZVkhR/y0o8ymUAP8yn0yn1ADJK6LwL/yGJP+uD/+hrWBXR+Bf+QzL/17n+a0T+ADxnxd/wAjXrP/AF+zf+hvWZHJ+8q34uf/AIq/XU/6fZv/AEN6zY3rI7zRt6mR6qwPVpKCS8lOqsj/ALupPMqzIt1KiVVT/WVaR6ALFL/yzpvl/u6P9XQQTUf7FM30tQWO31DHUlORKABEqTZ5dG6koIF2eZUf+rp9FWBC8/7uqsj+ZJVp/wDV1BsqDeBI8fmR1HGlWKRKBj44/Lok2UUUGQzZUE6eZJVio5P9YKDUelPpif6yh6DnB5P3dQVJ5n7ypKCxI/8AcptJJ/sUSVYEew+ZUn+rp6U/y/MqAIfnqPZVry/3dM2UBzlXyaen7upJKjSg1B/3lQfvN9W/J/d0IiVkTzAkFElO/wCWdN2eZWpBA6fvKKneOo/L/v1kalWeBJP9mqsdr/003VeeoqgsrOv8FVfI8ytFE/5Z1A7+X8iUGpSeT+CnwWjeXUmxJP8ArpU0H7ugfPykMFr+8q6kFGynx1AcweQkn+zVpIEjqGp7erMSaBEjp8kf7vzKev8Aq6V0qyCi6Vn3Uf7ytS4rOeP95UGsAgTy46q3X3K0UT9389QXcHmUchvCYQQfu6HSpoI/Lj2VJ5fmSUETmQIn7yqvkNHJJWj5dMuk8yPcn/LOrFzkcf8AqzU8dV6sRu3l0GQUx0qahIPtHzvQQUkjerUEbf3KtQR/7FTp+7oFKY+BPs9v89LSPvqOtTMJKg/5Z1Yd6j/1lBqSJsqv/wAtKdTkoAnj/wBXUnl1Gn7uh3oOcXmo0/1m+pKjT/WUFlpf9XTPMoqN3/d0EElFQQb/AL9Tt/rKACo0k8uSpKJKADzKjjpafQA9KfvqHzKT/WVYEjvUEdPf/V0sdABRT9lFABTqk8uo6CAooooLCimpTqCBtP2UlFQAv+rp1Mp9WBLTaclD1QEclR0VJHUgOqGpqb5dUA6iiipAKdTadQWD1Xqw9NqiCJ6N9JTdlSWWKdUcdSUEBT6ZRVEhT/Lo8un0AM8uin0UAFdF4I/5DEn/AFwf/wBCSudrf8D/APIWk/69z/Nac/hA8P8AF7/8Vfrv/YRm/wDQ3rPT/WV23iD4XeKr/wATavdW+m7re4u5ZYm8+IEq7N1Bf3FVI/hP4uj/AOYR/wCTMP8A8XWHMdlzCj/d1dR62o/hZ4t/j0n/AMmIf/i6sp8L/E3/AEDW/wC/8X/xdXeJmc5vqTdXRf8ACs/E/wD0DG/7/wAX/wAXUifDHxD/ANAtv+/8X/xdF4gc/G37z56tI9bUfw18Sx/8w7/yJD/8XU0fw98Qx/8ALj/5GT/4uouBkxvU/wDrK10+H+v+Z/x4f+Rk/wDi6m/4QLXv+fD/AMjJ/wDF1XOQYdFbn/CBa9/z4f8AkZP/AIuj/hAde/58f/Iyf/F1N0BhJT99bX/CA69/z4/+Rk/+Lp3/AAgeuf8APl/5ET/4ulcsxqZXQf8ACDa5/wA+H/kVP/i6X/hBdd/58f8AyMn/AMXTuiDGqKt7/hBdd/58f/Iyf/F0f8IHrf8Az4/+Rk/+LougObeoNn7yunbwHrhkyLLj/rqn/wAXTP8AhAtc8z/jw/8AIyf/ABdK5ZhPRA610DeA9c/58v8AyKn/AMXTF8B64n/Lh/5FT/4uoLuYr0x3rof+EF17/ny/8ip/8XUb+A9e/wCfD/yMn/xdXzEGF/rI6bW/H4D16P8A5cP/ACMn/wAXR/wgOvf8+P8A5GT/AOLo5wMVKHroF8C67/z4/wDkVP8A4uhvAuu/8+P/AJFT/wCLp3RBzVPrf/4QHXPM/wCPH/yKn/xdSf8ACC67/wA+P/kZP/i6LoDm3ptdE3gXXP8Anw/8jJ/8XSf8IHrn/Pl/5ET/AOLpXLMOCOp/Lraj8B63H/y4/wDkVP8A4un/APCE63/z4/8AkRP/AIundEGHVd0rpP8AhCNd/wCfH/yKn/xdEngfW5P+XH/yKn/xdF0Byrx0JHXRf8IHrn/Pl/5ET/4upf8AhB9d/wCfH/yKn/xdLmLOe2UIldD/AMILrn/Pj/5FT/4uj/hBdc/58f8AyKn/AMXUXIObem10UngXX/4LL/yMn/xdNXwBrn/Pl/5FT/4ur5yzE/1lM2V0P/CC69/z5f8AkVP/AIun/wDCD67/AM+P/kVP/i6zEco9Qunl11X/AAgOu/e+w/8AkVP/AIuiT4f65J/y4f8AkZP/AIumac5yuz95VWdPLkrsG8Aa9/z4f+Rk/wDi6bd/DvXLiP8A48Pn/wCuyf8AxdBpznDVbSt//hWXiLzM/wBnN/3/AIv/AIqnx/DXxBH/AMuP/kZP/i6gvniYcdToiR1s/wDCvPEHax/8jJ/8XVq3+H+veX89hn/tsn/xdBHOc5U6J+8ro1+H+s/8+P8A5FT/AOLqX/hA9b/58f8AyKn/AMXQZymYkdM3V0H/AAg+t/8APl/5ET/4uj/hB9b/AOfL/wAiJ/8AF1ZBzE6VnSf6yuyuPAevSR/LZf8AkVP/AIus2T4c+IZJN/2H/wAjJ/8AF0G0OUw99ProP+Ff+IP+fH/yMn/xdTp8Ptc/isf/ACKn/wAXQac8Tm/+Wf8A00oSujk8Aa4JNyWH/kZP/i6d/wAIHrn/AD4f+RU/+LoI5zmpP7lGzzI5K6H/AIQLX/8Anx/8jJ/8XUsfgPW4/wDlw/8AIqf/ABdAXicnsp9dW/gHWev9n/8AkVP/AIuj/hAdZj/5cN3/AG1T/wCLpGfOc9HB/HLT3etmTwHr8n/Ll/5FT/4unSeAdckj/wCPL/yKn/xdMLmRG9PR/wB5WtH4D1yPpZf+RU/+LqZfA+tDrZf+RU/+Lq+YiRhyVV/1kldS/gvWPL/49P8AyMlRN4E1rfn7Dx/11T/4ui4cxhbBUE8nl11H/CD63sx9h5/66p/8XVefwFrkn/Lj/wCRU/8Ai6d0XGZz8cnmVPGlaNv4B16P/lw/8jJ/8XVyPwJrcf8Ay4/+RU/+LpXCTMWOpK2f+EF1vfn7Dx/11T/4upP+EJ1r/ny/8ip/8XRzmJzzx0R1u/8ACE63/wA+P/kRP/i6T/hDdY/581/7/JTuWYz/AOrqH/WR10T+C9Y8v/j0/wDIyU3/AIQfW/8Any/8iJ/8XSuQYsCf+Q6ketj/AIQ/WI4/+PT/AMjJS/8ACF6z/wA+P/kVP/i6LgYa/wCspH/1db3/AAhOtf8APj/5FT/4uo/+EJ1v/nx/8iJ/8XTugMPmiug/4QnWv+fH/wAip/8AF0f8ITrX/Pj/AORU/wDi6LoDCorc/wCEJ1r/AJ8f/Iqf/F0f8IVrX/Pj/wCRU/8Ai6q8e4GHJRHW3/whmsf8+n/kZKb/AMITrf8Az4/+RE/+Lo07gZNPStf/AIQnWv8Any/8ip/8XTo/B+sf8+n/AJGSjnJMuonrd/4QvV/+fX/yMlJ/wiOr/wDPp/5GStOeIjAp++tr/hDdX/59f/IyUz/hCda/58v/ACKn/wAXUc4zF306tj/hCda/58v/ACKn/wAXT/8AhDda/wCfI/8Af1P/AIuougMb/lpTa2/+EN1n/nzX/v8AJR/whus/8+a/9/kpXEY3/LSkStn/AIQ/Vv8An0/8jJSR+D9Y/wCfT/yMlXcDMpvmVrf8IjrP/Pov/f5KX/hDda/58j/39T/4unzjMXfSVrf8IZrH/Pp/5GSpf+EN1n/nzX/v8lHOIxKsVp/8Ibq3/PoP+/yU7/hEdX/59P8AyMlV7QDK/jptbP8Awh+r/wDPr/5GSj/hD9X/AOfX/wAjJU84GNRWx/wh+rf8+v8A5GSj/hDtX/59f/IyUXiBk02tj/hEdY/58l/7/JR/wher/wDPr/5GSjnAxf8AWUzZW5/wiOr/APPp/wCRkpv/AAhur/8APr/5GSjnAyqclayeC9X/AOfX/wAjJUn/AAh+r/8APr/5GSlzgYtPrX/4Q/V/+fX/AMjJR/wh+r/8+v8A5GSteeBJkUVtf8Ihqnl4+y/+RUpn/CH6v/z6/wDkZKOeAGRT62P+ET1X/n0/8jJR/wAInqv/AD6f+Rko54AY9dB4F/5DUn/XCT/0NKq/8Ipq/wDz6/8AkZK1fCOh3+majJNcwbVaHYNrqf7np9DWcp3jYUT/2Q==;imageBorder=default;strokeWidth=2;" vertex="1" parent="1">
          <mxGeometry x="110" y="625" width="140" height="140" as="geometry" />
        </mxCell>
        <mxCell id="1CN227mYzn6WlP0km_AM-71" style="edgeStyle=orthogonalEdgeStyle;rounded=0;orthogonalLoop=1;jettySize=auto;html=1;exitX=1;exitY=0.5;exitDx=0;exitDy=0;entryX=0;entryY=0.5;entryDx=0;entryDy=0;strokeWidth=2;" edge="1" parent="1" source="1CN227mYzn6WlP0km_AM-28" target="1CN227mYzn6WlP0km_AM-35">
          <mxGeometry relative="1" as="geometry" />
        </mxCell>
        <mxCell id="1CN227mYzn6WlP0km_AM-88" style="edgeStyle=orthogonalEdgeStyle;rounded=0;orthogonalLoop=1;jettySize=auto;html=1;exitX=1;exitY=0.5;exitDx=0;exitDy=0;entryX=0.489;entryY=0;entryDx=0;entryDy=0;entryPerimeter=0;strokeWidth=2;" edge="1" parent="1" source="1CN227mYzn6WlP0km_AM-28" target="1CN227mYzn6WlP0km_AM-66">
          <mxGeometry relative="1" as="geometry" />
        </mxCell>
        <mxCell id="1CN227mYzn6WlP0km_AM-89" value="&lt;span style=&quot;font-size: 14px;&quot;&gt;Input Image&lt;/span&gt;" style="rounded=0;whiteSpace=wrap;html=1;strokeWidth=2;fontStyle=1" vertex="1" parent="1">
          <mxGeometry x="110" y="765" width="140" height="30" as="geometry" />
        </mxCell>
        <mxCell id="1CN227mYzn6WlP0km_AM-90" style="edgeStyle=orthogonalEdgeStyle;rounded=0;orthogonalLoop=1;jettySize=auto;html=1;exitX=1;exitY=0.25;exitDx=0;exitDy=0;entryX=0.5;entryY=1;entryDx=0;entryDy=0;endArrow=none;endFill=0;dashed=1;dashPattern=12 12;strokeWidth=2;fillColor=#f5f5f5;strokeColor=#7a7a7a;" edge="1" parent="1" source="1CN227mYzn6WlP0km_AM-30" target="1CN227mYzn6WlP0km_AM-29">
          <mxGeometry relative="1" as="geometry">
            <Array as="points">
              <mxPoint x="250" y="920" />
              <mxPoint x="999" y="920" />
            </Array>
          </mxGeometry>
        </mxCell>
        <mxCell id="1CN227mYzn6WlP0km_AM-100" value="Pixel Discriminator Training" style="group;fontStyle=1;labelPosition=center;verticalLabelPosition=bottom;align=center;verticalAlign=top;fontSize=15;" vertex="1" connectable="0" parent="1">
          <mxGeometry x="80" y="871" width="900" height="619" as="geometry" />
        </mxCell>
        <mxCell id="1CN227mYzn6WlP0km_AM-92" value="&lt;b style=&quot;font-size: 14px;&quot;&gt;&lt;font style=&quot;font-size: 14px;&quot;&gt;&quot;REAL&quot; Image to Discriminator&lt;/font&gt;&lt;/b&gt;" style="rounded=1;whiteSpace=wrap;html=1;fillColor=none;strokeColor=#82b366;strokeWidth=3;dashed=1;labelPosition=center;verticalLabelPosition=top;align=center;verticalAlign=bottom;fontColor=#669c35;spacingBottom=0;spacingTop=-28;fontSize=14;" vertex="1" parent="1CN227mYzn6WlP0km_AM-100">
          <mxGeometry x="10" y="210" width="880" height="409" as="geometry" />
        </mxCell>
        <mxCell id="1CN227mYzn6WlP0km_AM-91" value="&lt;b&gt;&lt;font color=&quot;#ff2600&quot; style=&quot;font-size: 14px;&quot;&gt;&quot;FAKE&quot; Image to Discriminator&lt;/font&gt;&lt;/b&gt;" style="rounded=1;whiteSpace=wrap;html=1;fillColor=none;strokeColor=#ff2600;strokeWidth=3;dashed=1;labelPosition=center;verticalLabelPosition=top;align=center;verticalAlign=bottom;spacingBottom=-27;" vertex="1" parent="1CN227mYzn6WlP0km_AM-100">
          <mxGeometry x="10" width="880" height="409" as="geometry" />
        </mxCell>
        <mxCell id="1CN227mYzn6WlP0km_AM-66" value="Concatenate &lt;br&gt;by channels" style="html=1;verticalLabelPosition=bottom;align=center;labelBackgroundColor=#ffffff;verticalAlign=top;strokeWidth=2;strokeColor=#0080F0;shadow=0;dashed=0;shape=mxgraph.ios7.icons.add;fontStyle=1;fontSize=13;" vertex="1" parent="1CN227mYzn6WlP0km_AM-100">
          <mxGeometry x="190" y="284.5" width="45" height="45" as="geometry" />
        </mxCell>
        <mxCell id="1CN227mYzn6WlP0km_AM-70" value="&lt;font style=&quot;font-size: 14px;&quot;&gt;&lt;b&gt;&quot;fake&quot; input&lt;/b&gt;&lt;/font&gt;" style="edgeStyle=orthogonalEdgeStyle;rounded=0;orthogonalLoop=1;jettySize=auto;html=1;entryX=0.021;entryY=0.306;entryDx=0;entryDy=0;entryPerimeter=0;exitX=0.5;exitY=1;exitDx=0;exitDy=0;labelPosition=center;verticalLabelPosition=top;align=center;verticalAlign=bottom;spacingLeft=0;spacingBottom=30;strokeWidth=2;" edge="1" parent="1CN227mYzn6WlP0km_AM-100" source="1CN227mYzn6WlP0km_AM-31" target="1CN227mYzn6WlP0km_AM-66">
          <mxGeometry x="0.0027" relative="1" as="geometry">
            <mxPoint as="offset" />
          </mxGeometry>
        </mxCell>
        <mxCell id="1CN227mYzn6WlP0km_AM-72" value="" style="group" vertex="1" connectable="0" parent="1CN227mYzn6WlP0km_AM-100">
          <mxGeometry x="30" y="17" width="140" height="170" as="geometry" />
        </mxCell>
        <mxCell id="1CN227mYzn6WlP0km_AM-34" value="" style="group" vertex="1" connectable="0" parent="1CN227mYzn6WlP0km_AM-72">
          <mxGeometry width="120" height="160" as="geometry" />
        </mxCell>
        <mxCell id="1CN227mYzn6WlP0km_AM-30" value="" style="shape=image;verticalLabelPosition=bottom;labelBackgroundColor=default;verticalAlign=top;imageAspect=0;image=data:image/jpeg,/9j/4AAQSkZJRgABAQAAAQABAAD//gAfQ29tcHJlc3NlZCBieSBqcGVnLXJlY29tcHJlc3P/2wCEAAQEBAQEBAQEBAQGBgUGBggHBwcHCAwJCQkJCQwTDA4MDA4MExEUEA8QFBEeFxUVFx4iHRsdIiolJSo0MjRERFwBBAQEBAQEBAQEBAYGBQYGCAcHBwcIDAkJCQkJDBMMDgwMDgwTERQQDxAUER4XFRUXHiIdGx0iKiUlKjQyNEREXP/CABEIAv8D/gMBIgACEQEDEQH/xAAdAAEAAgMBAQEBAAAAAAAAAAAACAkFBgcEAQMC/9oACAEBAAAAAK/wAAAAAAAAAAAAAAAAAAAAAAAAAAAAAAAAAAAAAAAAAAAAAAAAAAAAAAAAAAAAAAAAAAAAAAAAAAAAAAAAAAAAAAAAAAAAAAAAAAAAAAAAAAAAAAAAAAAAAAAAAAAAAAAAAAAAAAAAAAAAAAAAAAAAAAAAAAAAAAAAAAAAAAAAAAAAAAAAAAAAAAAAAAAAAAAAAAAAAAAAAAAAAAAAAAAAAAAAAAAAAAE5ObxjAAAAAAAAAAAAAAAAAAAADqV1nIeXxJlfCnnunAAAAAAAAAAAAAAAAAAAHosu1iVvQgfKropgAAAAAAAAAAAAAAAAAHo7n2Padn3+SIA+RS13i0U8MAAAAAAAAAAAAAAAAAG43mfQAAaXCyBAAAAAAAAAAAAAAAAAA6Vdd+wAACnThgAAAAAAAAAAAAAAAAWP1wLQNoksAAAcbqv5qAAAAAAAAAAAAAAAAei9SOcerMwAAAeKrqKZ6PTjgAAAAAAAAAAAAAADrd0YAAAA4XTq9F2WzRfrozOva8AAAAAAAAAAAAAAPRO2wkAAAAcqpWnNMvo/7fPz/XWqP8MAAAAAAAAAAAAAA2md05wAAAAw1GfUrkwKhY9gAAAAAAAAAAAACSmY4Jh7tdwAAAAAwOZ/UCJNcGPyGrAAAAAAAAAAAAB6LYpKPmNyYAAAAAAPFictx+CUWwAAAAAAAAAAADrdy3tAAAAAAAAfKK9WAAAAAAAAAAAALb5HgAAAAAAAESKuAAAAAAAAAAAAC4rugAAAAAAABACAAAAAAAAAAAAADabxveAAAAAAAAaBSAAAAAAAAAAAAAXo7aAAAAAAAAKtYuY4AAAAAAAAAAAEzrKv2AAAAAAAACp2MYAAAAAAAAAAAb1eIAAAAAAAABwOn0AAAAAAAAAAAOhXeAAAAAAAAAfIA8t6lAAAAAAAAAAAABkb0M6AAAAAAAAB8/Pk1OGOAAAAAAAAAAAXmbkAAAAAAAAAOBR1gQAAAAAAAAAADvdvv7AAAAAAAAAAo70UAAAAAAAAAASysa3IAAAAAAAAAEd6kfOAAAAAAAAAAdjuW/UAAAAAAAAAHLKlnPQAAAAAAAAANxsmlF+oAAAAAAAAAApb5KAAAAAAAAAGZtLk0AAAAAAAAAAah5Nrpz44AAAAAAAAAN6uxyYAAAAAAAAAAjjVxqwAAAAAAAAAJOWxAAAAAAAAAAArmg0AAAAAAAAAFi85wAAAAAAAAAAKrIqAAAAAAAAAD0XE9tAAAAAAAAAAAqdjGAAAAAAAAAJOWxAAAAAAAAAAAKz4YgAAAAAAAACb1kAAAAAAAAAAAGJowwwAAAAAAAABmbf+zAAAAAAAAAAAOJU3AAAAAAAAAHe7gwAAAAAAAAAABQ1hgAAAAAAAAFrMpQAAAAAAAAAABHGqDHAAAAAAAAAyN7mRAAAAAAAAAAACueDIAAAAAAAAJZWmAAAAAAAAAAAAUAgAAAAAAAAswmcAAAAAAAAAAADjFNAAAAAAAAA9E7bCPoAAAAAAAAAAAaXUNy4AAAAAAAATmsX+gAAAAAAAAAABjKTtFAAAAAAAAG03qfQAAAAAAAAAAAaVUhyUAAAAAAAALN5jgAAAAAAAAAAArOhkAAAAAAAACSltQAAAAAAAAAAAKKtWAAAAAAAAAvM3IAAAAAAAAAAAK74IgAAAAAAAA2G8vJAAAAAAAAAAABAivgAAAAAAAAElLagAAAAAAAAAAA0eoPmoAAAAAAAAJnWXf0AAAAAAAAAAAOc0jgAAAAAAAALOJjAAAAAAAAAAAPnLa/4qAAAAAAAAAFrMpQAAAAAAAAAAK44OgAAAAAAAAB1K6wAAAAAAAAAAGl0agAAAAAAAAAWbzHAAAAAAAAAAGPpL0UAAAAAAAAACTlsQAAAAAAAAAAq2iUAAAAAAAAAA6VdoAAAAAAAAAAc/pBAAAAAAAAAALD53gAAAAAAAAAMNV5F0AAAAAAAAAAn/AD/AAAAAAAAAAVyQcAAAAAAAAAAHUritiAAAAAAAAABW/CEAAAAAAAAAAHouK7YAAAAAAAAAIkVcAAAAAAAAAAAJ/wA/wAAAAAAAB8jdIHIvlOvDAAAAAAAAAAAEzbMQAAAAAAABqNMGvdr6VxXkgAAAAAAAAAABbDI73gAAAAAAAEGIl8cAAAAAAAAAAABmchK2ygAAAAAAAApL5qAAAAAAAAAAAAei0mVoAAAAAAAHyn3ggAAAAAAAAAAAAyN5+eAAAAAAADWKrI9gAAAAAAAAAAAB2O5sAAAAAAAfOIVhcuAAAAAAAAAAAABtN43vAAAAAAAOAVAAAAAAAAAAAAAAEtbSQAAAAAAFX0Y9eAAAAAAAAAAAAAPRcB3YAAAAAAEKa1wAAAAAAAAAAAAATNsxAAAAAAGG5JTqAAAAAAAAAAAAAD0XBd0AAAAAAEKa1wAAAAAAAAAAAAADucxJjgAAAAA+VwQhAAAAAAAAAAAAAABeDvoAAAAHzhndNYrKi6AAAAAAAAAAAAAABZfM8AAAAGPr3gzJTimrAAAAAAAAAAAAAAAPRepsQAAAA5TV1xwAAAAAAAAAAAAAAAC0iWwAAABw+orDAAAAAAAAAAAAAAAANps1k9/WsefbwAAGlwsgzjgAAAAAAAAAAAAAAAA6FIPgnPbcpCAHzThuH9MBWrFvHAAAAAAAAAAAAAAAAABJS0r5sIMBWVFUdCmKhTpwAAAAAAAAAAAAAAAAAD0JGbxzfDdK4Zp2OAAAAAAAAAAAAAAAAAAAAAAAAAAAAAAAAAAAAAAAAAAAAAAAAAAAAAAAAAAAAAAAAAAAAAAAAAAAAAAAAAAAAAAAAAAAAAAAAAAAAAAAAAAAAAAAAAAAAAAAAAAAAAAAAAAAAAAAAAAAAf/EABQBAQAAAAAAAAAAAAAAAAAAAAD/2gAIAQIQAAAAAAAAAAAAAAAAAAAAAAAAAAAAAAAAAAAAAAAAAAAAAAAAAAAAAAAAAAAAAAAAAAAAAAAAAAAAAAAAAAAAAAAAAAAAAAAAAAAAAAAAAAAAAAAAAAAAAAAAAAAAAAAAAAAAAAAAAAAAAAAAAAAAAAAAAAAAAAAAAAAAAAAAAAAAAAAAAAAAAAAAAAAAAAAAAAAAAAAAAAAAAAAAAAAAAAAAAAAAAAAAAAAAAAAAAAAAAAAAAAAAAAAAAAAAAAAAAAAAAAAAAAAAAAAAAAAAAAAAAAAAAAAAAAAAAAAAAAAAAAAAAAAAAAAAAAAAAAAAAAAAAAAAAAAAAAAAAAAAAAAAAAAAAAAAAAAAAAAAAAAAAAAAAAAAAAAAAAAAAAAAAAAAAAAAAAAAAAAAAAAAAAAAAAAAAAAAAAAAAAAAAAAAAAAAAAAAAAAAAAAAAAAAAAAAAAAAAAAAAAAAAAAAAAAAAAAAAAAAAAAAAAAAAAAAAAAAAAAAAAAAAAAAAAAAAAAA/8QAFAEBAAAAAAAAAAAAAAAAAAAAAP/aAAgBAxAAAAAAAAAAAAAAAAAAAAAAAAAAAAAAAAAAAAAAAAAAAAAAAAAAAAAAAAAAAAAAAAAAAAAAAAAAAAAAAAAAAAAAAAAAAAAAAAAAAAAAAAAAAAAAAAAAAAAAAAAAAAAAAAAAAAAAAAAAAAAAAAAAAAAAAAAAAAAAAAAAAAAAAAAAAAAAAAAAAAAAAAAAAAAAAAAAAAAAAAAAAAAAAAAAAAAAAAAAAAAAAAAAAAAAAAAAAAAAAAAAAAAAAAAAAAAAAAAAAAAAAAAAAAAAAAAAAAAAAAAAAAAAAAAAAAAAAAAAAAAAAAAAAAAAAAAAAAAAAAAAAAAAAAAAAAAAAAAAAAAAAAAAAAAAAAAAAAAAAAAAAAAAAAAAAAAAAAAAAAAAAAAAAAAAAAAAAAAAAAAAAAAAAAAAAAAAAAAAAAAAAAAAAAAAAAAAAAAAAAAAAAAAAAAAAAAAAAAAAAAAAAAAAAAAAAAAAAAAAAAAAAAAAAAAAAAAAAAAAAAAAAAAAAAAAAAAAAD/xAAxEAADAAIBBAAFAgYCAgMAAAAEBQYDBwgBAlBgABMUFRYXQBASGCA3VxFWJTBHkKD/2gAIAQEAAQwA/wDyeaO4roryExVV930KonZXFi11tOP7Ax+jNSe+6Vkz7LaEWrESfdBvjkPNuqfTNsmn12U9nC8R9dAR3f2VgDDO+1lxgvayvzqbFMwnUn9Eeqf+wVnxeceNoRdKajElmz8JrrvYCIAhq7haFeB7qJhxklij5i8ImJVwu1SWpWG/mFCf8XXCEPoGD361p8vQvUupZrUU12JEnZ883+4oMQ8QkA8XCSJyK46l6yLzVcphykxft4ghbAsUAAXMSXDcattXJZ4/SdyoMU/whtu90u6VVMkxJD+D3/NoD9qrf+Il/wAIorvSsOkpTO8TrTfHSfho/KqvkUzRPP8A1FBiHiEgHi4SRC+FWpSSyiMLWmExP+EUV3pWHSUpneJ1/RHtb/sEn8UE+6lHTGdol2UFr7XrtqAi2BCu2pHyABTBDxBjwCsJIn7K+1dCbGXmiVU+JnJ21w3woprvd6vNbNDfatRxaXYN+hlH9HhTAq1gCNSsRKcHyF37TkJq79Lthsl6xUWNM+y2mjJ+q44xj+TjsX5l/DSvHOQYaWwC2y1cedLcR9Xx9GlqBWNCaV+13vpUDck0OJ2F/RP9naor9SusCarGxde32MQQtgWKAALmJL10qPRa/hUjXB8g8vhVqUksojC1phMXHzjy6L2Gfk2lDH4E/wC4dTk9SCYwaREuah8iuOpesi81XKYcpMX/ABEELYFigAC5iS2qhsiPzqniwtew9d0VPuqLbUFiSrsxfd+85U/4Fu/4iYcZJYo+YvCJi19rXXssjkTEqOeLYPIiJpSsZ1FHo2pPKPUOugdUtqtLKrk7RHDW1MJkPm4922E/STa3+sqz4fSNXLfS/k8w2UesiCFsCxQABcxJfD7X1zNX9G9pJFspX/vN/JAHunbhazfiJBvjiqx0iSj75G8Aniq2j0bqR+kYpssEkB7VawBGpWIlOD5C74KDEPEJAPFwkiLFilEBgUoloi9f8X0PNbGmjpWpC+eHQT7qUdMZ2iXZQWvqyOGtqYTIfNx7tsJxJ0dSzbUzY9mp+3d/722jkt/LOJCh7MvctoJ91KOmM7RLsoLXRURX0WxYJylm2Bar+/lT/nq79Tg+Ku0L6aCqRO9SrCf8OttIUrFzizpGvc113sBEAQ1dwtCvARztBTF5AJtEwbF60Q5JbXcPOEL8QJX795ERNKVjOoo9G1JWLFKIDApRLRF6/wDv3/xezbNf9llGMxAXtTEV8QX0CrZtgqyzqQumoEU2BkxYy6mIr4gvoFWzbBVl9NEELYFigAC5iS9GceEchC4hNjS083f/AMCgxDxCQDxcJIiKSk5T6vumplSo8W6nJ6kExg0iJc1DVa81+hPwN0sLPLj3U5PUgmMGkRLmod1xr1Jbhg4O+dxIMu/+Nx+qP5KOayls5D0vS+zhNSV+WtIlsTzLNuQ6OeR0wWPLjE8kUGIeISAeLhJEqYiviC+gVbNsFWX0viZZuq3UmHsdd+Hv7/J8zlsVm12uPdnfJpvS+MC6MA1Ag7ow/wCq8pzWlr8wtHWd/XEZFelQyMSmto+bPyZuwRCgSy6VfOzq/CAo8nt+GK2NreniwTsQRfpesTTDtZ69YHl5SS/KckNS3RG4appN69bFKWqhsiPzqniwtew9I0VxTyX6XrWX5LBSnVrAEalYiU4PkLvK8t550r3M+dHrsuJb6Pq8QRhsvXYB4uIkTy/K8QUnRVhmJFw5cvo+pP8AK2svMFBiHiEgHi4SROYusVyRLHUUZDrlyrinqMTYNeS/qEOYyX3rxg11A6+r7udNd9hfoihqeibLHirP8hhEPTKWKj6M/HhxleXKDEPEJAPFwkiLFilEBgUoloi9fyHm3VPpm2TT67KezaqGyI/OqeLC17D0TUn+KdZeb3foEXcjqHY97PCtxba4b4UU13u9XmtmhvoWitFOtwuuuXL1ygyitYAjUrESnB8hd5zZcMXrW4oIk07Cbl9A47cdVO21Lqnp3RYqnWes5rVE11mJjqX3jec3RySmdRHCIB1n39+WWWwLKPPKzEl+f0rrylsrqLKEkS2iBYsUogMClEtEXr/OcgFVK709cK5LAXnbfpJtb/WVZ8fpJtb/AFlWeeg4Ol2RShS0sF883S3FqZhV5Z+wAlNI/WLFKIDApRLRF6/0Desclgdr18rO9mbsVebRztBTF5AJtEwbF8ctCfpOBmpKLv8A57Dz9tsaG1qGAbcP8K3HDbg1xsks4CLp8TAt8/Sy6VhRUTDCAo39VIbbbdZTzB/1qnzWrxBGGy9dgHi4iREUlJyn1fdNTKlR6DyS0e+3EFI9823XCFVMRXxBfQKtm2CrL5zjvLbURbOhqJVAsO9b6FzfcHkUkUizICxQfN6F1LqDbKOZ2GRNFjH+h8v69y52sZKF9+Loq80IIWwLFAAFzEl8ctZudUa66JaPPi6tfQ+W886V7mfOj12XEt81xKjktdtrB3uuzN39vonNK5EfXCeJHBy9mXzXCGfdd9tTVfRdm+yeh1TY+emnbxWgLdm0AlAE6Y4aoVgO78zOpC6agRTYGTFjL4/ataafhSZx2zENY+ib20Uk2+k6ZsXXCBVeZ41Qxdztqd6DnYRcXo1BPupR0xnaJdlBa+Y4r6VAhZoHYJxf1b/0bk9qIO/hjnqdDmMsWqhsiPzqniwtew8soVHvWyxGqwfPYSKH8WlJiY+q+q9I5sQYCp9OXy0Ivpn8txa0ufb0gOwTi/pUHv8Awlm3QchRU5TZh2KvSORtSfGaeq2qh39sceUEFyGlihYe7D25dX8MT8/RW92kx+j7BRBF4gwIAuIYT0e72lC62ANKqKAQcjbO2aTblJ3Onfd8gHyml+Iv5OqmLe8cfJWCiCLxBgQBcQwno9VSr42ad1DPAXlB2Xcl7KuKC2NBwhZfKQwqU22jwqTuxdqQUQReIMCALiGE9ItNnxeuj5VfWtPoO7etilvtr19VO9+bvVeV4c7S6P5k7XjtqWS59I5Jb/gNoJQ5qYmspRHluKt5NQO0O8upN+iC9Ito51AVLiQoezF2svL6k/xTrL0jnHPJQHUJRBLsWFr5aRQ/lNXMTH1X0vxPpRZpAjmwcubIJ6Pzu/8Aivy/FfXX53tAFgVlLwAej7UrG0Nryprkab7mds7a9ftp1gc1ZOLp2+W4p71SwGQmArOmEROoaqHa8doiZiMF/o25Nh9NV68eVmDEJnY+Y4qv46B1f3iVOwJMI30QosReISceViGEG3/qAmlZTHbdqezPyy2cHdXASBNkXFJPM8V91AXU0Dr44T6R/wCh8geTs1dyTKCilheUbzelaw+N2hFtBHf2sb0K72lC62ANKqKAQcjzvDnaXR/Mna8dtSyXPoDmhn5kXGbRvVykTZdyXsq4oLY0HCFl87xGCyG7jA+VU5U3d6By/wBi/lmw+yRFxCdQPPaaELN21rTCELlz5fP7eti9ba4prUIDEYV5/hDDCdBKbZfedl6l+etrFLASzivoe/L2rd+8jztq9OybmcRayQ8/whuS+hdNrTvBxdRPPcot9NTmljp9UEp70HoGlaw+N2hFtBHf2sZVsXX70/AqSXU8wP8AOcn9+WHW4OhY1/mUq/QhCy15Yp4BWYYvjjs51tXXXR1RYMXa181v3k/l1i+7IyLWCHPfROENyX0Lptad4OLqJ5QosReISceViGEr+WOpZB13pu3OwfdyWsm6JSjdpnYhK/8AgUWIvEJOPKxDCck2yl7uqzao2YjBf6JwiFK67Kpz+0XN1D8pseEE2TDv4o07MFivIOl1vSmy1SF8g0Zu1C+3/Rsy8HxDcldtQxZ5HSiyv8X9bm1v+vyfxsbd2xdnFl9795mHW+irbuA42al1kG9QMQzp6hR0yVdRTrHCer8nublnVxGw3kjHKp4sDbO7qvcn2D8nXqRfSZ12XM0CKkAx4shdTb19uX0NraRg1y8R91ASB/6YvRP5AvJ7ghhNbbHp4sA7KYJ6WIWWvLFPAKzDF6K5Qz9il6qdjuV6ak8iUWIvEJOPKxDCcitky2zr/M4lEeIYT0xQqPetliNVg+ewhkhc1FR86xyYe8nx9zczWt5s2qqTfkBba5I3W2AO9AXiEUoPTdATR9Rt+EFX5hMff44osReISceViGEt+SOpIYMAnvosL/LtnbNJtyk7nTvu+QD6dDPBJm2j6Q/Hm7xJ6hR0yVdRTrHCer8bytJEE0VYYSSsOLL6jxH2j+HXX4i5aF9iLxm9eUNBYuuinXDlgmm31dV1P0v5PTtm/qQhZa8sU8ArMMXxw22dtaEzGP8AvE/IPFcluS3499frrXR//mvVOEQpXXZVOf2i5uofiLaxSwEs4r6Hvy9q2/5DwqDXjasjqmedNvVBCy15Yp4BWYYvVu/tfVELPsX92pBfeI5S7zhSJiy1GvylnPfV9d8itn63+bgXuPuwGr+Y81QfakuxAvszrwhRYi8Qk48rEMJtzmDQNy307rTtxAofWtOGiF6k1pmCKw58f78osReISceViGEkuT2oLBq4U43/ANp/hc3M1rebNqqk35AW/eR521enZNzOItZIet8KqJANBtZsh8uwuv3zmhn5kXGbRvVykTl3uhVT/ZoOIqPrVnxB8qtoQM0FLCdiloFU29fbl9Da2kYNcvrghZa8sU8ArMMXrpqe91/Cu2uf55/7zce2FOq5F4xwnqc9Ptnd1XuT7B+Tr1IvsXEHYWBtr7HK0NcJmc/u96b0SagS9MOHpiOqaCgdVbpjRUTHKc19ihngkzbR9Ifjzd4k7zD1I8dLU+XA7VdFDVQ7XjtETMRgv+Lm5mtbzZtVUm/ICn9l65qci7BP3KQ8r9pd7ShdbAGlVFAIORtrmRhezXek1eE2VmtW7Z6fnavGZbBh7LB7TutbnhFy1AXgG/rc2t/1+T+NnbXr9tOsDmrJxdO0QsteWKeAVmGL477ww7MlAhapspwWH/pKLEXiEnHlYhhP1b1T/s2T+P1b1T/s2T+P1b1T/s2T+P1b1T/s2T+FDVQ7XjtETMRgv/g5uIqbLxg0lekUk1nMjaFCA7UqwlKMZq3bPT87V4zLYMPa+KvWFH2h3tL0xSKM5uIqbLxg0lekUkqti6/en4FSS6nmB/8Ac5uIqbLxg0lekUk8iORBWyys0nJ5so0X/ZB7TutbnhFy1AXgGrucP8ypP+ByXym1dzh/mVJ/wOS+U2v7drseubWbwcTAw9uKLLNyduY0rMRlELLXlingFZhi9S8l7qEpewqpeNqRAVzd2V1KJ7gJiZwiMOT+3z7QGz6P/pfix5C7asXXe477Bgm7UXJ9+u0xSxh7+hItv1b2t/s2s+Grds9PztXjMtgw/wDtK//EAEUQAAMAAQMDAgQCBQUNCQAAAAECAwQFERIAEyFQYAYUMTIiQRAVQHXTFiAwdNQjJTNDUVJTY5GhsrS1JDREcHKQoKLE/9oACAEBAA0/AP8A4nmblu+nJi2x5JfA4IUvwrKjDmxbrTbIAYvdMusrZCwmxkZcFYlwWXn7+lq2HmalB5q8F0+F0a7XD/h7fHwQfuJC/orHDrLFgAaOuNlyu4QfVmCISFHlutY0PElnm+TJ20vLKilTgmKhVZafmS/Wm221HMvHg1grEdrBZgUsz7eKruijr+t4f9m6TamJqelYF8iF4MSFLCQftU/J5nqHHvZWZpmTCE+bBF5u6BRuSAPe1bJN8mwcyirHY0cSV3Kr9TxUnb6Dq+JGvzmFk4a42TzQHuxHZrtJ+hVhly+IbAyaRHhpPiwBDL1fhTU9TogW+bdf+CabkTmPC/z8mLxvCyCkqyoOLI6tuGVgdiD1k1HJfL10qrnYSqT5aDHxKvvDJskIQihpWtaHiqIq7lmYnYAdYsldsn4hjkYEnZzsEkDNnduu8Dmtplr1zDIflEWgiBm6PafK+Z86umwPOcuExF+f5P12ScN9StCuGajyFqIwR+LdX1C2U+S+nSylhJlREglclObKAnP+jyYvG8LIKSrKg4sjq24ZWB2IPVau6Y0cvHMohjuEQ1g7lV67JOG+pWhXDNR5C1EYI/Fuv63mf2brBqY5ONYDkjfUEEbhlYEFWBIYEEe7NP8AiHTMzKtxZ+3CGSju/FASdlHWTFLQvFxSVZUHJXRl3DKwO4I/Y74gxZ6kkZrqOMisXQwuQWTgx5Afb1hc6ZemZzStfIh/lxDFJ70T808l/deZbZrP4rdh9MbHJBQXr9EL9afiRw8aXNn4QggmicnJY7KANySf2XO45OjVu/dR0KKbSR/9S5K7N+ML7mw/hnR8+TaVCcb5xrCRyRcIB32Kbuv1cv8Ap+J4rq0dQxoKmdgQzIzaE45LguGTiH60vLTMxoZmVAwN4nlN3EYyY8G/ZtK71dIynLdgNYDnG6D6yrwG7Ack6yZd7EzsRmph5SgDmJO6oeUydnUgEe5MmyQhCKGla1oeKoiruWZidgB1p/w9pmHlR5K/bvDGSbpyQlTsw6rV3TGjl45lEMdwiGsHcqvWhRd1TOQJh5eetQk08+MqAAZzwJT9pnUWSGoYs8mQqoKh1SoYBgGIB6yajkvl66VVzsJVJ8tBj4lX+Zk2SEIRQ0rWtDxVEVdyzMTsAOoce9i5kXhefNQ68koAw3Ugj29g63ganllB4hh4eQlK2dj4VVH7b/ev/qMP01sk3ybBzKKsdjRxJXcqv1PFSdvoOsPScVI/EGHp+Ml8z/s4m2UlUDH+7gkkhj1OIgmRn6fDKqslJYIrVViFBYnrRK4rwfSsaWGKjKyZY7pdZKA67P0ljB76fp98qS1UBihaSsAwDA7dfuXM/h9ZXP5f9Y4VsXu9vbnw7qry48hv7ZybJCEIoaVrWh4qiKu5ZmJ2AHQ+HqYYtqOI+JzvfJi6Ii2Cl/Ej+2nEjc52YGaE3xrpdEcJux7rIEHEFv0al8Q2GnJqulpkO8Hx5BEXIrJkXk6sEQt1lxKDK03Ax8PMi31V41mgKsp60/Ejh40ubPwhBBNE5OSx2UAbkk/oyYvG8LIKSrKg4sjq24ZWB2IPUOXaxsOKQhPmxduCTAUbsST+i+zzdCFvjXUEJeDkHhROsGpjk41gOSN9QQRuGVgQVYEhgQR7XSxg99P0++VJaqAxQtJWAYBgdujiXwdLwM7GK5yO7gPlkP5h4Uov5uGP7dqUlSphQzqjI4olEbz+JHUMNwR1g1McnGsByRvqCCNwysCCrAkMCCOsH4mwLZeekG+TguHVMioe5ARWVP6D+9f/AE6HtPN3fETVbXje8PyuqSlTab9YkTY4Om3yK5llH1EUeKB26hx72VmaZkwhPmwRebugUbkgDqcjZ4afi0yqrJSFLlZBiFBYAnrA0TBlm40QnFcztA3JMt1ZmoWLMPuPoE4iCZGfp8MqqyUlgitVWIUFieocu1jYcUhCfNi7cEmAo3Ykn+gyeEtUjqNKjGukphEshRaFKKFCFemreMmy4MkrtjkK5hT7KqNx+JCR1q2oYunwexKyWuVQSUuVDEKC3kgHpq3jJsuDJK7Y5CuYU+yqjcfiQkezsmyQhCKGla1oeKoiruWZidgB1mZb51vmsDHzHwkoiIuILOH58OH6cmLxvCyCkqyoOLI6tuGVgdiD1k8O/wDq7Cjid3t78OfaVeXHkdvS51FkhqGLPJkKqCodUqGAYBiAeocuzlYemY0Lz5qUbi80DDkCQep1FkhqGLPJkKqCodUqGAYBiAesSrOMn4ehj4FXDjYpUCbI69PwnW1+L5OBc+NsgoqAzc/Y/swafbExpPcY7Y9bMm90czrs3AFOtV07F1CC2AFVllTFVDhSwDAN52J9TyYvG8LIKSrKg4sjq24ZWB2IPTVvGTZcGSV2xyFcwp9lVG4/EhI9maFqDaHiOicCcPGx4vIPt4LIH4eqYmXtoElqQ+R3nQZaFPIMwgDF/ZmURlaw5oXdNXeSDIk6kDhw2CoAPKAN6pp8jjyXGhxrp+TklQ75R8lluVUI/svVtb0/T7vAharLKusmKFgwDAN1gSEcfHiDxVfqSSdyzMSSzEksSSfVNQjA49rKWn3ca6ZCq/HyFcpxLezMn4Y0m1r2c0rWtMRGZ3ZvLMx9V1L5XMhfStOfIg7vBFs7HHVgtWsrlw3UOPexcyLwvPmodeSUAYbqQR7Jy5A6TjYhSeZkqfPzLmqOEgR9njd+tPxI4eNLmz8IQQTROTksdlAG5JPq2syw7adlHzLIXGxJQqFI/NHXyvsjJ+JtIheF0FJVlTKRWR1bwysPWMS2mWxndAzRqc2Ui6E/axRyvsj+Vmi/84nrGTF43hZBSVZUHFkdW3DKwOxB6w7Z0dXydKwY4yocjsjGNxEAlSQwDdaNIuGpsMO+pBkM4VB/wqhCXdOsO2M+NhWyZUw5rlZiRKeZcyqK/jd/Yun5cczFtxV+3eDiiNxcFTswB2II61XQ9P1C6wBE1rlQWrKgYsQoLesZMXjeFkFJVlQcWR1bcMrA7EHqHLtY2HFIQnzYu3BJgKN2JJ6rHDrLFgAaOuNlyu4QfVmCISFHluoce9i5kXhefNQ68koAw3Ugj2L/ACT0X/k09b0y14apWcAczJwabOqSofzR1IQOCo5s3WFzpl6ZnNK18iH+XEMUnvRPzTyX9h4NQNS1IDyzeG+WxuXhrt/sQdafiRw8aXNn4QggmicnJY7KANySfXdNrMLkxUotZXkt5sVb7WKOOS+QD7BxcttOx8fTmRMl8pESru71R1Egr9Pl1zL3zKit7XqApZioRRsqBQFA9dfjXLwZZQxkw4Mu6m1OFNqP4Kz6ybPe97OaVrWh5M7s25ZmJ3JPsCXxDhjUsh8Uvp6wg6WvO9HHa/wX1Q+W6hy7WNhxSEJ82LtwSYCjdiSfXb4kQkMNit6wW6NkTUAgvziGBQeX6/cuZ/D6/cuZ/D9evu7u5KwxoKQHvdwDwmnWXymUrAZWn4kA3gRTIQc6P9WoV6hy7WNhxSEJ82LtwSYCjdiSfYOJbGfGnZzRprlY08goGPkqhchfXJyNnhp+LTKqslIUuVkGIUFgCetTxOxeU33hgYrstDjAr4pUlQXf2Bm1aWMpnW9asg5MVnBXcqv5ttsOsOS2tAwvjVEmPHmq5CIXUHwxXrAkbZGRYniq/QAAblmYkBVAJYkAdZvyHYyO1SPPs4UpP+Cqow2ZPW8n4m0iF4XQUlWVMpFZHVvDKw6yeHf/AFdhRxO729+HPtKvLjyO3sHRa5oeWeaJKkssJuweSuQyGXTVvGTZcGSV2xyFcwp9lVG4/EhI9dzLTS2fn6U4wxpuUu9ryyKhVRu15R0YFvYeBiZl8bU6lTDOfLMuaRC/6DgA3rmg9jR9T0w1kdLz87Ax02y3mE3buh1d18Av7E+G5QTAREAblnY0cizu31Zm9bybJCEIoaVrWh4qiKu5ZmJ2AHWoahXVciEfK4jWlOQgXBIdlEgWYexNZlh207KPmWQuNiShUKR+aOvlfW9C099cxERyinMxciKSL/mVQvz9i/C0anJyXYcbV1OUbhUUfkiKPW5aJbTGzT4kcyt4WEVP5sET2JhYlLQ03DKrfJdR4RC3+/YFtvtUnpqm+amppRMw1uO6XsLbPyfly3byfWtW1DF0+D2JWS1yqCSlyoYhQW8kA9ZerZGo2OGHMJc0SKorOFL+JBiSo9i4EmGnakV2Vl8t8tk8fLQb/ah9a0CsfiHJZ1Ls8sDImRJAPzd2A9j4NTHJxrAckb6ggjcMrAgqwJDAgj1n4k0mFUMywhiaflBLpEDxzo+yl29j6JJGwGxNhe+P3QbQcf41QhZ0T7ufhOoce9i5kXhefNQ68koAw3Ugj1fUMuOHix5KncvdxNF5OQo3YgbkgdaRpOFp3zHDt935WKy58N248uO+3sjXO9i6tfy+L38RJrj/APoo6er/AA3q0KpwKm+XqGKUyEiB54STdS7f+QGo6g0MTSnkFw3aCrzzkZ/LMxJlunsm3yuHg2R1Sxe90WiQJ893s8yCvlfVb2SKNayQkGc8QXpUqiL58sxAA8npMt2yPh/GC1esE8IKZcnITmfqEBPDrGkkYQignKUpjiqIq7BVUDYAeyMfEGUmmpabahkozFEEIEhn5sCobwo6hznpmmTctDCg3/HR9gaUPlvVc3hnJomMm75OC6B4mmSjjtd36lVBITrGkkYQignKUpjiqIq7BVUDYAeyNLxKZV0w4Ne7LMbkIi/72JCqPLEDrUqzK40WLrKUJLCalm+5giDk3gE+q31vT46i17GEhhvdVsXoCvBeBO7bjbrGkkYQignKUpjiqIq7BVUDYAeydfy642JV0PYn2lBat6fScwWVST9CwJ8AkZdsZMalkM2ouLjTxy4U+QrlCV9W0XllYAunJBpACSEkr/qXP0f6KwC+ycLUKumt58uw0ZL43wgj8yuR+Yr6vqmk20pMtwOxC9ryqjXY/ZM9vYv7J02qpUwoKSdXQUSiN4/C6MGG4B9Y/knov/Jp7I1aWoxz8hPDZK4YgIl/yLIH9X1fVsLTvmOHc7XzVllz4bry48t9utJ0/F0+D2INTLGmJIXKhQXIXzsB7I/v5/8Al9X+GOxrT1hLkj5ULocfHdz4TmQW/MsqH2RpmIKxxiHK+XCNWgn5Mogmj/T8K9Y0uziYOIrTw8VSBzMkdnPKhG7sSSfV9W1A5mNqxJC42ZREkUyfyEHCDZ/HDq/LtZWHZLwpwYo3F5kqdmBB9jy7MMDGyq9tLZN3CAADy/AE0KL5KqfWdU1a2qpiPrWJ34QtCUkW6lxwoeG5T2LjSe172cTlKUxyZ3ZtgqqBuSesPEjknNrlSTT690+ZRyWYTeieCy9fDkiMXUcLJGUuZXPlKtW5oSgVOIQL618N6TCSCYYwy9PxQkEsD54UTdQ6+xM3LVc3Us6QihhiWWsziIHLHusg80CkL65XVsPD1K70VINp97ot1uX/AA9vj5JP2kBvYePiDKTTUtNtQyUZiiCECQz82BUN4UevaLyysAXTkg0gBJCSV/1Ln6P9FYBfYL1EVyM/KniyarAsEV6lQWIUkDrUqzK40WLrKUJLCalm+5giDk3gE+vQ0/KuYxZA2qKhXfBIp4ZWB5t4JAT2D8J92CZMK9175WWknyA5Hhe0UE+Hr6/E2l2ZJIXYShkLWjkL+SIpZj7A0+MBjwsxWRrk3THVqcfJVC/Ir7ANbfD0sQKBJZAQynqx9f02SvUQmaVdncTSaL4/E7sFG5A6ThSsb8Uys+6+d8gIzASmfsn7AMrfEMssMRVagwxXkw9fT5KGVmh3vlNkwdMpwjI4RODgSdCD7Brq2Hh6ld6KkG0+90W63L/h7fHySftIDdX5dnFw9Txr3pwUu3BJuWOygk+u6FZFvl6Tmsl8vLMgXFKxIKLAsUMvYeNZLwvFzOsqzPJXRl2KspG4I60/Ua6VkXj4XLaMp1FygACMwqAyj1vG4V1S2ozqcaCVmHSKBGmXqwYOW9imVviGWWGIqtQYYryYeq40nte9nE5SlMcmd2bYKqgbknpJI75Whpj5OGC/ngKvZA7daz406y0C/MuEajTRX2PdQTYum3JeJ3H6caT2vezicpSmOTO7NsFVQNyT1f8AV3ZysOyXg/DAijcHQkHYj2LD4YtGtwhMkrbKgyIzfQM4RvVdSlMLkRUO0qxqt5sVP3KHQcl8EjqGzo6EtDJgxIS8HIHOb9YGW2bh9qzp8vlNw3tLiRwoe2u7Dz+EdZUlRsb4htkZ8kZDuHkTRXRuv6pmf2nq8YxbR8ClYabxiQ4JiXbm3Mc+Tkn2NrOnwycjAwsXfMfO+XR8y2R33TZldwhDHrOiLY2RH7WX6EEHYq6kEMpAKkEH1TSuzCuTld7KemUUD18wrIJwJ4FOtI+a7H6ulafL5rhz592tf9F7J0nUMXUIJYFpNXFoKqHClSVJXyAR0tb2kuXdnlBsghnEJ/ZJTsPwoAOtf1Za4GdIMzpqGQqQEbL+c68FCsPsb1TT6wMLWULUyyYJkKr8fBZA/Et7MxrJeF4uZ1lWZ5K6MuxVlI3BHWBIF8zMtPEw9RkPHdRnKol/8+fqWNJ7XvZxOUpTHJndm2CqoG5J6xpDEbUyrpk6qU8C9UPhVUeJ7jnx+72bqGXHDxY8lTuXu4mi8nIUbsQNyQOtJ0TT8C7RJMnriwWTFCwUlSV9QhsiIgDXybsCUhBCRzo/Xzb3+SwefO6Bt4pl0dj3e19fAVS3s7B1bF1WpybrLlDAquQ6yB80oQvhF9PxpPa97OJylKY5M7s2wVVA3JPWVVkXG+Hr4+fRFQbl6kUVEXqHOemaZNy0MKDf8dH2BpQ+W9n6Tren6hdIANVpYt1qwQMVBYhes6ItjZEftZfoQQdirqQQykAqQQfTsqumQxkdwrWqM2VSiA/cwRC3tL4i442NjKndgur1dEhU/mnMAzJX03AqSmZh2piZmo1HjuuyFXSH+ZPrF5/L/rHNtldrubc+HdZuPLiN/aWNZLwvFzOsqzPJXRl2KspG4I60nL+Rzew6h7pwV55TxH+C7vkePBZT6X5hq2rQb/uH5Nj47D/xP5O/+K9qw+GLRrcITJK2yoMiM30DOEb0nTZK9RCZpV2dxNJovj8TuwUbkDoYkKYGmnPQXd8l0QF4Aiw7Qfm6EBvauNZLwvFzOsqzPJXRl2KspG4I6niRxtVlquVjafds6KAVoEYqDKhPJCnpL/JJXIxkR8LHvDLSzwq5cHmgT2wcSOLLA1p75eNjJDwhxwKIZcR44qQvWTlvA5+MoGkKreZPU1cvH0XGk9r3s4nKUpjkzuzbBVUDck9Uj8pLWHSi6lTz+O8PIEFceE3Uv7bX4Z0uLPJw6isMdZUQkH7kdSrD0DGk9r3s4nKUpjkzuzbBVUDck9YXmWVrRlgYubMPwL470f8A+jhX/RDZERAGvk3YEpCCEjnR+k4UrG/FMrPuvnfICMwEpn7J+3Mr4mzL4+nPlTXMrIYUCXSJPNlAQ/t71EVyM/KniyarAsEV6lQWIUkDqXPJ1tsF0fByXPBsaQshPd7XlmA/B+jC3TEfVY3teEPygryrPeadLW9pLl3Z5QbIIZxCf2SU7D8KAD27jWS8LxczrKszyV0ZdirKRuCOtQ+HtMzMq3FU7l74yUd+KAKN2P7bHEjXA0fKzEna3fsICoiCKPNPLEL9QvWkfNdj9XStPl81w58+7Wv+i9xYmrZGHpOnZOVL539XRxpVVJzJ5vJCX/bM6ROnaaT4A8r8zk8fKwX/AGues6ptk5NiOTt9AABsFVQAFUABQAB7j0nW9P1C6QAarSxbrVggYqCxC9ZdREZ2pwx5YcWP0NXnZyinq/LtZWHZLwpwYo3F5kqdmBB/RDZERAGvk3YEpCCEjnR+s2ItjYUc2Pzbrw7pBgSKBlXyylQV/ZcfEGUmmpabahkozFEEIEhn5sCobwo6zec8vU85ZRvjw/yYgi9NqP8Am/gp1fj3srMs9704KEXk9CWOygAe5oZZyn017UbT8l2UI4vAMFfmo4lvDdf1TM/tPWNLs4mDiK08PFUgczJHZzyoRu7EknrGsl4Xi5nWVZnkroy7FWUjcEdRy7YPyoyZJk6ikIrb5pMbwRuCefAFd1P9FjSe172cTlKUxyZ3ZtgqqBuSev31h/xOv31h/wATr99Yf8Tr99Yf8Tq/LtZWHZLwpwYo3F5kqdmBB/S8RdIahqEMWrzJKhwlWUlSVI6zec4ZOGtzqGNBm+i3Z+PPj4LhB1fj3srMs9704KEXk9CWOygAe7NN0m2Zp19VyUx4JqCXkqMpqyq1FVmKdPEXSGoahDFq8ySocJVlJUlSOr8uzi4ep41704KXbgk3LHZQSf57xF0hqGoQxavMkqHCVZSVJUjrGqC7kFK6rVD4rUHysFPmUv5sMs5T6a9qNp+S7KEcXgGCvzUcS3hun2fUv10O7ix/B5nj/L0Rq+T97cOn2fUv10O7ix/B5nj/AC9Eavk/e3DrUex3p4aOkB2IpBeIozt9E93rGMFezl2EoTEpoC2/4URQqj6AAAdY1kvC8XM6yrM8ldGXYqykbgjrL4Sz8XOy3yryQHxbFa7HhRPzXwr9GrmErRyrVSRPhXdboHbrF7Spo2MappDogIZK45c8+e5JdiX6MkimDoeXkYOHNU/MIjkszHyWck9Xy2XS9YJSvYwqvIuj5Dv3uf3hH2JXr99Zn8Tq/HvZWZZ73pwUIvJ6EsdlAA/90v8A/8QAFBEBAAAAAAAAAAAAAAAAAAAAsP/aAAgBAgEBPwBAD//EABQRAQAAAAAAAAAAAAAAAAAAALD/2gAIAQMBAT8AQA//2Q==;strokeWidth=2;imageBorder=default;" vertex="1" parent="1CN227mYzn6WlP0km_AM-34">
          <mxGeometry width="140" height="140" as="geometry" />
        </mxCell>
        <mxCell id="1CN227mYzn6WlP0km_AM-31" value="&lt;font style=&quot;font-size: 14px;&quot;&gt;Predicted Mask&lt;/font&gt;" style="rounded=0;whiteSpace=wrap;html=1;strokeWidth=2;fontStyle=1" vertex="1" parent="1CN227mYzn6WlP0km_AM-72">
          <mxGeometry y="140" width="140" height="30" as="geometry" />
        </mxCell>
        <mxCell id="1CN227mYzn6WlP0km_AM-73" value="" style="group" vertex="1" connectable="0" parent="1CN227mYzn6WlP0km_AM-100">
          <mxGeometry x="30" y="427" width="140" height="170" as="geometry" />
        </mxCell>
        <mxCell id="1CN227mYzn6WlP0km_AM-74" value="" style="group" vertex="1" connectable="0" parent="1CN227mYzn6WlP0km_AM-73">
          <mxGeometry width="120" height="160" as="geometry" />
        </mxCell>
        <mxCell id="1CN227mYzn6WlP0km_AM-75" value="" style="shape=image;verticalLabelPosition=bottom;labelBackgroundColor=default;verticalAlign=top;imageAspect=0;image=data:image/jpeg,/9j/4AAQSkZJRgABAQAAAQABAAD//gAfQ29tcHJlc3NlZCBieSBqcGVnLXJlY29tcHJlc3P/2wCEAAQEBAQEBAQEBAQGBgUGBggHBwcHCAwJCQkJCQwTDA4MDA4MExEUEA8QFBEeFxUVFx4iHRsdIiolJSo0MjRERFwBBAQEBAQEBAQEBAYGBQYGCAcHBwcIDAkJCQkJDBMMDgwMDgwTERQQDxAUER4XFRUXHiIdGx0iKiUlKjQyNEREXP/CABEIAv8D/gMBIgACEQEDEQH/xAAdAAEAAgMBAQEBAAAAAAAAAAAACAkFBgcEAQMC/9oACAEBAAAAAK/wAAAAAAAAAAAAAAAAAAAAAAAAAAAAAAAAAAAAAAAAAAAAAAAAAAAAAAAAAAAAAAAAAAAAAAAAAAAAAAAAAAAAAAAAAAAAAAAAAAAAAAAAAAAAAAAAAAAAAAAAAAAAAAAAAAAAAAAAAAAAAAAAAAAAAAAAAAAAAAAAAAAAAAAAAAAAAAAAAAAAAAAAAAAAAAAAAAAAAAAAAAAAAAAAAAAAAAAAAAAAAAE5ObxjAAAAAAAAAAAAAAAAAAAADqV1nIeXxJlfCnnunAAAAAAAAAAAAAAAAAAAHosu1iVvQgfKropgAAAAAAAAAAAAAAAAAHo7n2Padn3+SIA+RS13i0U8MAAAAAAAAAAAAAAAAAG43mfQAAaXCyBAAAAAAAAAAAAAAAAAA6Vdd+wAACnThgAAAAAAAAAAAAAAAAWP1wLQNoksAAAcbqv5qAAAAAAAAAAAAAAAAei9SOcerMwAAAeKrqKZ6PTjgAAAAAAAAAAAAAADrd0YAAAA4XTq9F2WzRfrozOva8AAAAAAAAAAAAAAPRO2wkAAAAcqpWnNMvo/7fPz/XWqP8MAAAAAAAAAAAAAA2md05wAAAAw1GfUrkwKhY9gAAAAAAAAAAAACSmY4Jh7tdwAAAAAwOZ/UCJNcGPyGrAAAAAAAAAAAAB6LYpKPmNyYAAAAAAPFictx+CUWwAAAAAAAAAAADrdy3tAAAAAAAAfKK9WAAAAAAAAAAAALb5HgAAAAAAAESKuAAAAAAAAAAAAC4rugAAAAAAABACAAAAAAAAAAAAADabxveAAAAAAAAaBSAAAAAAAAAAAAAXo7aAAAAAAAAKtYuY4AAAAAAAAAAAEzrKv2AAAAAAAACp2MYAAAAAAAAAAAb1eIAAAAAAAABwOn0AAAAAAAAAAAOhXeAAAAAAAAAfIA8t6lAAAAAAAAAAAABkb0M6AAAAAAAAB8/Pk1OGOAAAAAAAAAAAXmbkAAAAAAAAAOBR1gQAAAAAAAAAADvdvv7AAAAAAAAAAo70UAAAAAAAAAASysa3IAAAAAAAAAEd6kfOAAAAAAAAAAdjuW/UAAAAAAAAAHLKlnPQAAAAAAAAANxsmlF+oAAAAAAAAAApb5KAAAAAAAAAGZtLk0AAAAAAAAAAah5Nrpz44AAAAAAAAAN6uxyYAAAAAAAAAAjjVxqwAAAAAAAAAJOWxAAAAAAAAAAArmg0AAAAAAAAAFi85wAAAAAAAAAAKrIqAAAAAAAAAD0XE9tAAAAAAAAAAAqdjGAAAAAAAAAJOWxAAAAAAAAAAAKz4YgAAAAAAAACb1kAAAAAAAAAAAGJowwwAAAAAAAABmbf+zAAAAAAAAAAAOJU3AAAAAAAAAHe7gwAAAAAAAAAABQ1hgAAAAAAAAFrMpQAAAAAAAAAABHGqDHAAAAAAAAAyN7mRAAAAAAAAAAACueDIAAAAAAAAJZWmAAAAAAAAAAAAUAgAAAAAAAAswmcAAAAAAAAAAADjFNAAAAAAAAA9E7bCPoAAAAAAAAAAAaXUNy4AAAAAAAATmsX+gAAAAAAAAAABjKTtFAAAAAAAAG03qfQAAAAAAAAAAAaVUhyUAAAAAAAALN5jgAAAAAAAAAAArOhkAAAAAAAACSltQAAAAAAAAAAAKKtWAAAAAAAAAvM3IAAAAAAAAAAAK74IgAAAAAAAA2G8vJAAAAAAAAAAABAivgAAAAAAAAElLagAAAAAAAAAAA0eoPmoAAAAAAAAJnWXf0AAAAAAAAAAAOc0jgAAAAAAAALOJjAAAAAAAAAAAPnLa/4qAAAAAAAAAFrMpQAAAAAAAAAAK44OgAAAAAAAAB1K6wAAAAAAAAAAGl0agAAAAAAAAAWbzHAAAAAAAAAAGPpL0UAAAAAAAAACTlsQAAAAAAAAAAq2iUAAAAAAAAAA6VdoAAAAAAAAAAc/pBAAAAAAAAAALD53gAAAAAAAAAMNV5F0AAAAAAAAAAn/AD/AAAAAAAAAAVyQcAAAAAAAAAAHUritiAAAAAAAAABW/CEAAAAAAAAAAHouK7YAAAAAAAAAIkVcAAAAAAAAAAAJ/wA/wAAAAAAAB8jdIHIvlOvDAAAAAAAAAAAEzbMQAAAAAAABqNMGvdr6VxXkgAAAAAAAAAABbDI73gAAAAAAAEGIl8cAAAAAAAAAAABmchK2ygAAAAAAAApL5qAAAAAAAAAAAAei0mVoAAAAAAAHyn3ggAAAAAAAAAAAAyN5+eAAAAAAADWKrI9gAAAAAAAAAAAB2O5sAAAAAAAfOIVhcuAAAAAAAAAAAABtN43vAAAAAAAOAVAAAAAAAAAAAAAAEtbSQAAAAAAFX0Y9eAAAAAAAAAAAAAPRcB3YAAAAAAEKa1wAAAAAAAAAAAAATNsxAAAAAAGG5JTqAAAAAAAAAAAAAD0XBd0AAAAAAEKa1wAAAAAAAAAAAAADucxJjgAAAAA+VwQhAAAAAAAAAAAAAABeDvoAAAAHzhndNYrKi6AAAAAAAAAAAAAABZfM8AAAAGPr3gzJTimrAAAAAAAAAAAAAAAPRepsQAAAA5TV1xwAAAAAAAAAAAAAAAC0iWwAAABw+orDAAAAAAAAAAAAAAAANps1k9/WsefbwAAGlwsgzjgAAAAAAAAAAAAAAAA6FIPgnPbcpCAHzThuH9MBWrFvHAAAAAAAAAAAAAAAAABJS0r5sIMBWVFUdCmKhTpwAAAAAAAAAAAAAAAAAD0JGbxzfDdK4Zp2OAAAAAAAAAAAAAAAAAAAAAAAAAAAAAAAAAAAAAAAAAAAAAAAAAAAAAAAAAAAAAAAAAAAAAAAAAAAAAAAAAAAAAAAAAAAAAAAAAAAAAAAAAAAAAAAAAAAAAAAAAAAAAAAAAAAAAAAAAAAAf/EABQBAQAAAAAAAAAAAAAAAAAAAAD/2gAIAQIQAAAAAAAAAAAAAAAAAAAAAAAAAAAAAAAAAAAAAAAAAAAAAAAAAAAAAAAAAAAAAAAAAAAAAAAAAAAAAAAAAAAAAAAAAAAAAAAAAAAAAAAAAAAAAAAAAAAAAAAAAAAAAAAAAAAAAAAAAAAAAAAAAAAAAAAAAAAAAAAAAAAAAAAAAAAAAAAAAAAAAAAAAAAAAAAAAAAAAAAAAAAAAAAAAAAAAAAAAAAAAAAAAAAAAAAAAAAAAAAAAAAAAAAAAAAAAAAAAAAAAAAAAAAAAAAAAAAAAAAAAAAAAAAAAAAAAAAAAAAAAAAAAAAAAAAAAAAAAAAAAAAAAAAAAAAAAAAAAAAAAAAAAAAAAAAAAAAAAAAAAAAAAAAAAAAAAAAAAAAAAAAAAAAAAAAAAAAAAAAAAAAAAAAAAAAAAAAAAAAAAAAAAAAAAAAAAAAAAAAAAAAAAAAAAAAAAAAAAAAAAAAAAAAAAAAAAAAAAAAAAAAAAAAAAAAAAAAAAAAAAAAAAAAAAAAAAAAA/8QAFAEBAAAAAAAAAAAAAAAAAAAAAP/aAAgBAxAAAAAAAAAAAAAAAAAAAAAAAAAAAAAAAAAAAAAAAAAAAAAAAAAAAAAAAAAAAAAAAAAAAAAAAAAAAAAAAAAAAAAAAAAAAAAAAAAAAAAAAAAAAAAAAAAAAAAAAAAAAAAAAAAAAAAAAAAAAAAAAAAAAAAAAAAAAAAAAAAAAAAAAAAAAAAAAAAAAAAAAAAAAAAAAAAAAAAAAAAAAAAAAAAAAAAAAAAAAAAAAAAAAAAAAAAAAAAAAAAAAAAAAAAAAAAAAAAAAAAAAAAAAAAAAAAAAAAAAAAAAAAAAAAAAAAAAAAAAAAAAAAAAAAAAAAAAAAAAAAAAAAAAAAAAAAAAAAAAAAAAAAAAAAAAAAAAAAAAAAAAAAAAAAAAAAAAAAAAAAAAAAAAAAAAAAAAAAAAAAAAAAAAAAAAAAAAAAAAAAAAAAAAAAAAAAAAAAAAAAAAAAAAAAAAAAAAAAAAAAAAAAAAAAAAAAAAAAAAAAAAAAAAAAAAAAAAAAAAAAAAAAAAAAAAAAAAAD/xAAxEAADAAIBBAAFAgYCAgMAAAAEBQYDBwgBAlBgABMUFRYXQBASGCA3VxFWJTBHkKD/2gAIAQEAAQwA/wDyeaO4roryExVV930KonZXFi11tOP7Ax+jNSe+6Vkz7LaEWrESfdBvjkPNuqfTNsmn12U9nC8R9dAR3f2VgDDO+1lxgvayvzqbFMwnUn9Eeqf+wVnxeceNoRdKajElmz8JrrvYCIAhq7haFeB7qJhxklij5i8ImJVwu1SWpWG/mFCf8XXCEPoGD361p8vQvUupZrUU12JEnZ883+4oMQ8QkA8XCSJyK46l6yLzVcphykxft4ghbAsUAAXMSXDcattXJZ4/SdyoMU/whtu90u6VVMkxJD+D3/NoD9qrf+Il/wAIorvSsOkpTO8TrTfHSfho/KqvkUzRPP8A1FBiHiEgHi4SRC+FWpSSyiMLWmExP+EUV3pWHSUpneJ1/RHtb/sEn8UE+6lHTGdol2UFr7XrtqAi2BCu2pHyABTBDxBjwCsJIn7K+1dCbGXmiVU+JnJ21w3woprvd6vNbNDfatRxaXYN+hlH9HhTAq1gCNSsRKcHyF37TkJq79Lthsl6xUWNM+y2mjJ+q44xj+TjsX5l/DSvHOQYaWwC2y1cedLcR9Xx9GlqBWNCaV+13vpUDck0OJ2F/RP9naor9SusCarGxde32MQQtgWKAALmJL10qPRa/hUjXB8g8vhVqUksojC1phMXHzjy6L2Gfk2lDH4E/wC4dTk9SCYwaREuah8iuOpesi81XKYcpMX/ABEELYFigAC5iS2qhsiPzqniwtew9d0VPuqLbUFiSrsxfd+85U/4Fu/4iYcZJYo+YvCJi19rXXssjkTEqOeLYPIiJpSsZ1FHo2pPKPUOugdUtqtLKrk7RHDW1MJkPm4922E/STa3+sqz4fSNXLfS/k8w2UesiCFsCxQABcxJfD7X1zNX9G9pJFspX/vN/JAHunbhazfiJBvjiqx0iSj75G8Aniq2j0bqR+kYpssEkB7VawBGpWIlOD5C74KDEPEJAPFwkiLFilEBgUoloi9f8X0PNbGmjpWpC+eHQT7qUdMZ2iXZQWvqyOGtqYTIfNx7tsJxJ0dSzbUzY9mp+3d/722jkt/LOJCh7MvctoJ91KOmM7RLsoLXRURX0WxYJylm2Bar+/lT/nq79Tg+Ku0L6aCqRO9SrCf8OttIUrFzizpGvc113sBEAQ1dwtCvARztBTF5AJtEwbF60Q5JbXcPOEL8QJX795ERNKVjOoo9G1JWLFKIDApRLRF6/wDv3/xezbNf9llGMxAXtTEV8QX0CrZtgqyzqQumoEU2BkxYy6mIr4gvoFWzbBVl9NEELYFigAC5iS9GceEchC4hNjS083f/AMCgxDxCQDxcJIiKSk5T6vumplSo8W6nJ6kExg0iJc1DVa81+hPwN0sLPLj3U5PUgmMGkRLmod1xr1Jbhg4O+dxIMu/+Nx+qP5KOayls5D0vS+zhNSV+WtIlsTzLNuQ6OeR0wWPLjE8kUGIeISAeLhJEqYiviC+gVbNsFWX0viZZuq3UmHsdd+Hv7/J8zlsVm12uPdnfJpvS+MC6MA1Ag7ow/wCq8pzWlr8wtHWd/XEZFelQyMSmto+bPyZuwRCgSy6VfOzq/CAo8nt+GK2NreniwTsQRfpesTTDtZ69YHl5SS/KckNS3RG4appN69bFKWqhsiPzqniwtew9I0VxTyX6XrWX5LBSnVrAEalYiU4PkLvK8t550r3M+dHrsuJb6Pq8QRhsvXYB4uIkTy/K8QUnRVhmJFw5cvo+pP8AK2svMFBiHiEgHi4SROYusVyRLHUUZDrlyrinqMTYNeS/qEOYyX3rxg11A6+r7udNd9hfoihqeibLHirP8hhEPTKWKj6M/HhxleXKDEPEJAPFwkiLFilEBgUoloi9fyHm3VPpm2TT67KezaqGyI/OqeLC17D0TUn+KdZeb3foEXcjqHY97PCtxba4b4UU13u9XmtmhvoWitFOtwuuuXL1ygyitYAjUrESnB8hd5zZcMXrW4oIk07Cbl9A47cdVO21Lqnp3RYqnWes5rVE11mJjqX3jec3RySmdRHCIB1n39+WWWwLKPPKzEl+f0rrylsrqLKEkS2iBYsUogMClEtEXr/OcgFVK709cK5LAXnbfpJtb/WVZ8fpJtb/AFlWeeg4Ol2RShS0sF883S3FqZhV5Z+wAlNI/WLFKIDApRLRF6/0Desclgdr18rO9mbsVebRztBTF5AJtEwbF8ctCfpOBmpKLv8A57Dz9tsaG1qGAbcP8K3HDbg1xsks4CLp8TAt8/Sy6VhRUTDCAo39VIbbbdZTzB/1qnzWrxBGGy9dgHi4iREUlJyn1fdNTKlR6DyS0e+3EFI9823XCFVMRXxBfQKtm2CrL5zjvLbURbOhqJVAsO9b6FzfcHkUkUizICxQfN6F1LqDbKOZ2GRNFjH+h8v69y52sZKF9+Loq80IIWwLFAAFzEl8ctZudUa66JaPPi6tfQ+W886V7mfOj12XEt81xKjktdtrB3uuzN39vonNK5EfXCeJHBy9mXzXCGfdd9tTVfRdm+yeh1TY+emnbxWgLdm0AlAE6Y4aoVgO78zOpC6agRTYGTFjL4/ataafhSZx2zENY+ib20Uk2+k6ZsXXCBVeZ41Qxdztqd6DnYRcXo1BPupR0xnaJdlBa+Y4r6VAhZoHYJxf1b/0bk9qIO/hjnqdDmMsWqhsiPzqniwtew8soVHvWyxGqwfPYSKH8WlJiY+q+q9I5sQYCp9OXy0Ivpn8txa0ufb0gOwTi/pUHv8Awlm3QchRU5TZh2KvSORtSfGaeq2qh39sceUEFyGlihYe7D25dX8MT8/RW92kx+j7BRBF4gwIAuIYT0e72lC62ANKqKAQcjbO2aTblJ3Onfd8gHyml+Iv5OqmLe8cfJWCiCLxBgQBcQwno9VSr42ad1DPAXlB2Xcl7KuKC2NBwhZfKQwqU22jwqTuxdqQUQReIMCALiGE9ItNnxeuj5VfWtPoO7etilvtr19VO9+bvVeV4c7S6P5k7XjtqWS59I5Jb/gNoJQ5qYmspRHluKt5NQO0O8upN+iC9Ito51AVLiQoezF2svL6k/xTrL0jnHPJQHUJRBLsWFr5aRQ/lNXMTH1X0vxPpRZpAjmwcubIJ6Pzu/8Aivy/FfXX53tAFgVlLwAej7UrG0Nryprkab7mds7a9ftp1gc1ZOLp2+W4p71SwGQmArOmEROoaqHa8doiZiMF/o25Nh9NV68eVmDEJnY+Y4qv46B1f3iVOwJMI30QosReISceViGEG3/qAmlZTHbdqezPyy2cHdXASBNkXFJPM8V91AXU0Dr44T6R/wCh8geTs1dyTKCilheUbzelaw+N2hFtBHf2sb0K72lC62ANKqKAQcjzvDnaXR/Mna8dtSyXPoDmhn5kXGbRvVykTZdyXsq4oLY0HCFl87xGCyG7jA+VU5U3d6By/wBi/lmw+yRFxCdQPPaaELN21rTCELlz5fP7eti9ba4prUIDEYV5/hDDCdBKbZfedl6l+etrFLASzivoe/L2rd+8jztq9OybmcRayQ8/whuS+hdNrTvBxdRPPcot9NTmljp9UEp70HoGlaw+N2hFtBHf2sZVsXX70/AqSXU8wP8AOcn9+WHW4OhY1/mUq/QhCy15Yp4BWYYvjjs51tXXXR1RYMXa181v3k/l1i+7IyLWCHPfROENyX0Lptad4OLqJ5QosReISceViGEr+WOpZB13pu3OwfdyWsm6JSjdpnYhK/8AgUWIvEJOPKxDCck2yl7uqzao2YjBf6JwiFK67Kpz+0XN1D8pseEE2TDv4o07MFivIOl1vSmy1SF8g0Zu1C+3/Rsy8HxDcldtQxZ5HSiyv8X9bm1v+vyfxsbd2xdnFl9795mHW+irbuA42al1kG9QMQzp6hR0yVdRTrHCer8nublnVxGw3kjHKp4sDbO7qvcn2D8nXqRfSZ12XM0CKkAx4shdTb19uX0NraRg1y8R91ASB/6YvRP5AvJ7ghhNbbHp4sA7KYJ6WIWWvLFPAKzDF6K5Qz9il6qdjuV6ak8iUWIvEJOPKxDCcitky2zr/M4lEeIYT0xQqPetliNVg+ewhkhc1FR86xyYe8nx9zczWt5s2qqTfkBba5I3W2AO9AXiEUoPTdATR9Rt+EFX5hMff44osReISceViGEt+SOpIYMAnvosL/LtnbNJtyk7nTvu+QD6dDPBJm2j6Q/Hm7xJ6hR0yVdRTrHCer8bytJEE0VYYSSsOLL6jxH2j+HXX4i5aF9iLxm9eUNBYuuinXDlgmm31dV1P0v5PTtm/qQhZa8sU8ArMMXxw22dtaEzGP8AvE/IPFcluS3499frrXR//mvVOEQpXXZVOf2i5uofiLaxSwEs4r6Hvy9q2/5DwqDXjasjqmedNvVBCy15Yp4BWYYvVu/tfVELPsX92pBfeI5S7zhSJiy1GvylnPfV9d8itn63+bgXuPuwGr+Y81QfakuxAvszrwhRYi8Qk48rEMJtzmDQNy307rTtxAofWtOGiF6k1pmCKw58f78osReISceViGEkuT2oLBq4U43/ANp/hc3M1rebNqqk35AW/eR521enZNzOItZIet8KqJANBtZsh8uwuv3zmhn5kXGbRvVykTl3uhVT/ZoOIqPrVnxB8qtoQM0FLCdiloFU29fbl9Da2kYNcvrghZa8sU8ArMMXrpqe91/Cu2uf55/7zce2FOq5F4xwnqc9Ptnd1XuT7B+Tr1IvsXEHYWBtr7HK0NcJmc/u96b0SagS9MOHpiOqaCgdVbpjRUTHKc19ihngkzbR9Ifjzd4k7zD1I8dLU+XA7VdFDVQ7XjtETMRgv+Lm5mtbzZtVUm/ICn9l65qci7BP3KQ8r9pd7ShdbAGlVFAIORtrmRhezXek1eE2VmtW7Z6fnavGZbBh7LB7TutbnhFy1AXgG/rc2t/1+T+NnbXr9tOsDmrJxdO0QsteWKeAVmGL477ww7MlAhapspwWH/pKLEXiEnHlYhhP1b1T/s2T+P1b1T/s2T+P1b1T/s2T+P1b1T/s2T+FDVQ7XjtETMRgv/g5uIqbLxg0lekUk1nMjaFCA7UqwlKMZq3bPT87V4zLYMPa+KvWFH2h3tL0xSKM5uIqbLxg0lekUkqti6/en4FSS6nmB/8Ac5uIqbLxg0lekUk8iORBWyys0nJ5so0X/ZB7TutbnhFy1AXgGrucP8ypP+ByXym1dzh/mVJ/wOS+U2v7drseubWbwcTAw9uKLLNyduY0rMRlELLXlingFZhi9S8l7qEpewqpeNqRAVzd2V1KJ7gJiZwiMOT+3z7QGz6P/pfix5C7asXXe477Bgm7UXJ9+u0xSxh7+hItv1b2t/s2s+Grds9PztXjMtgw/wDtK//EAEUQAAMAAQMDAgQCBQUNCQAAAAECAwQFERIAEyFQYAYUMTIiQRAVQHXTFiAwdNQjJTNDUVJTY5GhsrS1JDREcHKQoKLE/9oACAEBAA0/AP8A4nmblu+nJi2x5JfA4IUvwrKjDmxbrTbIAYvdMusrZCwmxkZcFYlwWXn7+lq2HmalB5q8F0+F0a7XD/h7fHwQfuJC/orHDrLFgAaOuNlyu4QfVmCISFHlutY0PElnm+TJ20vLKilTgmKhVZafmS/Wm221HMvHg1grEdrBZgUsz7eKruijr+t4f9m6TamJqelYF8iF4MSFLCQftU/J5nqHHvZWZpmTCE+bBF5u6BRuSAPe1bJN8mwcyirHY0cSV3Kr9TxUnb6Dq+JGvzmFk4a42TzQHuxHZrtJ+hVhly+IbAyaRHhpPiwBDL1fhTU9TogW+bdf+CabkTmPC/z8mLxvCyCkqyoOLI6tuGVgdiD1k1HJfL10qrnYSqT5aDHxKvvDJskIQihpWtaHiqIq7lmYnYAdYsldsn4hjkYEnZzsEkDNnduu8Dmtplr1zDIflEWgiBm6PafK+Z86umwPOcuExF+f5P12ScN9StCuGajyFqIwR+LdX1C2U+S+nSylhJlREglclObKAnP+jyYvG8LIKSrKg4sjq24ZWB2IPVau6Y0cvHMohjuEQ1g7lV67JOG+pWhXDNR5C1EYI/Fuv63mf2brBqY5ONYDkjfUEEbhlYEFWBIYEEe7NP8AiHTMzKtxZ+3CGSju/FASdlHWTFLQvFxSVZUHJXRl3DKwO4I/Y74gxZ6kkZrqOMisXQwuQWTgx5Afb1hc6ZemZzStfIh/lxDFJ70T808l/deZbZrP4rdh9MbHJBQXr9EL9afiRw8aXNn4QggmicnJY7KANySf2XO45OjVu/dR0KKbSR/9S5K7N+ML7mw/hnR8+TaVCcb5xrCRyRcIB32Kbuv1cv8Ap+J4rq0dQxoKmdgQzIzaE45LguGTiH60vLTMxoZmVAwN4nlN3EYyY8G/ZtK71dIynLdgNYDnG6D6yrwG7Ack6yZd7EzsRmph5SgDmJO6oeUydnUgEe5MmyQhCKGla1oeKoiruWZidgB1p/w9pmHlR5K/bvDGSbpyQlTsw6rV3TGjl45lEMdwiGsHcqvWhRd1TOQJh5eetQk08+MqAAZzwJT9pnUWSGoYs8mQqoKh1SoYBgGIB6yajkvl66VVzsJVJ8tBj4lX+Zk2SEIRQ0rWtDxVEVdyzMTsAOoce9i5kXhefNQ68koAw3Ugj29g63ganllB4hh4eQlK2dj4VVH7b/ev/qMP01sk3ybBzKKsdjRxJXcqv1PFSdvoOsPScVI/EGHp+Ml8z/s4m2UlUDH+7gkkhj1OIgmRn6fDKqslJYIrVViFBYnrRK4rwfSsaWGKjKyZY7pdZKA67P0ljB76fp98qS1UBihaSsAwDA7dfuXM/h9ZXP5f9Y4VsXu9vbnw7qry48hv7ZybJCEIoaVrWh4qiKu5ZmJ2AHQ+HqYYtqOI+JzvfJi6Ii2Cl/Ej+2nEjc52YGaE3xrpdEcJux7rIEHEFv0al8Q2GnJqulpkO8Hx5BEXIrJkXk6sEQt1lxKDK03Ax8PMi31V41mgKsp60/Ejh40ubPwhBBNE5OSx2UAbkk/oyYvG8LIKSrKg4sjq24ZWB2IPUOXaxsOKQhPmxduCTAUbsST+i+zzdCFvjXUEJeDkHhROsGpjk41gOSN9QQRuGVgQVYEhgQR7XSxg99P0++VJaqAxQtJWAYBgdujiXwdLwM7GK5yO7gPlkP5h4Uov5uGP7dqUlSphQzqjI4olEbz+JHUMNwR1g1McnGsByRvqCCNwysCCrAkMCCOsH4mwLZeekG+TguHVMioe5ARWVP6D+9f/AE6HtPN3fETVbXje8PyuqSlTab9YkTY4Om3yK5llH1EUeKB26hx72VmaZkwhPmwRebugUbkgDqcjZ4afi0yqrJSFLlZBiFBYAnrA0TBlm40QnFcztA3JMt1ZmoWLMPuPoE4iCZGfp8MqqyUlgitVWIUFieocu1jYcUhCfNi7cEmAo3Ykn+gyeEtUjqNKjGukphEshRaFKKFCFemreMmy4MkrtjkK5hT7KqNx+JCR1q2oYunwexKyWuVQSUuVDEKC3kgHpq3jJsuDJK7Y5CuYU+yqjcfiQkezsmyQhCKGla1oeKoiruWZidgB1mZb51vmsDHzHwkoiIuILOH58OH6cmLxvCyCkqyoOLI6tuGVgdiD1k8O/wDq7Cjid3t78OfaVeXHkdvS51FkhqGLPJkKqCodUqGAYBiAeocuzlYemY0Lz5qUbi80DDkCQep1FkhqGLPJkKqCodUqGAYBiAesSrOMn4ehj4FXDjYpUCbI69PwnW1+L5OBc+NsgoqAzc/Y/swafbExpPcY7Y9bMm90czrs3AFOtV07F1CC2AFVllTFVDhSwDAN52J9TyYvG8LIKSrKg4sjq24ZWB2IPTVvGTZcGSV2xyFcwp9lVG4/EhI9maFqDaHiOicCcPGx4vIPt4LIH4eqYmXtoElqQ+R3nQZaFPIMwgDF/ZmURlaw5oXdNXeSDIk6kDhw2CoAPKAN6pp8jjyXGhxrp+TklQ75R8lluVUI/svVtb0/T7vAharLKusmKFgwDAN1gSEcfHiDxVfqSSdyzMSSzEksSSfVNQjA49rKWn3ca6ZCq/HyFcpxLezMn4Y0m1r2c0rWtMRGZ3ZvLMx9V1L5XMhfStOfIg7vBFs7HHVgtWsrlw3UOPexcyLwvPmodeSUAYbqQR7Jy5A6TjYhSeZkqfPzLmqOEgR9njd+tPxI4eNLmz8IQQTROTksdlAG5JPq2syw7adlHzLIXGxJQqFI/NHXyvsjJ+JtIheF0FJVlTKRWR1bwysPWMS2mWxndAzRqc2Ui6E/axRyvsj+Vmi/84nrGTF43hZBSVZUHFkdW3DKwOxB6w7Z0dXydKwY4yocjsjGNxEAlSQwDdaNIuGpsMO+pBkM4VB/wqhCXdOsO2M+NhWyZUw5rlZiRKeZcyqK/jd/Yun5cczFtxV+3eDiiNxcFTswB2II61XQ9P1C6wBE1rlQWrKgYsQoLesZMXjeFkFJVlQcWR1bcMrA7EHqHLtY2HFIQnzYu3BJgKN2JJ6rHDrLFgAaOuNlyu4QfVmCISFHluoce9i5kXhefNQ68koAw3Ugj2L/ACT0X/k09b0y14apWcAczJwabOqSofzR1IQOCo5s3WFzpl6ZnNK18iH+XEMUnvRPzTyX9h4NQNS1IDyzeG+WxuXhrt/sQdafiRw8aXNn4QggmicnJY7KANySfXdNrMLkxUotZXkt5sVb7WKOOS+QD7BxcttOx8fTmRMl8pESru71R1Egr9Pl1zL3zKit7XqApZioRRsqBQFA9dfjXLwZZQxkw4Mu6m1OFNqP4Kz6ybPe97OaVrWh5M7s25ZmJ3JPsCXxDhjUsh8Uvp6wg6WvO9HHa/wX1Q+W6hy7WNhxSEJ82LtwSYCjdiSfXb4kQkMNit6wW6NkTUAgvziGBQeX6/cuZ/D6/cuZ/D9evu7u5KwxoKQHvdwDwmnWXymUrAZWn4kA3gRTIQc6P9WoV6hy7WNhxSEJ82LtwSYCjdiSfYOJbGfGnZzRprlY08goGPkqhchfXJyNnhp+LTKqslIUuVkGIUFgCetTxOxeU33hgYrstDjAr4pUlQXf2Bm1aWMpnW9asg5MVnBXcqv5ttsOsOS2tAwvjVEmPHmq5CIXUHwxXrAkbZGRYniq/QAAblmYkBVAJYkAdZvyHYyO1SPPs4UpP+Cqow2ZPW8n4m0iF4XQUlWVMpFZHVvDKw6yeHf/AFdhRxO729+HPtKvLjyO3sHRa5oeWeaJKkssJuweSuQyGXTVvGTZcGSV2xyFcwp9lVG4/EhI9dzLTS2fn6U4wxpuUu9ryyKhVRu15R0YFvYeBiZl8bU6lTDOfLMuaRC/6DgA3rmg9jR9T0w1kdLz87Ax02y3mE3buh1d18Av7E+G5QTAREAblnY0cizu31Zm9bybJCEIoaVrWh4qiKu5ZmJ2AHWoahXVciEfK4jWlOQgXBIdlEgWYexNZlh207KPmWQuNiShUKR+aOvlfW9C099cxERyinMxciKSL/mVQvz9i/C0anJyXYcbV1OUbhUUfkiKPW5aJbTGzT4kcyt4WEVP5sET2JhYlLQ03DKrfJdR4RC3+/YFtvtUnpqm+amppRMw1uO6XsLbPyfly3byfWtW1DF0+D2JWS1yqCSlyoYhQW8kA9ZerZGo2OGHMJc0SKorOFL+JBiSo9i4EmGnakV2Vl8t8tk8fLQb/ah9a0CsfiHJZ1Ls8sDImRJAPzd2A9j4NTHJxrAckb6ggjcMrAgqwJDAgj1n4k0mFUMywhiaflBLpEDxzo+yl29j6JJGwGxNhe+P3QbQcf41QhZ0T7ufhOoce9i5kXhefNQ68koAw3Ugj1fUMuOHix5KncvdxNF5OQo3YgbkgdaRpOFp3zHDt935WKy58N248uO+3sjXO9i6tfy+L38RJrj/APoo6er/AA3q0KpwKm+XqGKUyEiB54STdS7f+QGo6g0MTSnkFw3aCrzzkZ/LMxJlunsm3yuHg2R1Sxe90WiQJ893s8yCvlfVb2SKNayQkGc8QXpUqiL58sxAA8npMt2yPh/GC1esE8IKZcnITmfqEBPDrGkkYQignKUpjiqIq7BVUDYAeyMfEGUmmpabahkozFEEIEhn5sCobwo6hznpmmTctDCg3/HR9gaUPlvVc3hnJomMm75OC6B4mmSjjtd36lVBITrGkkYQignKUpjiqIq7BVUDYAeyNLxKZV0w4Ne7LMbkIi/72JCqPLEDrUqzK40WLrKUJLCalm+5giDk3gE+q31vT46i17GEhhvdVsXoCvBeBO7bjbrGkkYQignKUpjiqIq7BVUDYAeydfy642JV0PYn2lBat6fScwWVST9CwJ8AkZdsZMalkM2ouLjTxy4U+QrlCV9W0XllYAunJBpACSEkr/qXP0f6KwC+ycLUKumt58uw0ZL43wgj8yuR+Yr6vqmk20pMtwOxC9ryqjXY/ZM9vYv7J02qpUwoKSdXQUSiN4/C6MGG4B9Y/knov/Jp7I1aWoxz8hPDZK4YgIl/yLIH9X1fVsLTvmOHc7XzVllz4bry48t9utJ0/F0+D2INTLGmJIXKhQXIXzsB7I/v5/8Al9X+GOxrT1hLkj5ULocfHdz4TmQW/MsqH2RpmIKxxiHK+XCNWgn5Mogmj/T8K9Y0uziYOIrTw8VSBzMkdnPKhG7sSSfV9W1A5mNqxJC42ZREkUyfyEHCDZ/HDq/LtZWHZLwpwYo3F5kqdmBB9jy7MMDGyq9tLZN3CAADy/AE0KL5KqfWdU1a2qpiPrWJ34QtCUkW6lxwoeG5T2LjSe172cTlKUxyZ3ZtgqqBuSesPEjknNrlSTT690+ZRyWYTeieCy9fDkiMXUcLJGUuZXPlKtW5oSgVOIQL618N6TCSCYYwy9PxQkEsD54UTdQ6+xM3LVc3Us6QihhiWWsziIHLHusg80CkL65XVsPD1K70VINp97ot1uX/AA9vj5JP2kBvYePiDKTTUtNtQyUZiiCECQz82BUN4UevaLyysAXTkg0gBJCSV/1Ln6P9FYBfYL1EVyM/KniyarAsEV6lQWIUkDrUqzK40WLrKUJLCalm+5giDk3gE+vQ0/KuYxZA2qKhXfBIp4ZWB5t4JAT2D8J92CZMK9175WWknyA5Hhe0UE+Hr6/E2l2ZJIXYShkLWjkL+SIpZj7A0+MBjwsxWRrk3THVqcfJVC/Ir7ANbfD0sQKBJZAQynqx9f02SvUQmaVdncTSaL4/E7sFG5A6ThSsb8Uys+6+d8gIzASmfsn7AMrfEMssMRVagwxXkw9fT5KGVmh3vlNkwdMpwjI4RODgSdCD7Brq2Hh6ld6KkG0+90W63L/h7fHySftIDdX5dnFw9Txr3pwUu3BJuWOygk+u6FZFvl6Tmsl8vLMgXFKxIKLAsUMvYeNZLwvFzOsqzPJXRl2KspG4I60/Ua6VkXj4XLaMp1FygACMwqAyj1vG4V1S2ozqcaCVmHSKBGmXqwYOW9imVviGWWGIqtQYYryYeq40nte9nE5SlMcmd2bYKqgbknpJI75Whpj5OGC/ngKvZA7daz406y0C/MuEajTRX2PdQTYum3JeJ3H6caT2vezicpSmOTO7NsFVQNyT1f8AV3ZysOyXg/DAijcHQkHYj2LD4YtGtwhMkrbKgyIzfQM4RvVdSlMLkRUO0qxqt5sVP3KHQcl8EjqGzo6EtDJgxIS8HIHOb9YGW2bh9qzp8vlNw3tLiRwoe2u7Dz+EdZUlRsb4htkZ8kZDuHkTRXRuv6pmf2nq8YxbR8ClYabxiQ4JiXbm3Mc+Tkn2NrOnwycjAwsXfMfO+XR8y2R33TZldwhDHrOiLY2RH7WX6EEHYq6kEMpAKkEH1TSuzCuTld7KemUUD18wrIJwJ4FOtI+a7H6ulafL5rhz592tf9F7J0nUMXUIJYFpNXFoKqHClSVJXyAR0tb2kuXdnlBsghnEJ/ZJTsPwoAOtf1Za4GdIMzpqGQqQEbL+c68FCsPsb1TT6wMLWULUyyYJkKr8fBZA/Et7MxrJeF4uZ1lWZ5K6MuxVlI3BHWBIF8zMtPEw9RkPHdRnKol/8+fqWNJ7XvZxOUpTHJndm2CqoG5J6xpDEbUyrpk6qU8C9UPhVUeJ7jnx+72bqGXHDxY8lTuXu4mi8nIUbsQNyQOtJ0TT8C7RJMnriwWTFCwUlSV9QhsiIgDXybsCUhBCRzo/Xzb3+SwefO6Bt4pl0dj3e19fAVS3s7B1bF1WpybrLlDAquQ6yB80oQvhF9PxpPa97OJylKY5M7s2wVVA3JPWVVkXG+Hr4+fRFQbl6kUVEXqHOemaZNy0MKDf8dH2BpQ+W9n6Tren6hdIANVpYt1qwQMVBYhes6ItjZEftZfoQQdirqQQykAqQQfTsqumQxkdwrWqM2VSiA/cwRC3tL4i442NjKndgur1dEhU/mnMAzJX03AqSmZh2piZmo1HjuuyFXSH+ZPrF5/L/rHNtldrubc+HdZuPLiN/aWNZLwvFzOsqzPJXRl2KspG4I60nL+Rzew6h7pwV55TxH+C7vkePBZT6X5hq2rQb/uH5Nj47D/xP5O/+K9qw+GLRrcITJK2yoMiM30DOEb0nTZK9RCZpV2dxNJovj8TuwUbkDoYkKYGmnPQXd8l0QF4Aiw7Qfm6EBvauNZLwvFzOsqzPJXRl2KspG4I6niRxtVlquVjafds6KAVoEYqDKhPJCnpL/JJXIxkR8LHvDLSzwq5cHmgT2wcSOLLA1p75eNjJDwhxwKIZcR44qQvWTlvA5+MoGkKreZPU1cvH0XGk9r3s4nKUpjkzuzbBVUDck9Uj8pLWHSi6lTz+O8PIEFceE3Uv7bX4Z0uLPJw6isMdZUQkH7kdSrD0DGk9r3s4nKUpjkzuzbBVUDck9YXmWVrRlgYubMPwL470f8A+jhX/RDZERAGvk3YEpCCEjnR+k4UrG/FMrPuvnfICMwEpn7J+3Mr4mzL4+nPlTXMrIYUCXSJPNlAQ/t71EVyM/KniyarAsEV6lQWIUkDqXPJ1tsF0fByXPBsaQshPd7XlmA/B+jC3TEfVY3teEPygryrPeadLW9pLl3Z5QbIIZxCf2SU7D8KAD27jWS8LxczrKszyV0ZdirKRuCOtQ+HtMzMq3FU7l74yUd+KAKN2P7bHEjXA0fKzEna3fsICoiCKPNPLEL9QvWkfNdj9XStPl81w58+7Wv+i9xYmrZGHpOnZOVL539XRxpVVJzJ5vJCX/bM6ROnaaT4A8r8zk8fKwX/AGues6ptk5NiOTt9AABsFVQAFUABQAB7j0nW9P1C6QAarSxbrVggYqCxC9ZdREZ2pwx5YcWP0NXnZyinq/LtZWHZLwpwYo3F5kqdmBB/RDZERAGvk3YEpCCEjnR+s2ItjYUc2Pzbrw7pBgSKBlXyylQV/ZcfEGUmmpabahkozFEEIEhn5sCobwo6zec8vU85ZRvjw/yYgi9NqP8Am/gp1fj3srMs9704KEXk9CWOygAe5oZZyn017UbT8l2UI4vAMFfmo4lvDdf1TM/tPWNLs4mDiK08PFUgczJHZzyoRu7EknrGsl4Xi5nWVZnkroy7FWUjcEdRy7YPyoyZJk6ikIrb5pMbwRuCefAFd1P9FjSe172cTlKUxyZ3ZtgqqBuSev31h/xOv31h/wATr99Yf8Tr99Yf8Tq/LtZWHZLwpwYo3F5kqdmBB/S8RdIahqEMWrzJKhwlWUlSVI6zec4ZOGtzqGNBm+i3Z+PPj4LhB1fj3srMs9704KEXk9CWOygAe7NN0m2Zp19VyUx4JqCXkqMpqyq1FVmKdPEXSGoahDFq8ySocJVlJUlSOr8uzi4ep41704KXbgk3LHZQSf57xF0hqGoQxavMkqHCVZSVJUjrGqC7kFK6rVD4rUHysFPmUv5sMs5T6a9qNp+S7KEcXgGCvzUcS3hun2fUv10O7ix/B5nj/L0Rq+T97cOn2fUv10O7ix/B5nj/AC9Eavk/e3DrUex3p4aOkB2IpBeIozt9E93rGMFezl2EoTEpoC2/4URQqj6AAAdY1kvC8XM6yrM8ldGXYqykbgjrL4Sz8XOy3yryQHxbFa7HhRPzXwr9GrmErRyrVSRPhXdboHbrF7Spo2MappDogIZK45c8+e5JdiX6MkimDoeXkYOHNU/MIjkszHyWck9Xy2XS9YJSvYwqvIuj5Dv3uf3hH2JXr99Zn8Tq/HvZWZZ73pwUIvJ6EsdlAA/90v8A/8QAFBEBAAAAAAAAAAAAAAAAAAAAsP/aAAgBAgEBPwBAD//EABQRAQAAAAAAAAAAAAAAAAAAALD/2gAIAQMBAT8AQA//2Q==;strokeWidth=2;imageBorder=default;" vertex="1" parent="1CN227mYzn6WlP0km_AM-74">
          <mxGeometry width="140" height="140" as="geometry" />
        </mxCell>
        <mxCell id="1CN227mYzn6WlP0km_AM-76" value="&lt;font style=&quot;font-size: 14px;&quot;&gt;True Mask&lt;/font&gt;" style="rounded=0;whiteSpace=wrap;html=1;strokeWidth=2;fontStyle=1" vertex="1" parent="1CN227mYzn6WlP0km_AM-73">
          <mxGeometry y="140" width="140" height="30" as="geometry" />
        </mxCell>
        <mxCell id="1CN227mYzn6WlP0km_AM-78" value="&lt;font style=&quot;font-size: 14px;&quot;&gt;&lt;b&gt;&quot;real&quot; input&lt;/b&gt;&lt;/font&gt;" style="edgeStyle=orthogonalEdgeStyle;rounded=0;orthogonalLoop=1;jettySize=auto;html=1;exitX=0.5;exitY=0;exitDx=0;exitDy=0;entryX=0.021;entryY=0.295;entryDx=0;entryDy=0;entryPerimeter=0;spacingTop=30;verticalAlign=top;labelPosition=center;verticalLabelPosition=bottom;align=center;strokeWidth=2;" edge="1" parent="1CN227mYzn6WlP0km_AM-100" source="1CN227mYzn6WlP0km_AM-75" target="1CN227mYzn6WlP0km_AM-66">
          <mxGeometry relative="1" as="geometry" />
        </mxCell>
        <mxCell id="1CN227mYzn6WlP0km_AM-47" value="" style="group;fillColor=#fff2cc;strokeColor=#d6b656;" vertex="1" connectable="0" parent="1CN227mYzn6WlP0km_AM-100">
          <mxGeometry x="320" y="212" width="50.76923076923077" height="190" as="geometry" />
        </mxCell>
        <mxCell id="1CN227mYzn6WlP0km_AM-38" value="&lt;b&gt;64 Filters&lt;/b&gt;" style="rounded=0;whiteSpace=wrap;html=1;fillColor=#fff2cc;strokeColor=#d6b656;horizontal=0;" vertex="1" parent="1CN227mYzn6WlP0km_AM-47">
          <mxGeometry width="30.461538461538463" height="190" as="geometry" />
        </mxCell>
        <mxCell id="1CN227mYzn6WlP0km_AM-39" value="" style="rounded=0;whiteSpace=wrap;html=1;fillColor=#dae8fc;strokeColor=#6c8ebf;" vertex="1" parent="1CN227mYzn6WlP0km_AM-47">
          <mxGeometry x="30.461538461538463" width="20.307692307692307" height="190" as="geometry" />
        </mxCell>
        <mxCell id="1CN227mYzn6WlP0km_AM-68" style="edgeStyle=orthogonalEdgeStyle;rounded=0;orthogonalLoop=1;jettySize=auto;html=1;entryX=0;entryY=0.5;entryDx=0;entryDy=0;" edge="1" parent="1CN227mYzn6WlP0km_AM-100" source="1CN227mYzn6WlP0km_AM-66" target="1CN227mYzn6WlP0km_AM-38">
          <mxGeometry relative="1" as="geometry" />
        </mxCell>
        <mxCell id="1CN227mYzn6WlP0km_AM-48" value="" style="group" vertex="1" connectable="0" parent="1CN227mYzn6WlP0km_AM-100">
          <mxGeometry x="408.84615384615387" y="235.75" width="50.76923076923077" height="142.5" as="geometry" />
        </mxCell>
        <mxCell id="1CN227mYzn6WlP0km_AM-41" value="&lt;b&gt;128 Filters&lt;/b&gt;" style="rounded=0;whiteSpace=wrap;html=1;fillColor=#fff2cc;strokeColor=#d6b656;horizontal=0;" vertex="1" parent="1CN227mYzn6WlP0km_AM-48">
          <mxGeometry width="30.461538461538463" height="142.5" as="geometry" />
        </mxCell>
        <mxCell id="1CN227mYzn6WlP0km_AM-42" value="" style="rounded=0;whiteSpace=wrap;html=1;fillColor=#dae8fc;strokeColor=#6c8ebf;" vertex="1" parent="1CN227mYzn6WlP0km_AM-48">
          <mxGeometry x="30.461538461538463" width="20.307692307692307" height="142.5" as="geometry" />
        </mxCell>
        <mxCell id="1CN227mYzn6WlP0km_AM-49" value="" style="group" vertex="1" connectable="0" parent="1CN227mYzn6WlP0km_AM-100">
          <mxGeometry x="497.69230769230774" y="247.625" width="50.76923076923077" height="118.75" as="geometry" />
        </mxCell>
        <mxCell id="1CN227mYzn6WlP0km_AM-43" value="&lt;b&gt;256 Filters&lt;/b&gt;" style="rounded=0;whiteSpace=wrap;html=1;fillColor=#fff2cc;strokeColor=#d6b656;horizontal=0;" vertex="1" parent="1CN227mYzn6WlP0km_AM-49">
          <mxGeometry width="30.461538461538463" height="118.75" as="geometry" />
        </mxCell>
        <mxCell id="1CN227mYzn6WlP0km_AM-44" value="" style="rounded=0;whiteSpace=wrap;html=1;fillColor=#dae8fc;strokeColor=#6c8ebf;" vertex="1" parent="1CN227mYzn6WlP0km_AM-49">
          <mxGeometry x="30.461538461538463" width="20.307692307692307" height="118.75" as="geometry" />
        </mxCell>
        <mxCell id="1CN227mYzn6WlP0km_AM-50" value="" style="group;horizontal=0;" vertex="1" connectable="0" parent="1CN227mYzn6WlP0km_AM-100">
          <mxGeometry x="586.5384615384615" y="259.5" width="50.76923076923077" height="95" as="geometry" />
        </mxCell>
        <mxCell id="1CN227mYzn6WlP0km_AM-45" value="&lt;b&gt;512 Filters&lt;/b&gt;" style="rounded=0;whiteSpace=wrap;html=1;fillColor=#fff2cc;strokeColor=#d6b656;horizontal=0;" vertex="1" parent="1CN227mYzn6WlP0km_AM-50">
          <mxGeometry width="30.461538461538463" height="95" as="geometry" />
        </mxCell>
        <mxCell id="1CN227mYzn6WlP0km_AM-46" value="" style="rounded=0;whiteSpace=wrap;html=1;fillColor=#dae8fc;strokeColor=#6c8ebf;" vertex="1" parent="1CN227mYzn6WlP0km_AM-50">
          <mxGeometry x="30.461538461538463" width="20.307692307692307" height="95" as="geometry" />
        </mxCell>
        <mxCell id="1CN227mYzn6WlP0km_AM-54" value="" style="group" vertex="1" connectable="0" parent="1CN227mYzn6WlP0km_AM-100">
          <mxGeometry x="675.3846153846155" y="271.375" width="50.76923076923077" height="71.25" as="geometry" />
        </mxCell>
        <mxCell id="1CN227mYzn6WlP0km_AM-52" value="&lt;b&gt;1 Filter&lt;/b&gt;" style="rounded=0;whiteSpace=wrap;html=1;fillColor=#fff2cc;strokeColor=#d6b656;horizontal=0;container=0;" vertex="1" parent="1CN227mYzn6WlP0km_AM-54">
          <mxGeometry width="30.461538461538463" height="71.25" as="geometry" />
        </mxCell>
        <mxCell id="1CN227mYzn6WlP0km_AM-53" value="" style="rounded=0;whiteSpace=wrap;html=1;fillColor=#d5e8d4;strokeColor=#82b366;container=0;" vertex="1" parent="1CN227mYzn6WlP0km_AM-54">
          <mxGeometry x="30.461538461538463" width="20.307692307692307" height="71.25" as="geometry" />
        </mxCell>
        <mxCell id="1CN227mYzn6WlP0km_AM-55" style="edgeStyle=orthogonalEdgeStyle;rounded=0;orthogonalLoop=1;jettySize=auto;html=1;exitX=1;exitY=0.5;exitDx=0;exitDy=0;entryX=0;entryY=0.5;entryDx=0;entryDy=0;" edge="1" parent="1CN227mYzn6WlP0km_AM-100" source="1CN227mYzn6WlP0km_AM-39" target="1CN227mYzn6WlP0km_AM-41">
          <mxGeometry relative="1" as="geometry" />
        </mxCell>
        <mxCell id="1CN227mYzn6WlP0km_AM-57" style="edgeStyle=orthogonalEdgeStyle;rounded=0;orthogonalLoop=1;jettySize=auto;html=1;exitX=1;exitY=0.5;exitDx=0;exitDy=0;entryX=0;entryY=0.5;entryDx=0;entryDy=0;" edge="1" parent="1CN227mYzn6WlP0km_AM-100" source="1CN227mYzn6WlP0km_AM-42" target="1CN227mYzn6WlP0km_AM-43">
          <mxGeometry relative="1" as="geometry" />
        </mxCell>
        <mxCell id="1CN227mYzn6WlP0km_AM-58" style="edgeStyle=orthogonalEdgeStyle;rounded=0;orthogonalLoop=1;jettySize=auto;html=1;exitX=1;exitY=0.5;exitDx=0;exitDy=0;entryX=0;entryY=0.5;entryDx=0;entryDy=0;" edge="1" parent="1CN227mYzn6WlP0km_AM-100" source="1CN227mYzn6WlP0km_AM-44" target="1CN227mYzn6WlP0km_AM-45">
          <mxGeometry relative="1" as="geometry" />
        </mxCell>
        <mxCell id="1CN227mYzn6WlP0km_AM-59" style="edgeStyle=orthogonalEdgeStyle;rounded=0;orthogonalLoop=1;jettySize=auto;html=1;exitX=1;exitY=0.5;exitDx=0;exitDy=0;entryX=0;entryY=0.5;entryDx=0;entryDy=0;" edge="1" parent="1CN227mYzn6WlP0km_AM-100" source="1CN227mYzn6WlP0km_AM-46" target="1CN227mYzn6WlP0km_AM-52">
          <mxGeometry relative="1" as="geometry" />
        </mxCell>
        <mxCell id="1CN227mYzn6WlP0km_AM-84" value="&lt;span style=&quot;font-size: 14px;&quot;&gt;&lt;b&gt;&quot;Real&quot; Mask&lt;/b&gt;&lt;/span&gt;" style="rounded=1;whiteSpace=wrap;html=1;fillColor=#ffe6cc;strokeColor=#d79b00;" vertex="1" parent="1CN227mYzn6WlP0km_AM-100">
          <mxGeometry x="726.1523076923077" y="478.375" width="152.30769230769232" height="71.25" as="geometry" />
        </mxCell>
        <mxCell id="1CN227mYzn6WlP0km_AM-85" style="edgeStyle=orthogonalEdgeStyle;rounded=0;orthogonalLoop=1;jettySize=auto;html=1;exitX=1;exitY=0.5;exitDx=0;exitDy=0;entryX=0.5;entryY=0;entryDx=0;entryDy=0;" edge="1" parent="1CN227mYzn6WlP0km_AM-100" source="1CN227mYzn6WlP0km_AM-53" target="1CN227mYzn6WlP0km_AM-84">
          <mxGeometry relative="1" as="geometry" />
        </mxCell>
        <mxCell id="1CN227mYzn6WlP0km_AM-96" value="&lt;span style=&quot;font-size: 14px;&quot;&gt;&lt;b&gt;&quot;Fake&quot; Mask&lt;/b&gt;&lt;/span&gt;" style="rounded=1;whiteSpace=wrap;html=1;fillColor=#ffe6cc;strokeColor=#d79b00;" vertex="1" parent="1CN227mYzn6WlP0km_AM-100">
          <mxGeometry x="726.1523076923077" y="104.005" width="152.30769230769232" height="71.25" as="geometry" />
        </mxCell>
        <mxCell id="1CN227mYzn6WlP0km_AM-97" style="edgeStyle=orthogonalEdgeStyle;rounded=0;orthogonalLoop=1;jettySize=auto;html=1;exitX=1;exitY=0.5;exitDx=0;exitDy=0;entryX=0.5;entryY=1;entryDx=0;entryDy=0;" edge="1" parent="1CN227mYzn6WlP0km_AM-100" source="1CN227mYzn6WlP0km_AM-53" target="1CN227mYzn6WlP0km_AM-96">
          <mxGeometry relative="1" as="geometry" />
        </mxCell>
        <mxCell id="1CN227mYzn6WlP0km_AM-98" value="&lt;b style=&quot;font-size: 12px;&quot;&gt;&lt;font style=&quot;font-size: 12px;&quot;&gt;Train discriminator to predict as &quot;fake&quot;&lt;/font&gt;&lt;/b&gt;" style="edgeStyle=orthogonalEdgeStyle;rounded=0;orthogonalLoop=1;jettySize=auto;html=1;exitX=1;exitY=0.75;exitDx=0;exitDy=0;entryX=0;entryY=0.25;entryDx=0;entryDy=0;dashed=1;strokeWidth=2;startArrow=classic;startFill=1;fontSize=12;" edge="1" parent="1CN227mYzn6WlP0km_AM-100" source="1CN227mYzn6WlP0km_AM-30" target="1CN227mYzn6WlP0km_AM-96">
          <mxGeometry relative="1" as="geometry" />
        </mxCell>
        <mxCell id="1CN227mYzn6WlP0km_AM-99" value="&lt;b style=&quot;border-color: var(--border-color); caret-color: rgb(0, 0, 0); color: rgb(0, 0, 0); font-family: Helvetica; font-size: 12px; font-style: normal; font-variant-caps: normal; letter-spacing: normal; text-align: center; text-indent: 0px; text-transform: none; word-spacing: 0px; -webkit-text-stroke-width: 0px; background-color: rgb(255, 255, 255); text-decoration: none;&quot;&gt;&lt;font style=&quot;border-color: var(--border-color); font-size: 12px;&quot;&gt;Train discriminator to predict as &quot;real&quot;&lt;/font&gt;&lt;/b&gt;" style="edgeStyle=orthogonalEdgeStyle;rounded=0;orthogonalLoop=1;jettySize=auto;html=1;exitX=1;exitY=0.5;exitDx=0;exitDy=0;entryX=0;entryY=0.25;entryDx=0;entryDy=0;strokeWidth=2;startArrow=classic;startFill=1;dashed=1;fontSize=12;" edge="1" parent="1CN227mYzn6WlP0km_AM-100" source="1CN227mYzn6WlP0km_AM-75" target="1CN227mYzn6WlP0km_AM-84">
          <mxGeometry relative="1" as="geometry" />
        </mxCell>
        <mxCell id="1CN227mYzn6WlP0km_AM-94" value="" style="group" vertex="1" connectable="0" parent="1CN227mYzn6WlP0km_AM-100">
          <mxGeometry x="220" y="549" width="494.61" height="65.25" as="geometry" />
        </mxCell>
        <mxCell id="1CN227mYzn6WlP0km_AM-79" value="&lt;b&gt;&lt;font style=&quot;font-size: 14px;&quot;&gt;Legend&lt;/font&gt;&lt;/b&gt;" style="rounded=1;whiteSpace=wrap;html=1;fillColor=none;strokeWidth=2;strokeColor=#B3B3B3;labelPosition=center;verticalLabelPosition=top;align=center;verticalAlign=bottom;spacingTop=0;spacingBottom=-22;" vertex="1" parent="1CN227mYzn6WlP0km_AM-94">
          <mxGeometry width="494.61000000000007" height="65.25" as="geometry" />
        </mxCell>
        <mxCell id="1CN227mYzn6WlP0km_AM-60" value="Sigmoid Activation" style="rounded=0;whiteSpace=wrap;html=1;fillColor=#d5e8d4;strokeColor=#82b366;container=0;fontStyle=1" vertex="1" parent="1CN227mYzn6WlP0km_AM-94">
          <mxGeometry x="9.32761268492568" y="23.697516393442715" width="153.9826006015733" height="30.485655737704917" as="geometry" />
        </mxCell>
        <mxCell id="1CN227mYzn6WlP0km_AM-64" value="Instance Norm, Leaky ReLU" style="rounded=0;whiteSpace=wrap;html=1;fillColor=#dae8fc;strokeColor=#6c8ebf;container=0;fontStyle=1" vertex="1" parent="1CN227mYzn6WlP0km_AM-94">
          <mxGeometry x="332.8466119286352" y="23.697516393442715" width="153.9826006015733" height="30.485655737704917" as="geometry" />
        </mxCell>
        <mxCell id="1CN227mYzn6WlP0km_AM-65" value="&lt;b&gt;Conv2D 4x4&lt;/b&gt;" style="rounded=0;whiteSpace=wrap;html=1;fillColor=#fff2cc;strokeColor=#d6b656;container=0;" vertex="1" parent="1CN227mYzn6WlP0km_AM-94">
          <mxGeometry x="171.08711230678043" y="23.697516393442715" width="153.9826006015733" height="30.485655737704917" as="geometry" />
        </mxCell>
      </root>
    </mxGraphModel>
  </diagram>
</mxfile>
